<?xml version="1.0" encoding="utf-8"?>
<!-- Svg Vector Icons : http://www.onlinewebfonts.com/icon -->
<!DOCTYPE svg PUBLIC "-//W3C//DTD SVG 1.1//EN" "http://www.w3.org/Graphics/SVG/1.1/DTD/svg11.dtd">
<svg version="1.1" xmlns="http://www.w3.org/2000/svg" xmlns:xlink="http://www.w3.org/1999/xlink" x="0px" y="0px" viewBox="0 0 256 256" enable-background="new 0 0 256 256" xml:space="preserve">
<metadata> Svg Vector Icons : http://www.onlinewebfonts.com/icon </metadata>
<g><g><g><path fill="#000000" d="M10,128v88.5h118h118V128V39.5H128H10V128z M181,55.6c2.2,1.2,4.9,4.3,5.5,6.4c1.1,3.8,0,8.3-2.4,11.1c-1.7,1.8-5.3,3.3-8.2,3.3c-9.8,0-14.6-11.8-7.6-18.7C171.7,54.3,176.8,53.5,181,55.6z M215.9,54.9c4.9,1.5,7.7,5.3,7.7,10.6c0,2.8-0.2,3.5-1.4,5.5c-0.9,1.4-2.3,2.8-3.6,3.6c-2,1.2-2.7,1.4-5.8,1.4S209,76,207,74.8c-7.8-4.9-6.5-16.6,2.2-19.6C212.2,54.1,213,54.1,215.9,54.9z M223.9,143v51.9h-95.6H32.6V143V91.1h95.6h95.6L223.9,143L223.9,143z"/></g></g></g>
</svg>
