<svg xmlns="http://www.w3.org/2000/svg" viewBox="0 0 18.58 12.72"><defs><style>.cls-1{fill:#fff;}</style></defs><g id="Layer_2" data-name="Layer 2"><g id="FS"><path class="cls-1" d="M.2,2.71H8c-.17-1.44-2.42-.92-2.42-.92s.24-.58-.69-1S3.73,1,3.71,1s.2-1-1-1-1,1.44-1,1.44S1,.64.31,1.21.2,2.71.2,2.71ZM.54,1.62A.41.41,0,0,1,.82,1.5a1.25,1.25,0,0,1,.54.19l.4.2A.19.19,0,0,0,2,1.7l0-.15A1.29,1.29,0,0,1,2.16.66.86.86,0,0,1,2.73.49a.72.72,0,0,1,.75.75v.08a.13.13,0,0,0,.22.1,1.42,1.42,0,0,1,.62-.33.92.92,0,0,1,.49.08c.48.24.48.48.49.66v.08a.27.27,0,0,0,.31.29h.08a4.2,4.2,0,0,1,.79-.08,1.28,1.28,0,0,1,1.09.48H.41A.91.91,0,0,1,.54,1.62Z"/><polygon class="cls-1" points="13.67 7.29 13.6 7.2 13.58 7.31 13.48 7.35 13.57 7.41 13.58 7.52 13.66 7.44 13.77 7.46 13.72 7.37 13.78 7.27 13.67 7.29"/><path class="cls-1" d="M17.78,6.44a.71.71,0,0,0-.17-.1s-1.19-1-2-.53-1.43.65-1.43.65l-1.47.28c.12-.16,3-3.77,3-3.85s-.07-.26-.78,0c0,0,.13.18,0,.27S11.65,6.71,11.1,7l-2.63.51c.14-.14,0-.24-.06-.32l-.09,0L8.25,5.22a2.11,2.11,0,0,0-.6.11l.08-.43a1,1,0,0,1,.51-.12V4.63c-.14-.06-.67.13-.67.13L7,7.27a5.06,5.06,0,0,0-.6.14,1,1,0,0,0-.23.24L6,7.74a5,5,0,0,0-1.21-.3,6,6,0,0,0-.69.17l1.25.49a.66.66,0,0,0-.19.17.3.3,0,0,0,.07.42,9.51,9.51,0,0,0,1.7.17h0L7.31,10h.53L5,12.48l-.55.23a2.36,2.36,0,0,0,1.15-.22c.39-.19,2.79-2,4.45-3.35l.18,0-.45.49.06.21s1.63-.15,1.81-.2.13-.26.13-.26c.23,0,.19-.09.19-.09s0-.08-.2-.16a4.44,4.44,0,0,0-.95-.06,5,5,0,0,0,.78-.13c.44-.14,1.25-.29,1.25-.29l.29-.18-.38-.07-.86.12-.28-.26c1.07-.18,3.3-.57,4.67-.85a.69.69,0,0,0,0,.13.39.39,0,0,0,.75-.21.24.24,0,0,0,0-.08,1.76,1.76,0,0,0,.41-.12.81.81,0,0,0,.37-.59l.5-.09.24-.11Zm-9.6.82a.27.27,0,0,1,.11,0,4.65,4.65,0,0,1-1.88.24A5.47,5.47,0,0,1,8.18,7.26ZM7.49,9.74a8.28,8.28,0,0,0-.28-.88A18,18,0,0,0,4.38,7.61a1.43,1.43,0,0,1,.48-.06s2.71.68,2.89.75L8,8.62l0,1.06Zm.69,0,.13-1,1.17-.13Zm3.38-1.82a1.88,1.88,0,0,0-1.77.32,1.83,1.83,0,0,1,.89-.62,2.61,2.61,0,0,1,1.07.13,2.83,2.83,0,0,0,.61,0A4.16,4.16,0,0,1,11.56,7.89Zm2.16-.26a.28.28,0,0,1-.35-.2.27.27,0,0,1,.19-.35.28.28,0,0,1,.35.2A.27.27,0,0,1,13.72,7.63ZM15.91,6.2a5.33,5.33,0,0,0-1.21.23,7.59,7.59,0,0,1,1.15-.52,2.3,2.3,0,0,1,1.41.44A4.85,4.85,0,0,0,15.91,6.2Z"/></g></g></svg>