<svg width="23" height="23" viewBox="0 0 23 23" fill="none" xmlns="http://www.w3.org/2000/svg">
<path d="M21.7422 10.9609H19.264L20.7576 9.46702C20.809 9.41729 20.8501 9.35781 20.8784 9.29204C20.9066 9.22627 20.9215 9.15553 20.9221 9.08396C20.9227 9.01238 20.9091 8.9414 20.882 8.87515C20.8549 8.8089 20.8149 8.74871 20.7642 8.6981C20.7136 8.64749 20.6534 8.60746 20.5872 8.58035C20.5209 8.55325 20.45 8.53961 20.3784 8.54023C20.3068 8.54085 20.2361 8.55572 20.1703 8.58398C20.1045 8.61223 20.045 8.6533 19.9953 8.70478L17.7392 10.9609H16.049L16.946 10.0647C16.9975 10.0149 17.0386 9.95545 17.0668 9.88968C17.0951 9.82391 17.11 9.75317 17.1106 9.6816C17.1112 9.61002 17.0976 9.53904 17.0705 9.47279C17.0433 9.40654 17.0033 9.34635 16.9527 9.29574C16.9021 9.24513 16.8419 9.2051 16.7757 9.17799C16.7094 9.15089 16.6384 9.13725 16.5668 9.13787C16.4953 9.13849 16.4245 9.15337 16.3588 9.18162C16.293 9.20987 16.2335 9.25094 16.1838 9.30242L14.5246 10.9609H12.8014L16.0519 7.71075H19.2428C19.3858 7.71075 19.5229 7.65396 19.624 7.55286C19.7251 7.45177 19.7819 7.31466 19.7819 7.17169C19.7819 7.02872 19.7251 6.89161 19.624 6.79051C19.5229 6.68942 19.3858 6.63262 19.2428 6.63262H17.13L19.1235 4.63881C19.175 4.58909 19.216 4.5296 19.2443 4.46384C19.2725 4.39807 19.2874 4.32733 19.288 4.25576C19.2887 4.18418 19.275 4.1132 19.2479 4.04695C19.2208 3.9807 19.1808 3.92051 19.1302 3.8699C19.0795 3.81928 19.0194 3.77926 18.9531 3.75215C18.8869 3.72505 18.8159 3.71141 18.7443 3.71203C18.6727 3.71265 18.602 3.72752 18.5362 3.75577C18.4705 3.78402 18.411 3.82509 18.3612 3.87658L16.3678 5.87039V3.75763C16.3678 3.61466 16.311 3.47754 16.2099 3.37645C16.1088 3.27536 15.9717 3.21856 15.8287 3.21856C15.6858 3.21856 15.5486 3.27536 15.4476 3.37645C15.3465 3.47754 15.2897 3.61466 15.2897 3.75763V6.94852L12.0391 10.1987V8.4755L13.6976 6.81663C13.7491 6.7669 13.7902 6.70742 13.8184 6.64165C13.8467 6.57588 13.8616 6.50514 13.8622 6.43357C13.8628 6.36199 13.8492 6.29101 13.8221 6.22476C13.795 6.15851 13.7549 6.09832 13.7043 6.04771C13.6537 5.9971 13.5935 5.95707 13.5273 5.92996C13.461 5.90286 13.39 5.88922 13.3185 5.88984C13.2469 5.89046 13.1761 5.90533 13.1104 5.93359C13.0446 5.96184 12.9851 6.0029 12.9354 6.05439L12.0391 6.95103V5.26089L14.2956 3.00473C14.3471 2.95501 14.3882 2.89552 14.4164 2.82976C14.4447 2.76399 14.4596 2.69325 14.4602 2.62168C14.4608 2.5501 14.4472 2.47912 14.4201 2.41287C14.393 2.34662 14.3529 2.28643 14.3023 2.23582C14.2517 2.1852 14.1915 2.14518 14.1253 2.11807C14.059 2.09097 13.988 2.07733 13.9165 2.07795C13.8449 2.07857 13.7741 2.09344 13.7084 2.1217C13.6426 2.14995 13.5831 2.19101 13.5334 2.2425L12.0391 3.73606V1.25781C12.0391 1.11484 11.9823 0.977732 11.8812 0.876638C11.7801 0.775544 11.643 0.71875 11.5001 0.71875C11.3571 0.71875 11.22 0.775544 11.1189 0.876638C11.0178 0.977732 10.961 1.11484 10.961 1.25781V3.73606L9.46743 2.24214C9.41771 2.19065 9.35822 2.14959 9.29246 2.12134C9.22669 2.09308 9.15595 2.07821 9.08438 2.07759C9.0128 2.07697 8.94182 2.09061 8.87557 2.11771C8.80932 2.14482 8.74913 2.18484 8.69852 2.23546C8.6479 2.28607 8.60788 2.34626 8.58077 2.41251C8.55367 2.47876 8.54003 2.54974 8.54065 2.62132C8.54127 2.69289 8.55614 2.76363 8.58439 2.8294C8.61265 2.89517 8.65371 2.95465 8.7052 3.00437L10.961 5.26053V6.95067L10.0647 6.05403C10.015 6.00255 9.9555 5.96148 9.88974 5.93323C9.82397 5.90497 9.75323 5.8901 9.68166 5.88948C9.61008 5.88886 9.5391 5.9025 9.47285 5.9296C9.4066 5.95671 9.34641 5.99674 9.2958 6.04735C9.24518 6.09796 9.20516 6.15815 9.17805 6.2244C9.15095 6.29065 9.13731 6.36163 9.13793 6.43321C9.13855 6.50478 9.15342 6.57552 9.18167 6.64129C9.20993 6.70706 9.25099 6.76654 9.30248 6.81627L10.961 8.47514V10.1983L7.71117 6.94816V3.75727C7.71117 3.6143 7.65437 3.47718 7.55328 3.37609C7.45219 3.275 7.31507 3.2182 7.1721 3.2182C7.02914 3.2182 6.89202 3.275 6.79093 3.37609C6.68984 3.47718 6.63304 3.6143 6.63304 3.75727V5.87003L4.63887 3.87622C4.58914 3.82473 4.52966 3.78367 4.46389 3.75541C4.39812 3.72716 4.32739 3.71229 4.25581 3.71167C4.18424 3.71105 4.11325 3.72469 4.047 3.75179C3.98076 3.7789 3.92057 3.81892 3.86995 3.86954C3.81934 3.92015 3.77931 3.98034 3.75221 4.04659C3.7251 4.11284 3.71146 4.18382 3.71209 4.2554C3.71271 4.32697 3.72758 4.39771 3.75583 4.46348C3.78408 4.52924 3.82515 4.58873 3.87664 4.63845L5.87081 6.63227H3.75804C3.61507 6.63227 3.47796 6.68906 3.37687 6.79015C3.27577 6.89125 3.21898 7.02836 3.21898 7.17133C3.21898 7.3143 3.27577 7.45141 3.37687 7.5525C3.47796 7.6536 3.61507 7.71039 3.75804 7.71039H6.94893L10.1988 10.9606H8.47556L6.81704 9.30206C6.76731 9.25058 6.70783 9.20951 6.64206 9.18126C6.5763 9.15301 6.50556 9.13813 6.43398 9.13751C6.36241 9.13689 6.29143 9.15053 6.22518 9.17764C6.15893 9.20474 6.09874 9.24477 6.04813 9.29538C5.99751 9.34599 5.95748 9.40618 5.93038 9.47243C5.90328 9.53868 5.88964 9.60966 5.89026 9.68124C5.89088 9.75282 5.90575 9.82355 5.934 9.88932C5.96225 9.95509 6.00332 10.0146 6.05481 10.0643L6.95109 10.9606H5.26095L3.00515 8.70442C2.95542 8.65294 2.89594 8.61187 2.83017 8.58362C2.76441 8.55537 2.69367 8.54049 2.62209 8.53987C2.55052 8.53925 2.47953 8.55289 2.41329 8.57999C2.34704 8.6071 2.28685 8.64713 2.23624 8.69774C2.18562 8.74835 2.14559 8.80854 2.11849 8.87479C2.09139 8.94104 2.07775 9.01202 2.07837 9.0836C2.07899 9.15518 2.09386 9.22591 2.12211 9.29168C2.15036 9.35745 2.19143 9.41693 2.24292 9.46666L3.73648 10.9606H1.25787C1.11485 10.9606 0.977696 11.0174 0.876568 11.1185C0.775441 11.2196 0.718628 11.3568 0.718628 11.4998C0.718628 11.6428 0.775441 11.78 0.876568 11.8811C0.977696 11.9822 1.11485 12.0391 1.25787 12.0391H3.73612L2.24256 13.533C2.19251 13.5831 2.15281 13.6425 2.12573 13.7079C2.09866 13.7733 2.08473 13.8434 2.08475 13.9142C2.08476 13.985 2.09872 14.0551 2.12583 14.1205C2.15294 14.1859 2.19266 14.2453 2.24274 14.2954C2.29281 14.3454 2.35225 14.3851 2.41766 14.4122C2.48308 14.4393 2.55318 14.4532 2.62398 14.4532C2.69478 14.4532 2.76488 14.4392 2.83028 14.4121C2.89568 14.385 2.9551 14.3453 3.00515 14.2952L5.26095 12.0391H6.95109L6.05481 12.9353C5.95373 13.0365 5.89696 13.1736 5.897 13.3166C5.89703 13.4596 5.95386 13.5967 6.05499 13.6978C6.15611 13.7988 6.29325 13.8556 6.43623 13.8556C6.57921 13.8555 6.71632 13.7987 6.8174 13.6976L8.47592 12.0391H10.1991L6.94929 15.2892H3.7584C3.61543 15.2892 3.47832 15.346 3.37723 15.4471C3.27613 15.5482 3.21934 15.6853 3.21934 15.8283C3.21934 15.9713 3.27613 16.1084 3.37723 16.2095C3.47832 16.3106 3.61543 16.3674 3.7584 16.3674H5.87117L3.877 18.3612C3.82695 18.4113 3.78725 18.4707 3.76017 18.5361C3.73309 18.6015 3.71917 18.6716 3.71918 18.7424C3.71922 18.8854 3.77605 19.0225 3.87717 19.1236C3.9783 19.2247 4.11544 19.2814 4.25842 19.2814C4.4014 19.2814 4.53851 19.2245 4.63959 19.1234L6.63376 17.1296V19.2424C6.63376 19.3853 6.69055 19.5225 6.79165 19.6236C6.89274 19.7246 7.02985 19.7814 7.17282 19.7814C7.31579 19.7814 7.4529 19.7246 7.554 19.6236C7.65509 19.5225 7.71189 19.3853 7.71189 19.2424V16.0515L10.9617 12.8013V14.5245L9.3032 16.1834C9.20212 16.2845 9.14535 16.4216 9.14539 16.5646C9.14542 16.7076 9.20225 16.8447 9.30338 16.9458C9.4045 17.0469 9.54164 17.1036 9.68462 17.1036C9.8276 17.1036 9.96471 17.0467 10.0658 16.9456L10.9621 16.049V17.7391L8.70628 19.9949C8.65623 20.045 8.61653 20.1044 8.58945 20.1698C8.56238 20.2352 8.54845 20.3054 8.54846 20.3762C8.54848 20.4469 8.56244 20.517 8.58955 20.5824C8.61666 20.6479 8.65638 20.7073 8.70646 20.7573C8.75653 20.8074 8.81597 20.8471 8.88138 20.8741C8.9468 20.9012 9.0169 20.9151 9.0877 20.9151C9.1585 20.9151 9.2286 20.9012 9.294 20.874C9.3594 20.8469 9.41882 20.8072 9.46887 20.7571L10.9624 19.2636V21.7422C10.9624 21.8852 11.0192 22.0223 11.1203 22.1234C11.2214 22.2245 11.3585 22.2812 11.5015 22.2812C11.6445 22.2812 11.7816 22.2245 11.8827 22.1234C11.9838 22.0223 12.0406 21.8852 12.0406 21.7422V19.2639L13.5348 20.7575C13.6401 20.8628 13.7778 20.9153 13.9161 20.9153C14.0227 20.9152 14.1269 20.8836 14.2155 20.8244C14.3041 20.7652 14.3732 20.6811 14.414 20.5826C14.4548 20.4841 14.4655 20.3758 14.4448 20.2713C14.424 20.1667 14.3727 20.0707 14.2974 19.9953L12.0391 17.7391V16.049L12.9354 16.9456C13.0407 17.0509 13.1791 17.1034 13.3167 17.1034C13.4233 17.1034 13.5275 17.0717 13.6161 17.0125C13.7047 16.9533 13.7738 16.8692 13.8146 16.7707C13.8554 16.6722 13.8661 16.5639 13.8453 16.4594C13.8246 16.3548 13.7733 16.2588 13.698 16.1834L12.0391 14.5245V12.8013L15.2897 16.0515V19.2424C15.2897 19.3853 15.3465 19.5225 15.4476 19.6236C15.5486 19.7246 15.6858 19.7814 15.8287 19.7814C15.9717 19.7814 16.1088 19.7246 16.2099 19.6236C16.311 19.5225 16.3678 19.3853 16.3678 19.2424V17.1296L18.3612 19.1234C18.4665 19.2287 18.6049 19.2812 18.7425 19.2812C18.8491 19.2812 18.9533 19.2495 19.0419 19.1903C19.1305 19.1311 19.1996 19.047 19.2404 18.9485C19.2812 18.8501 19.2919 18.7417 19.2712 18.6372C19.2504 18.5326 19.1992 18.4366 19.1238 18.3612L17.1304 16.3674H19.2432C19.3861 16.3674 19.5232 16.3106 19.6243 16.2095C19.7254 16.1084 19.7822 15.9713 19.7822 15.8283C19.7822 15.6853 19.7254 15.5482 19.6243 15.4471C19.5232 15.346 19.3861 15.2892 19.2432 15.2892H16.0523L12.8014 12.0391H14.5246L16.1838 13.6976C16.2891 13.8029 16.4267 13.8553 16.5651 13.8553C16.6717 13.8553 16.7758 13.8237 16.8645 13.7645C16.9531 13.7053 17.0222 13.6211 17.063 13.5227C17.1038 13.4242 17.1145 13.3159 17.0937 13.2113C17.073 13.1068 17.0217 13.0108 16.9464 12.9353L16.049 12.0391H17.7392L19.995 14.2952C20.1003 14.4005 20.2386 14.453 20.3763 14.453C20.4828 14.453 20.587 14.4213 20.6756 14.3621C20.7642 14.3029 20.8333 14.2188 20.8741 14.1203C20.9149 14.0219 20.9256 13.9135 20.9049 13.809C20.8841 13.7044 20.8329 13.6084 20.7576 13.533L19.264 12.0391H21.7422C21.8852 12.0391 22.0223 11.9823 22.1234 11.8812C22.2245 11.7801 22.2813 11.643 22.2813 11.5C22.2813 11.357 22.2245 11.2199 22.1234 11.1188C22.0223 11.0177 21.8852 10.9609 21.7422 10.9609Z" fill="white"/>
</svg>
