<svg xmlns="http://www.w3.org/2000/svg" viewBox="0 0 11.65 15.38"><polygon points="3.65 2.15 2.91 3.73 3.84 3.73 3.65 2.15"/><path d="M10.17,0H1.48A1.48,1.48,0,0,0,0,1.48V13.9a1.48,1.48,0,0,0,1.48,1.48h8.69a1.49,1.49,0,0,0,1.48-1.48V1.48A1.48,1.48,0,0,0,10.17,0ZM1.47,5.25l.16,0a.38.38,0,0,0,.17-.07A.77.77,0,0,0,2,5a1.05,1.05,0,0,0,.16-.26L3,3l.89-1.88h.45c.12.92.21,1.67.29,2.27s.14,1.1.2,1.5a.85.85,0,0,0,0,.17A.67.67,0,0,0,5,5.15a.33.33,0,0,0,.13.07.4.4,0,0,0,.15,0l0,.23H3.48l0-.23a1,1,0,0,0,.36-.08C4,5.14,4,5.1,4,5.06V5s0-.06,0-.09L3.88,4H2.78c0,.07-.08.17-.14.29s-.1.23-.14.32a1.65,1.65,0,0,0-.1.29.44.44,0,0,0,0,.09.17.17,0,0,0,.1.16,1,1,0,0,0,.33.08l0,.23H1.43ZM10,13.93H1.81a.5.5,0,0,1-.5-.5.5.5,0,0,1,.5-.5H10a.51.51,0,0,1,.5.5A.5.5,0,0,1,10,13.93Zm0-3.33H1.81a.5.5,0,0,1-.5-.5.5.5,0,0,1,.5-.5H10a.51.51,0,0,1,.5.5A.5.5,0,0,1,10,10.6Zm0-3.33H1.81a.5.5,0,0,1-.5-.5.5.5,0,0,1,.5-.5H10a.51.51,0,0,1,.5.5A.5.5,0,0,1,10,7.27Zm0-3.33H6.12a.5.5,0,0,1-.5-.5.51.51,0,0,1,.5-.5H10a.51.51,0,0,1,.5.5A.5.5,0,0,1,10,3.94Z"/></svg>
