<svg width="10" height="10" viewBox="0 0 10 10" fill="none" xmlns="http://www.w3.org/2000/svg">
<path d="M5.94002 4.99998L8.80669 2.13998C8.93222 2.01445 9.00275 1.84418 9.00275 1.66665C9.00275 1.48911 8.93222 1.31885 8.80669 1.19331C8.68115 1.06778 8.51089 0.997253 8.33335 0.997253C8.15582 0.997253 7.98556 1.06778 7.86002 1.19331L5.00002 4.05998L2.14002 1.19331C2.01448 1.06778 1.84422 0.997253 1.66669 0.997253C1.48915 0.997253 1.31889 1.06778 1.19335 1.19331C1.06782 1.31885 0.997293 1.48911 0.997293 1.66665C0.997293 1.84418 1.06782 2.01445 1.19335 2.13998L4.06002 4.99998L1.19335 7.85998C1.13087 7.92196 1.08127 7.99569 1.04743 8.07693C1.01358 8.15817 0.996155 8.24531 0.996155 8.33331C0.996155 8.42132 1.01358 8.50846 1.04743 8.5897C1.08127 8.67094 1.13087 8.74467 1.19335 8.80665C1.25533 8.86913 1.32906 8.91873 1.4103 8.95258C1.49154 8.98642 1.57868 9.00385 1.66669 9.00385C1.75469 9.00385 1.84183 8.98642 1.92307 8.95258C2.00431 8.91873 2.07805 8.86913 2.14002 8.80665L5.00002 5.93998L7.86002 8.80665C7.922 8.86913 7.99573 8.91873 8.07697 8.95258C8.15821 8.98642 8.24535 9.00385 8.33335 9.00385C8.42136 9.00385 8.5085 8.98642 8.58974 8.95258C8.67098 8.91873 8.74471 8.86913 8.80669 8.80665C8.86917 8.74467 8.91877 8.67094 8.95261 8.5897C8.98646 8.50846 9.00389 8.42132 9.00389 8.33331C9.00389 8.24531 8.98646 8.15817 8.95261 8.07693C8.91877 7.99569 8.86917 7.92196 8.80669 7.85998L5.94002 4.99998Z" fill="white"/>
</svg>
