<svg xmlns="http://www.w3.org/2000/svg" viewBox="0 0 22.29 22.29"><defs><style>.cls-1{fill:#fff;}</style></defs><g id="Layer_2" data-name="Layer 2"><g id="Date"><path class="cls-1" d="M19,3.26A11.14,11.14,0,0,0,3.26,19,11.13,11.13,0,0,0,19,19,11.13,11.13,0,0,0,19,3.26Zm-7.88,18.3h-.25L5.94,5.43a8.57,8.57,0,0,1,2,3.41,8.48,8.48,0,0,1,.27,3.89h0a5.74,5.74,0,0,1,4.66.6,5.28,5.28,0,0,0,4.27.52l2.29-.7L17.21,5.81l-.12,0a6.38,6.38,0,0,1-4.93-.53,5.78,5.78,0,0,0-4.48-.45L5.93,5.4l-.2-.64a.4.4,0,0,0-.51-.27A.4.4,0,0,0,5,5L10,21.49a10.35,10.35,0,1,1,1.13.07ZM9.58,5.08c5,.19,4.18,7.14,4.18,7.14C12.72,5.33,9.58,5.08,9.58,5.08Z"/></g></g></svg>