<svg width="39" height="20" viewBox="0 0 39 20" fill="none" xmlns="http://www.w3.org/2000/svg">
<path d="M7.80794 19.0243C6.64568 19.0243 5.49808 18.7648 4.44887 18.2648C3.39967 17.7648 2.47533 17.0368 1.74329 16.134C1.01126 15.2313 0.490005 14.1765 0.217555 13.0466C-0.0548948 11.9167 -0.0716648 10.7402 0.168469 9.60305C0.408603 8.46586 0.899583 7.39663 1.60559 6.47336C2.31159 5.5501 3.2148 4.79609 4.24933 4.26636C5.28385 3.73662 6.42359 3.44453 7.58539 3.41138C8.74718 3.37823 9.90172 3.60487 10.9648 4.07476L11.646 4.37205L11.0514 5.73249L10.3715 5.43521C9.5109 5.05523 8.57633 4.87213 7.63595 4.89926C6.69557 4.92638 5.7731 5.16305 4.93581 5.59201C4.09853 6.02096 3.36754 6.63138 2.79615 7.37876C2.22476 8.12613 1.82739 8.99161 1.63301 9.91208C1.43862 10.8325 1.45213 11.7848 1.67255 12.6994C1.89296 13.614 2.31473 14.4678 2.90709 15.1987C3.49944 15.9296 4.24746 16.519 5.09657 16.924C5.94569 17.3291 6.8745 17.5395 7.81527 17.5399C8.80307 17.5433 9.77759 17.3123 10.6588 16.866L11.3254 16.5327L11.9959 17.8592L11.3294 18.1925C10.2383 18.744 9.03181 19.0285 7.80928 19.0223L7.80794 19.0243Z" fill="#E0E0E0"/>
<path d="M7.75857 17.6385H7.73191C6.0376 17.6175 4.42006 16.9285 3.2309 15.7215C2.04173 14.5144 1.37706 12.8868 1.38137 11.1923C1.38567 9.49791 2.0586 7.87366 3.25388 6.67266C4.44916 5.47165 6.07018 4.79097 7.76457 4.77856H7.79856C8.94747 4.78423 10.074 5.09698 11.0614 5.68442L10.3002 6.95821C9.54097 6.50642 8.67466 6.26614 7.79123 6.26232H7.76457C6.45355 6.25799 5.19451 6.77464 4.26442 7.6986C3.33432 8.62257 2.80937 9.87817 2.80504 11.1892C2.80071 12.5002 3.31736 13.7592 4.24132 14.6893C5.16529 15.6194 6.42089 16.1444 7.73191 16.1487H7.75857C8.73676 16.1496 9.69305 15.859 10.5055 15.3142L11.3307 16.5566C10.2739 17.2644 9.03044 17.6417 7.75857 17.6405V17.6385Z" fill="#A5A4A4"/>
<path d="M1.29435 11.1875C1.27966 10.3346 1.44703 9.4884 1.7853 8.7053C2.12358 7.92221 2.62497 7.22026 3.25603 6.64629C4.53459 5.42353 6.24583 4.75763 8.01459 4.79459H8.03658C7.93735 4.77848 7.8358 4.78418 7.73898 4.81127C7.64217 4.83836 7.55242 4.88621 7.47596 4.95149C7.3995 5.01676 7.33817 5.0979 7.29623 5.18927C7.25429 5.28063 7.23274 5.38003 7.23308 5.48056C7.23343 5.58109 7.25565 5.68035 7.29822 5.77142C7.34078 5.8625 7.40267 5.94322 7.47957 6.00797C7.55647 6.07272 7.64655 6.11995 7.74354 6.14638C7.84054 6.17282 7.94213 6.17782 8.04125 6.16103H8.01459C7.33512 6.14762 6.65975 6.26927 6.02768 6.51895C5.3956 6.76862 4.8194 7.14133 4.33252 7.61546C3.85094 8.08052 3.46813 8.63796 3.207 9.25441C2.94587 9.87087 2.81179 10.5337 2.81279 11.2031C2.81379 11.8726 2.94983 12.535 3.21279 13.1507C3.47575 13.7664 3.86022 14.3227 4.34318 14.7863C4.83127 15.2609 5.40808 15.6347 6.04066 15.8863C6.67324 16.1379 7.3492 16.2624 8.02992 16.2527C8.21324 16.2464 8.39159 16.313 8.5259 16.438C8.66021 16.5629 8.73952 16.736 8.74647 16.9193C8.7435 17.1058 8.66901 17.284 8.53838 17.4171C8.40775 17.5502 8.23097 17.628 8.04458 17.6345H8.03592C6.26267 17.6678 4.54874 16.9958 3.27069 15.7661C2.63515 15.187 2.13021 14.4791 1.78945 13.6897C1.44869 12.9002 1.27991 12.0473 1.29435 11.1875Z" fill="white"/>
<path d="M10.9613 5.61987L12.5284 6.43507L10.2754 6.93766L10.9613 5.61987Z" fill="#BBBDBF"/>
<path d="M11.6474 4.30273L12.5292 6.43572L10.9622 5.62052L11.6474 4.30273Z" fill="white"/>
<path d="M11.24 16.6273L12.7837 15.7681L11.9612 17.9257L11.24 16.6273Z" fill="#BBBDBF"/>
<path d="M10.5188 15.3289L12.7851 15.7675L11.2413 16.6273L10.5188 15.3289Z" fill="white"/>
<path d="M21.0129 7.03882L22.7346 17.0052H19.7205V7.03882H21.0129Z" fill="white"/>
<path d="M19.7206 7.03882V17.0052H16.7078L18.4295 7.03882H19.7206Z" fill="#B3B3B3"/>
<path d="M19.7206 17.0051V20L16.7078 17.0051H19.7206Z" fill="#E0E0E0"/>
<path d="M22.7346 17.0051L19.7205 20V17.0051H22.7346Z" fill="#B2B2B2"/>
<path d="M23.4373 5.02515L22.6028 5.80702H16.8104L15.9766 5.02515H23.4373Z" fill="#B2B2B2"/>
<path d="M23.4373 4.24463H15.9766V5.0265H23.4373V4.24463Z" fill="#E0E0E0"/>
<path d="M15.9765 5.02517V6.75089H15.1406V4.24463L15.9765 5.02517Z" fill="#B3B3B3"/>
<path d="M15.9765 4.24463V5.02517L15.1406 4.24463H15.9765Z" fill="white"/>
<path d="M16.8111 5.80702V6.75153H15.9766V5.02515L16.8111 5.80702Z" fill="#E0E0E0"/>
<path d="M24.2718 4.24463V6.8562H23.4373V5.02517L24.2718 4.24463Z" fill="#E0E0E0"/>
<path d="M23.4373 5.02515V6.85551H22.6028V5.80702L23.4373 5.02515Z" fill="#B2B2B2"/>
<path d="M24.2718 4.24463L23.4373 5.02517V4.24463H24.2718Z" fill="white"/>
<path d="M15.9765 6.75146V8.00193L15.1406 6.75146H15.9765Z" fill="white"/>
<path d="M16.8111 6.75146L15.9766 8.00193V6.75146H16.8111Z" fill="#E0E0E0"/>
<path d="M24.2718 6.85547L23.4373 8.10593V6.85547H24.2718Z" fill="white"/>
<path d="M23.4373 6.85547V8.10593L22.6028 6.85547H23.4373Z" fill="#B2B2B2"/>
<path d="M20.3518 1.45776H19.7092V3.48143H20.3518V1.45776Z" fill="white"/>
<path d="M19.7091 1.45776H19.0652V3.48143H19.7091V1.45776Z" fill="#B3B3B3"/>
<path d="M20.3511 0.733137H19.0333C19.0231 0.64083 19.0325 0.547409 19.0608 0.45897C19.0891 0.370531 19.1358 0.289062 19.1978 0.21988C19.2597 0.150698 19.3356 0.0953574 19.4204 0.05747C19.5052 0.0195827 19.597 0 19.6899 0C19.7827 0 19.8746 0.0195827 19.9593 0.05747C20.0441 0.0953574 20.12 0.150698 20.1819 0.21988C20.2439 0.289062 20.2906 0.370531 20.3189 0.45897C20.3472 0.547409 20.3566 0.64083 20.3464 0.733137H20.3511Z" fill="white"/>
<path d="M33.5343 19.0247C32.372 19.0244 31.2245 18.7646 30.1753 18.2644C29.1262 17.7641 28.202 17.036 27.4701 16.1331C26.7382 15.2302 26.2171 14.1753 25.9448 13.0453C25.6726 11.9154 25.6559 10.7389 25.8962 9.60176C26.1365 8.46459 26.6275 7.39539 27.3336 6.47216C28.0397 5.54894 28.943 4.79498 29.9775 4.26529C31.0121 3.7356 32.1519 3.44353 33.3137 3.4104C34.4755 3.37727 35.63 3.60391 36.6931 4.07378L37.373 4.37107L36.7784 5.73151L36.0985 5.43423C35.2379 5.05425 34.3033 4.87115 33.363 4.89828C32.4226 4.92541 31.5001 5.16208 30.6628 5.59103C29.8255 6.01998 29.0946 6.63041 28.5232 7.37778C27.9518 8.12515 27.5544 8.99063 27.36 9.9111C27.1656 10.8316 27.1791 11.7838 27.3996 12.6984C27.62 13.613 28.0417 14.4669 28.6341 15.1977C29.2265 15.9286 29.9745 16.518 30.8236 16.923C31.6727 17.3281 32.6015 17.5385 33.5423 17.5389C34.5289 17.542 35.5022 17.3113 36.3825 16.8657L37.049 16.5324L37.7156 17.8589L37.049 18.1922C35.9575 18.7438 34.7506 19.0287 33.5276 19.0234L33.5343 19.0247Z" fill="#E0E0E0"/>
<path d="M33.4862 17.6382H33.4582C31.7639 17.6172 30.1464 16.9283 28.9572 15.7212C27.7681 14.5142 27.1034 12.8865 27.1077 11.1921C27.112 9.49767 27.7849 7.87342 28.9802 6.67241C30.1755 5.47141 31.7965 4.79072 33.4909 4.77832H33.5249C34.6738 4.78399 35.8003 5.09673 36.7877 5.68417L36.0265 6.95797C35.2672 6.50636 34.401 6.26609 33.5175 6.26208H33.4909C32.8417 6.26041 32.1986 6.38663 31.5982 6.63351C30.9979 6.88039 30.452 7.24311 29.9918 7.70095C29.0624 8.6256 28.5384 9.88159 28.535 11.1926C28.5317 12.5036 29.0492 13.7623 29.9739 14.6917C30.8986 15.6211 32.1545 16.1451 33.4656 16.1485H33.4922C34.4677 16.1484 35.4211 15.8581 36.2311 15.3146L37.057 16.5517C36.0013 17.2609 34.758 17.6392 33.4862 17.6382Z" fill="#A5A4A4"/>
<path d="M27.0199 11.1879C27.0054 10.3349 27.173 9.48862 27.5115 8.70551C27.85 7.92241 28.3516 7.22051 28.9829 6.64667C30.2611 5.42328 31.9726 4.75728 33.7415 4.79497H33.7635C33.6642 4.77896 33.5627 4.78475 33.4659 4.81194C33.3691 4.83913 33.2794 4.88707 33.203 4.95242C33.1266 5.01777 33.0654 5.09897 33.0235 5.19037C32.9817 5.28178 32.9602 5.3812 32.9607 5.48173C32.9611 5.58226 32.9834 5.68149 33.0261 5.77252C33.0687 5.86355 33.1307 5.94421 33.2077 6.00889C33.2846 6.07356 33.3747 6.12071 33.4718 6.14705C33.5688 6.17339 33.6704 6.17829 33.7695 6.16141H33.7415C33.062 6.14822 32.3867 6.26997 31.7547 6.51963C31.1227 6.76929 30.5464 7.14189 30.0594 7.61584C29.5774 8.08066 29.1942 8.63802 28.9328 9.25451C28.6714 9.87099 28.5372 10.5339 28.5382 11.2035C28.5392 11.8731 28.6754 12.5357 28.9386 13.1514C29.2019 13.7671 29.5867 14.3233 30.0701 14.7867C30.5578 15.2612 31.1342 15.635 31.7665 15.8866C32.3987 16.1383 33.0744 16.2628 33.7548 16.2531C33.9384 16.2466 34.1171 16.3131 34.2517 16.438C34.3864 16.5629 34.4661 16.7361 34.4734 16.9197C34.4701 17.106 34.3955 17.2841 34.2649 17.4171C34.1344 17.5501 33.9578 17.6281 33.7715 17.6349H33.7628C31.9909 17.6646 30.2796 16.9903 29.0043 15.7598C28.3678 15.182 27.8617 14.4752 27.5197 13.6866C27.1777 12.8979 27.0075 12.0455 27.0206 11.1859L27.0199 11.1879Z" fill="white"/>
<path d="M36.6897 5.62012L38.2554 6.43532L36.0024 6.9379L36.6897 5.62012Z" fill="#BBBDBF"/>
<path d="M37.3736 4.30249L38.2554 6.43548L36.6897 5.62028L37.3736 4.30249Z" fill="white"/>
<path d="M36.9663 16.627L38.5114 15.7678L37.6889 17.9255L36.9663 16.627Z" fill="#BBBDBF"/>
<path d="M36.2466 15.3293L38.5129 15.7679L36.9678 16.6278L36.2466 15.3293Z" fill="white"/>
<path d="M5.46046 8.92237C5.46046 8.87225 5.44055 8.82418 5.40511 8.78875C5.36967 8.75331 5.32161 8.7334 5.27149 8.7334C5.22137 8.7334 5.17331 8.75331 5.13787 8.78875C5.10243 8.82418 5.08252 8.87225 5.08252 8.92237V9.04901H5.46046V8.92237Z" fill="white"/>
<path d="M5.72214 9.43091H4.76562V9.60621C5.09508 9.65558 5.4316 9.59391 5.72214 9.43091Z" fill="white"/>
<path d="M5.50162 9.17822H5.04036L4.88306 9.30487H5.69359L5.50162 9.17822Z" fill="white"/>
<path d="M5.27107 10.6941C5.17658 10.6931 5.08332 10.7157 4.99975 10.7598C4.91618 10.8039 4.84494 10.8682 4.79248 10.9468H5.75032C5.69781 10.8681 5.62646 10.8037 5.54276 10.7596C5.45907 10.7155 5.36568 10.693 5.27107 10.6941Z" fill="white"/>
<path d="M6.34355 9.05169C6.22499 9.05685 6.11178 9.10246 6.02276 9.18093C5.93374 9.2594 5.87429 9.36599 5.85429 9.48295C5.85353 9.48427 5.85313 9.48577 5.85313 9.48729C5.85313 9.48881 5.85353 9.4903 5.85429 9.49162C5.63722 9.63055 5.39008 9.71556 5.13348 9.73956C4.87688 9.76356 4.61827 9.72586 4.3792 9.6296C4.14623 9.52439 3.89114 9.47749 3.63599 9.49295V9.51695C3.63684 9.54643 3.64776 9.57474 3.66691 9.59717C3.68607 9.61959 3.71232 9.6348 3.7413 9.64026C3.88423 9.66488 4.01923 9.72318 4.13515 9.81035C4.25106 9.89752 4.34454 10.011 4.40786 10.1415C4.49371 10.2919 4.62246 10.4133 4.77765 10.4901C4.93284 10.5669 5.10741 10.5957 5.27905 10.5728C5.42637 10.5808 5.57367 10.557 5.71099 10.503C5.84831 10.4491 5.97242 10.3663 6.07492 10.2602C6.05006 10.2939 6.03279 10.3326 6.0243 10.3737C6.01581 10.4147 6.0163 10.4571 6.02573 10.498C6.03516 10.5388 6.05332 10.5771 6.07896 10.6103C6.10459 10.6434 6.13709 10.6707 6.17424 10.6901C6.31555 10.7567 6.31088 10.7567 6.32288 10.7567C6.33117 10.7582 6.33966 10.7579 6.34785 10.756C6.35603 10.754 6.36374 10.7505 6.37052 10.7455C6.3773 10.7405 6.38301 10.7342 6.38731 10.727C6.39161 10.7198 6.3944 10.7118 6.39554 10.7034C6.39814 10.6901 6.3962 10.6763 6.39004 10.6642C6.38388 10.6521 6.37385 10.6425 6.36154 10.6368L6.23356 10.5701C6.21224 10.5591 6.1936 10.5436 6.17897 10.5246C6.16434 10.5056 6.15408 10.4836 6.14891 10.4601C6.14356 10.4371 6.14348 10.4131 6.14868 10.39C6.15387 10.367 6.1642 10.3454 6.17891 10.3268C6.24156 10.2468 6.32755 10.2748 6.47619 10.1988C6.59122 10.1532 6.68913 10.0728 6.75628 9.96882C6.82343 9.86487 6.85647 9.74256 6.8508 9.61893C6.85845 9.47667 6.80957 9.33715 6.71481 9.23078C6.62004 9.1244 6.48707 9.05979 6.34488 9.05103L6.34355 9.05169ZM5.60167 10.3901C5.59113 10.3932 5.57996 10.3935 5.56928 10.391C5.5586 10.3884 5.54879 10.383 5.54082 10.3755C5.53285 10.3679 5.52701 10.3584 5.52389 10.3479C5.52076 10.3373 5.52046 10.3262 5.52301 10.3155C5.52551 10.3047 5.53084 10.2947 5.53845 10.2866C5.54607 10.2785 5.55569 10.2726 5.56634 10.2695C5.8043 10.2028 5.96627 10.0509 5.96627 9.90089C5.9656 9.86653 5.95694 9.8328 5.94098 9.80238C5.92501 9.77195 5.90218 9.74566 5.87429 9.72558C5.86543 9.71838 5.85857 9.70901 5.85436 9.69839C5.85016 9.68777 5.84876 9.67625 5.85029 9.66493C5.85264 9.65366 5.85787 9.6432 5.86546 9.63456C5.87305 9.62592 5.88275 9.61938 5.89362 9.6156C5.90502 9.61181 5.91723 9.61117 5.92897 9.61375C5.9407 9.61634 5.95152 9.62204 5.96027 9.63026C6.00419 9.66117 6.04014 9.70206 6.06517 9.74957C6.0902 9.79708 6.10359 9.84986 6.10425 9.90355C6.10425 10.1135 5.91228 10.3035 5.61633 10.3928L5.60167 10.3901ZM6.41487 10.0835C6.27822 10.1502 6.17557 10.1235 6.08159 10.2408C6.13256 10.1885 6.171 10.1253 6.19401 10.0559C6.21703 9.98657 6.22402 9.91291 6.21446 9.84047C6.2049 9.76803 6.17903 9.69871 6.13882 9.63771C6.0986 9.57671 6.04508 9.52562 5.98227 9.48829C5.99925 9.40335 6.04393 9.32645 6.10931 9.26963C6.17469 9.21281 6.25707 9.1793 6.34355 9.17434C6.45291 9.18335 6.55424 9.23534 6.62533 9.31893C6.69642 9.40252 6.73148 9.51088 6.72282 9.62027C6.72927 9.71998 6.70355 9.81913 6.64943 9.90312C6.59531 9.98712 6.51566 10.0515 6.4222 10.0869L6.41487 10.0835Z" fill="white"/>
<path d="M9.51637 8.92237C9.51637 8.87225 9.49646 8.82418 9.46102 8.78875C9.42558 8.75331 9.37752 8.7334 9.3274 8.7334C9.27728 8.7334 9.22921 8.75331 9.19378 8.78875C9.15834 8.82418 9.13843 8.87225 9.13843 8.92237V9.04901H9.51637V8.92237Z" fill="white"/>
<path d="M9.78117 9.43091H8.82666V9.60621C9.15548 9.65616 9.49156 9.59444 9.78117 9.43091Z" fill="white"/>
<path d="M9.56457 9.17822H9.09798L8.94067 9.30487H9.75121L9.56457 9.17822Z" fill="white"/>
<path d="M9.3304 10.6935C9.2359 10.6924 9.14265 10.715 9.05908 10.7591C8.97551 10.8032 8.90426 10.8675 8.85181 10.9461H9.81365C9.76076 10.8668 9.68878 10.8021 9.60433 10.758C9.51988 10.7138 9.42567 10.6916 9.3304 10.6935Z" fill="white"/>
<path d="M10.409 9.05176C10.2902 9.05662 10.1767 9.10209 10.0874 9.18059C9.99808 9.25908 9.93843 9.36584 9.91839 9.48302V9.49169C9.70157 9.6306 9.45465 9.71561 9.19826 9.73962C8.94187 9.76362 8.68347 9.72592 8.44463 9.62966C8.21158 9.52471 7.95656 9.47783 7.70142 9.49302V9.51702C7.70172 9.54645 7.71226 9.57486 7.73124 9.59737C7.75021 9.61987 7.77644 9.63506 7.8054 9.64033C7.94842 9.66468 8.08354 9.72289 8.19949 9.81009C8.31544 9.89728 8.40886 10.0109 8.47196 10.1416C8.55781 10.292 8.68656 10.4133 8.84175 10.4901C8.99694 10.567 9.17151 10.5958 9.34315 10.5728C9.48969 10.5801 9.6361 10.556 9.77256 10.5021C9.90902 10.4482 10.0324 10.3657 10.1344 10.2602C10.1095 10.294 10.0922 10.3327 10.0837 10.3737C10.0752 10.4148 10.0757 10.4572 10.0852 10.498C10.0946 10.5389 10.1128 10.5772 10.1384 10.6103C10.164 10.6435 10.1965 10.6707 10.2337 10.6902C10.3823 10.7568 10.3703 10.7568 10.391 10.7568C10.4068 10.758 10.4224 10.7532 10.4348 10.7433C10.4472 10.7334 10.4553 10.7192 10.4576 10.7035C10.4602 10.6902 10.4583 10.6764 10.4521 10.6643C10.446 10.6522 10.4359 10.6425 10.4236 10.6368L10.297 10.5702C10.2753 10.5595 10.2563 10.5441 10.2414 10.525C10.2265 10.506 10.2161 10.4838 10.211 10.4602C10.2061 10.4371 10.2062 10.4133 10.2114 10.3903C10.2166 10.3672 10.2267 10.3456 10.241 10.3269C10.3037 10.2469 10.3896 10.2749 10.5383 10.1989C10.6533 10.1533 10.7512 10.0728 10.8184 9.96889C10.8855 9.86494 10.9186 9.74262 10.9129 9.619C10.9204 9.47718 10.8717 9.33811 10.7774 9.23194C10.683 9.12577 10.5507 9.06103 10.409 9.05176ZM9.66576 10.3902C9.65529 10.3936 9.64406 10.3941 9.63335 10.3915C9.62264 10.3889 9.61286 10.3834 9.60511 10.3755C9.59718 10.368 9.59138 10.3584 9.58829 10.3479C9.5852 10.3374 9.58492 10.3263 9.58748 10.3156C9.59005 10.3049 9.59536 10.2951 9.6029 10.2872C9.61044 10.2792 9.61993 10.2734 9.63044 10.2702C9.8684 10.2036 10.0304 10.0516 10.0304 9.90162C10.0304 9.86713 10.022 9.83315 10.006 9.80261C9.99 9.77207 9.96678 9.74588 9.93838 9.72632C9.92988 9.71889 9.92341 9.70944 9.91956 9.69883C9.91571 9.68822 9.91462 9.6768 9.91639 9.66566C9.91796 9.65439 9.92266 9.64379 9.92997 9.63506C9.93728 9.62634 9.94689 9.61985 9.95771 9.61633C9.96911 9.61254 9.98133 9.61191 9.99306 9.61449C10.0048 9.61707 10.0156 9.62277 10.0244 9.631C10.066 9.66277 10.0996 9.70373 10.1228 9.75068C10.1459 9.79762 10.1578 9.84929 10.1577 9.90162C10.1577 10.1129 9.96705 10.3062 9.66976 10.3935L9.66576 10.3902ZM10.479 10.0836C10.3423 10.1502 10.2397 10.1236 10.1457 10.2409C10.1966 10.1884 10.2349 10.1251 10.2577 10.0556C10.2806 9.9862 10.2874 9.91249 10.2777 9.84004C10.2679 9.76759 10.2418 9.6983 10.2014 9.63738C10.161 9.57647 10.1073 9.52551 10.0444 9.48836C10.0624 9.40339 10.1081 9.32682 10.1743 9.27061C10.2406 9.2144 10.3235 9.18174 10.4103 9.17774C10.5194 9.18708 10.6204 9.23922 10.6912 9.32277C10.762 9.40632 10.7969 9.51449 10.7882 9.62367C10.7932 9.72376 10.7658 9.8228 10.7101 9.90611C10.6544 9.98943 10.5734 10.0526 10.479 10.0863V10.0836Z" fill="white"/>
<path d="M7.53943 11.7773C7.5346 11.7304 7.51254 11.6869 7.47751 11.6553C7.44248 11.6237 7.39698 11.6062 7.34979 11.6062C7.30261 11.6062 7.2571 11.6237 7.22207 11.6553C7.18704 11.6869 7.16498 11.7304 7.16016 11.7773V11.904H7.53943V11.7773Z" fill="white"/>
<path d="M7.79951 12.2832H6.84033V12.4585C7.17067 12.5095 7.50857 12.4478 7.79951 12.2832Z" fill="white"/>
<path d="M7.5841 12.0305H7.11751L6.96021 12.1572H7.77074L7.5841 12.0305Z" fill="white"/>
<path d="M7.34884 13.5457C7.25459 13.5442 7.16149 13.5665 7.07809 13.6104C6.99469 13.6543 6.92367 13.7185 6.87158 13.797H7.82809C7.77551 13.7185 7.70411 13.6543 7.62041 13.6105C7.5367 13.5666 7.44334 13.5443 7.34884 13.5457Z" fill="white"/>
<path d="M8.42265 11.9039C8.30375 11.9084 8.19003 11.9538 8.10067 12.0323C8.0113 12.1109 7.95176 12.2178 7.93206 12.3352V12.3425C7.71524 12.4814 7.46832 12.5664 7.21193 12.5904C6.95555 12.6145 6.69714 12.5768 6.4583 12.4805C6.22551 12.3747 5.97028 12.3278 5.71509 12.3439V12.3618C5.71544 12.3915 5.72618 12.42 5.74542 12.4426C5.76467 12.4651 5.7912 12.4802 5.8204 12.4852C5.9632 12.5096 6.09812 12.5677 6.21402 12.6547C6.32992 12.7416 6.42348 12.8548 6.48696 12.9851C6.57222 13.1361 6.70082 13.258 6.85613 13.3351C7.01145 13.4123 7.18633 13.441 7.35815 13.4177C7.50615 13.427 7.65439 13.4039 7.79254 13.35C7.93069 13.2962 8.05542 13.2128 8.15802 13.1057C8.13468 13.1396 8.11861 13.1779 8.11083 13.2182C8.10304 13.2586 8.10371 13.3001 8.1128 13.3402C8.12188 13.3803 8.13918 13.4181 8.1636 13.4511C8.18802 13.4842 8.21903 13.5119 8.25468 13.5323C8.40332 13.599 8.39132 13.599 8.41198 13.599C8.42619 13.5989 8.43993 13.5939 8.45095 13.5849C8.46197 13.576 8.46962 13.5635 8.47264 13.5497C8.47544 13.5358 8.47378 13.5215 8.46791 13.5087C8.46204 13.4959 8.45226 13.4852 8.43998 13.4783L8.312 13.4157C8.29031 13.405 8.27132 13.3896 8.25643 13.3705C8.24154 13.3515 8.23115 13.3293 8.22601 13.3057C8.22109 13.2826 8.22122 13.2588 8.2264 13.2357C8.23158 13.2127 8.24168 13.1911 8.25601 13.1724C8.31866 13.0924 8.40465 13.1204 8.55329 13.0444C8.66657 12.9984 8.76293 12.9187 8.82925 12.816C8.89557 12.7133 8.92862 12.5927 8.9239 12.4705C8.93157 12.3286 8.88296 12.1893 8.78862 12.083C8.69428 11.9767 8.56182 11.9119 8.41998 11.9026L8.42265 11.9039ZM7.67943 13.2424C7.67151 13.2447 7.6632 13.2455 7.65498 13.2447C7.64676 13.2438 7.63878 13.2414 7.63151 13.2374C7.62424 13.2335 7.61781 13.2282 7.61259 13.2218C7.60738 13.2153 7.60348 13.208 7.60112 13.2C7.59875 13.1921 7.59797 13.1838 7.59882 13.1756C7.59967 13.1674 7.60213 13.1594 7.60606 13.1521C7.60999 13.1448 7.61531 13.1384 7.62173 13.1332C7.62814 13.128 7.63552 13.1241 7.64344 13.1217C7.8814 13.0504 8.04338 12.9031 8.04338 12.7531C8.04341 12.7186 8.03505 12.6846 8.01903 12.6541C8.003 12.6236 7.97979 12.5974 7.95139 12.5778C7.94329 12.5702 7.93721 12.5608 7.9337 12.5502C7.93018 12.5397 7.92934 12.5285 7.93126 12.5176C7.93318 12.5067 7.9378 12.4964 7.94469 12.4877C7.95158 12.479 7.96052 12.4722 7.97072 12.4678C7.98236 12.4655 7.99444 12.4665 8.00553 12.4707C8.01663 12.475 8.02628 12.4823 8.03338 12.4918C8.07497 12.5236 8.10864 12.5646 8.13177 12.6115C8.15489 12.6585 8.16685 12.7101 8.16669 12.7624C8.16669 12.9724 7.97472 13.1624 7.67877 13.2517L7.67943 13.2424ZM8.49397 12.9371C8.35732 13.0037 8.25467 12.9771 8.16069 13.0944C8.21157 13.0419 8.24989 12.9786 8.27275 12.9091C8.29561 12.8397 8.30241 12.766 8.29266 12.6935C8.28291 12.6211 8.25684 12.5518 8.21644 12.4909C8.17603 12.43 8.12233 12.379 8.05937 12.3419C8.07641 12.2567 8.12128 12.1796 8.18693 12.1228C8.25258 12.066 8.33527 12.0326 8.42198 12.0279C8.47608 12.0324 8.52877 12.0474 8.57704 12.0723C8.62532 12.0971 8.66823 12.1312 8.70332 12.1726C8.73842 12.214 8.76502 12.2619 8.78159 12.3136C8.79816 12.3653 8.80439 12.4197 8.79992 12.4738C8.80526 12.5736 8.77842 12.6725 8.72334 12.7559C8.66826 12.8393 8.58786 12.9028 8.49397 12.9371Z" fill="white"/>
<path d="M31.9199 8.6045C31.9199 8.55438 31.9 8.50631 31.8646 8.47087C31.8291 8.43544 31.7811 8.41553 31.731 8.41553C31.6808 8.41553 31.6328 8.43544 31.5973 8.47087C31.5619 8.50631 31.542 8.55438 31.542 8.6045V8.73114H31.9199V8.6045Z" fill="white"/>
<path d="M32.1812 9.11035H31.228V9.28432C31.5563 9.33437 31.8918 9.27313 32.1812 9.11035Z" fill="white"/>
<path d="M31.972 8.85791H31.5054L31.3481 8.98456H32.1587L31.972 8.85791Z" fill="white"/>
<path d="M31.7301 10.3729C31.6357 10.3716 31.5424 10.3939 31.4589 10.4378C31.3753 10.4817 31.304 10.5457 31.2515 10.6242H32.2113C32.1585 10.5454 32.0868 10.4811 32.0027 10.4371C31.9187 10.3932 31.8249 10.3712 31.7301 10.3729Z" fill="white"/>
<path d="M32.8045 8.7312C32.6856 8.73569 32.5719 8.78104 32.4825 8.8596C32.3931 8.93816 32.3336 9.04512 32.3139 9.16246V9.17113C32.0971 9.31004 31.8501 9.39506 31.5938 9.41906C31.3374 9.44306 31.079 9.40536 30.8401 9.30911C30.6073 9.20333 30.3521 9.1564 30.0969 9.17246V9.19113C30.0972 9.22056 30.1078 9.24897 30.1267 9.27148C30.1457 9.29398 30.1719 9.30917 30.2009 9.31444C30.3424 9.34008 30.4759 9.39886 30.5904 9.48598C30.7048 9.57311 30.7971 9.68609 30.8595 9.81569C30.9447 9.96669 31.0733 10.0886 31.2286 10.1658C31.3839 10.2429 31.5588 10.2716 31.7307 10.2483C31.8786 10.2576 32.0269 10.2345 32.165 10.1806C32.3032 10.1268 32.4279 10.0434 32.5305 9.93634C32.5066 9.97069 32.4903 10.0097 32.4825 10.0508C32.4747 10.0919 32.4757 10.1342 32.4854 10.1749C32.4951 10.2156 32.5132 10.2538 32.5387 10.287C32.5642 10.3202 32.5964 10.3477 32.6332 10.3676C32.7745 10.4343 32.7698 10.4343 32.7905 10.4343C32.8036 10.432 32.8157 10.426 32.8253 10.4168C32.8349 10.4077 32.8416 10.3959 32.8445 10.3829C32.8473 10.37 32.8463 10.3564 32.8414 10.3441C32.8365 10.3317 32.8281 10.3211 32.8171 10.3136L32.6905 10.251C32.6688 10.2403 32.6498 10.2248 32.6349 10.2058C32.62 10.1867 32.6096 10.1646 32.6045 10.141C32.5996 10.1179 32.5997 10.094 32.6049 10.071C32.6101 10.048 32.6202 10.0264 32.6345 10.0077C32.6972 9.92767 32.7831 9.95567 32.9318 9.87968C33.0468 9.83403 33.1447 9.75362 33.2119 9.64967C33.279 9.54572 33.3121 9.4234 33.3064 9.29978C33.3141 9.15784 33.2655 9.01861 33.1711 8.91229C33.0768 8.80597 32.9443 8.74114 32.8025 8.73187L32.8045 8.7312ZM32.0606 10.0696C32.0446 10.0744 32.0274 10.0726 32.0127 10.0647C31.998 10.0568 31.9871 10.0433 31.9823 10.0273C31.9775 10.0113 31.9793 9.99409 31.9872 9.9794C31.9952 9.96471 32.0086 9.95378 32.0246 9.949C32.2626 9.87768 32.4245 9.73037 32.4245 9.5804C32.4243 9.54577 32.4158 9.5117 32.3998 9.481C32.3838 9.45029 32.3608 9.42382 32.3326 9.40376C32.3238 9.39681 32.3172 9.38761 32.3133 9.37715C32.3094 9.3667 32.3085 9.35539 32.3106 9.34444C32.312 9.33311 32.3166 9.32243 32.324 9.31368C32.3313 9.30493 32.341 9.29848 32.3519 9.29511C32.3633 9.29132 32.3755 9.29068 32.3872 9.29326C32.399 9.29585 32.4098 9.30155 32.4185 9.30977C32.4601 9.34154 32.4938 9.38251 32.5169 9.42945C32.5401 9.4764 32.552 9.52806 32.5519 9.5804C32.5485 9.79103 32.3566 9.98166 32.0606 10.0696ZM32.8738 9.76303C32.7372 9.82969 32.6345 9.80303 32.5405 9.92034C32.5914 9.86786 32.6297 9.80451 32.6526 9.73508C32.6754 9.66564 32.6822 9.59193 32.6725 9.51948C32.6627 9.44703 32.6367 9.37774 32.5963 9.31683C32.5559 9.25591 32.5022 9.20496 32.4392 9.1678C32.4562 9.08265 32.5011 9.00559 32.5668 8.94875C32.6324 8.89191 32.7151 8.85852 32.8018 8.85385C32.8559 8.8583 32.9086 8.87337 32.9569 8.8982C33.0052 8.92302 33.0481 8.95711 33.0832 8.99852C33.1183 9.03993 33.1449 9.08785 33.1614 9.13954C33.178 9.19123 33.1842 9.24568 33.1798 9.29978C33.1861 9.39965 33.1602 9.49892 33.1058 9.58293C33.0515 9.66695 32.9715 9.73126 32.8778 9.76637L32.8738 9.76303Z" fill="white"/>
<path d="M35.9867 8.60448C35.9819 8.55755 35.9598 8.51407 35.9248 8.48246C35.8898 8.45085 35.8442 8.43335 35.7971 8.43335C35.7499 8.43335 35.7044 8.45085 35.6693 8.48246C35.6343 8.51407 35.6122 8.55755 35.6074 8.60448V8.73113H35.9867V8.60448Z" fill="white"/>
<path d="M36.2411 9.11035H35.2866V9.28432C35.6153 9.33468 35.9514 9.27342 36.2411 9.11035Z" fill="white"/>
<path d="M36.0225 8.85767H35.5599L35.4006 8.98431H36.2125L36.0225 8.85767Z" fill="white"/>
<path d="M35.7907 10.3728C35.6965 10.3717 35.6035 10.394 35.5202 10.4379C35.4369 10.4818 35.3658 10.5458 35.3135 10.6241H36.2666C36.2144 10.5461 36.1435 10.4822 36.0604 10.4384C35.9774 10.3945 35.8847 10.372 35.7907 10.3728Z" fill="white"/>
<path d="M36.8645 8.73107C36.7458 8.73593 36.6322 8.7814 36.5429 8.8599C36.4537 8.93839 36.394 9.04515 36.374 9.16233V9.171C36.1571 9.30991 35.9102 9.39492 35.6538 9.41893C35.3974 9.44293 35.139 9.40523 34.9002 9.30897C34.6674 9.2032 34.4122 9.15627 34.157 9.17233V9.191C34.1573 9.22062 34.1681 9.24919 34.1873 9.27172C34.2066 9.29425 34.2331 9.30932 34.2623 9.31431C34.4035 9.34029 34.5367 9.39922 34.6509 9.48632C34.7651 9.57341 34.8571 9.68621 34.9195 9.81556C35.0048 9.96656 35.1334 10.0885 35.2887 10.1656C35.444 10.2427 35.6189 10.2715 35.7907 10.2482C35.9388 10.2581 36.0872 10.2353 36.2255 10.1814C36.3637 10.1275 36.4884 10.0438 36.5906 9.93621C36.5667 9.97064 36.5504 10.0097 36.5428 10.0509C36.5351 10.0921 36.5362 10.1344 36.546 10.1751C36.5558 10.2158 36.5741 10.254 36.5997 10.2872C36.6253 10.3203 36.6577 10.3477 36.6946 10.3675C36.8346 10.4341 36.8312 10.4341 36.8432 10.4341C36.8576 10.4338 36.8714 10.4288 36.8827 10.4199C36.894 10.411 36.9021 10.3987 36.9059 10.3848C36.9086 10.3708 36.9067 10.3564 36.9006 10.3436C36.8945 10.3307 36.8844 10.3202 36.8719 10.3135L36.7439 10.2508C36.7224 10.2401 36.7035 10.2247 36.6886 10.2058C36.6738 10.1869 36.6632 10.1649 36.6578 10.1415C36.6524 10.1181 36.6522 10.0937 36.6573 10.0702C36.6624 10.0467 36.6726 10.0246 36.6872 10.0055C36.7539 9.92554 36.8359 9.95354 36.9845 9.87755C37.0993 9.83168 37.1969 9.75118 37.2638 9.64725C37.3307 9.54331 37.3636 9.42111 37.3578 9.29764C37.3655 9.15571 37.3169 9.01648 37.2225 8.91015C37.1282 8.80383 36.9957 8.73901 36.8539 8.72974L36.8645 8.73107ZM36.1207 10.0695C36.1098 10.0726 36.0984 10.0728 36.0875 10.0702C36.0765 10.0677 36.0664 10.0624 36.058 10.0549C36.0502 10.047 36.0445 10.0374 36.0414 10.0268C36.0382 10.0162 36.0378 10.005 36.04 9.9942C36.0432 9.98364 36.0489 9.97404 36.0567 9.96624C36.0645 9.95845 36.0741 9.95271 36.0847 9.94954C36.3213 9.87821 36.4799 9.73091 36.4799 9.58093C36.4797 9.54631 36.4712 9.51224 36.4552 9.48153C36.4392 9.45082 36.4162 9.42435 36.388 9.40429C36.3792 9.39739 36.3725 9.38819 36.3686 9.37773C36.3647 9.36726 36.3638 9.35592 36.366 9.34497C36.3683 9.33371 36.3735 9.32325 36.3811 9.3146C36.3887 9.30596 36.3984 9.29943 36.4093 9.29564C36.4201 9.29196 36.4316 9.29139 36.4427 9.29398C36.4538 9.29658 36.4639 9.30223 36.4719 9.31031C36.5135 9.34208 36.5472 9.38304 36.5703 9.42999C36.5935 9.47694 36.6054 9.5286 36.6053 9.58093C36.6053 9.7909 36.4146 9.98087 36.1193 10.0702L36.1207 10.0695ZM36.9339 9.7629C36.7959 9.82956 36.6932 9.80289 36.6006 9.92021C36.6515 9.86782 36.6899 9.80455 36.7129 9.73518C36.7359 9.6658 36.7428 9.59212 36.7332 9.51968C36.7235 9.44724 36.6976 9.37793 36.6573 9.31696C36.617 9.25598 36.5635 9.20494 36.5006 9.16767C36.517 9.08247 36.5616 9.00525 36.6271 8.94833C36.6926 8.89142 36.7752 8.85811 36.8619 8.85372C36.9712 8.86272 37.0726 8.91472 37.1437 8.99831C37.2148 9.08189 37.2498 9.19025 37.2411 9.29964C37.2469 9.39922 37.2208 9.49805 37.1668 9.58189C37.1128 9.66574 37.0336 9.73028 36.9405 9.76623L36.9339 9.7629Z" fill="white"/>
<path d="M33.9984 11.4507C33.9936 11.4037 33.9715 11.3603 33.9365 11.3287C33.9015 11.297 33.856 11.2795 33.8088 11.2795C33.7616 11.2795 33.7161 11.297 33.6811 11.3287C33.646 11.3603 33.624 11.4037 33.6191 11.4507V11.5773H33.9984V11.4507Z" fill="white"/>
<path d="M34.2583 11.9626H33.3098V12.1359C33.6365 12.1851 33.9702 12.1242 34.2583 11.9626Z" fill="white"/>
<path d="M34.0417 11.71H33.5791L33.4211 11.8366H34.2317L34.0417 11.71Z" fill="white"/>
<path d="M33.8083 13.2236C33.7141 13.2231 33.6212 13.2459 33.538 13.29C33.4547 13.3341 33.3836 13.3981 33.3311 13.4763H34.2876C34.2348 13.398 34.1635 13.3339 34.08 13.2898C33.9965 13.2458 33.9034 13.223 33.809 13.2236H33.8083Z" fill="white"/>
<path d="M34.8821 11.5833C34.7633 11.5882 34.6498 11.6337 34.5605 11.7122C34.4712 11.7907 34.4116 11.8974 34.3915 12.0146V12.0233C34.1747 12.1622 33.9278 12.2472 33.6714 12.2712C33.415 12.2952 33.1566 12.2575 32.9178 12.1613C32.685 12.0555 32.4298 12.0085 32.1746 12.0246V12.0453C32.1746 12.0751 32.1852 12.104 32.2045 12.1268C32.2237 12.1496 32.2504 12.1649 32.2799 12.1699C32.4227 12.1944 32.5576 12.2525 32.6735 12.3394C32.7894 12.4263 32.883 12.5396 32.9464 12.6698C33.0317 12.8208 33.1603 12.9428 33.3156 13.0199C33.4709 13.097 33.6458 13.1258 33.8176 13.1024C33.9656 13.1119 34.1139 13.0889 34.2521 13.035C34.3903 12.9812 34.515 12.8977 34.6175 12.7905C34.5937 12.8249 34.5774 12.864 34.5697 12.9052C34.562 12.9463 34.5631 12.9887 34.5729 13.0294C34.5827 13.0701 34.601 13.1083 34.6266 13.1414C34.6522 13.1746 34.6846 13.202 34.7215 13.2217C34.8628 13.2884 34.8581 13.2884 34.8775 13.2884C34.8906 13.2864 34.9029 13.2805 34.9127 13.2714C34.9225 13.2624 34.9293 13.2506 34.9324 13.2376C34.9354 13.2246 34.9344 13.211 34.9296 13.1985C34.9248 13.1861 34.9164 13.1754 34.9054 13.1678L34.7775 13.1051C34.756 13.0941 34.7372 13.0786 34.7224 13.0595C34.7076 13.0405 34.6971 13.0185 34.6917 12.995C34.6863 12.9715 34.6861 12.9471 34.6912 12.9235C34.6962 12.8999 34.7063 12.8777 34.7208 12.8585C34.7875 12.7798 34.8695 12.8078 35.0181 12.7305C35.1337 12.6847 35.232 12.6037 35.2992 12.4991C35.3664 12.3945 35.3991 12.2714 35.3927 12.1473C35.4004 12.0053 35.3518 11.8661 35.2574 11.7598C35.1631 11.6534 35.0306 11.5886 34.8888 11.5793L34.8821 11.5833ZM34.1383 12.9231C34.1274 12.9262 34.116 12.9264 34.105 12.9239C34.0941 12.9213 34.0839 12.916 34.0756 12.9085C34.0683 12.9004 34.063 12.8906 34.0604 12.88C34.0577 12.8694 34.0577 12.8583 34.0604 12.8477C34.063 12.8371 34.0682 12.8273 34.0755 12.8192C34.0828 12.8111 34.092 12.8049 34.1023 12.8011C34.3389 12.7345 34.4975 12.5838 34.4975 12.4339C34.4973 12.3992 34.4888 12.3652 34.4728 12.3345C34.4568 12.3038 34.4338 12.2773 34.4055 12.2572C34.3968 12.2503 34.3901 12.2411 34.3862 12.2307C34.3823 12.2202 34.3814 12.2089 34.3835 12.1979C34.3863 12.1872 34.3917 12.1774 34.3992 12.1693C34.4067 12.1612 34.4161 12.1551 34.4265 12.1516C34.4369 12.148 34.4481 12.1471 34.459 12.1489C34.4699 12.1507 34.4801 12.1552 34.4889 12.1619C34.5304 12.194 34.564 12.2352 34.5871 12.2824C34.6102 12.3295 34.6222 12.3814 34.6222 12.4339C34.6248 12.6418 34.4342 12.8338 34.1383 12.9231ZM34.9514 12.6152C34.8135 12.6818 34.7108 12.6565 34.6182 12.7725C34.6691 12.7202 34.7075 12.6571 34.7304 12.5878C34.7534 12.5185 34.7603 12.4449 34.7507 12.3726C34.7411 12.3002 34.7152 12.231 34.6749 12.1702C34.6346 12.1093 34.581 12.0584 34.5182 12.0213C34.5346 11.9361 34.5791 11.8589 34.6446 11.8019C34.7101 11.745 34.7928 11.7117 34.8795 11.7073C34.9888 11.7163 35.0902 11.7683 35.1612 11.8519C35.2323 11.9355 35.2674 12.0439 35.2587 12.1533C35.2652 12.253 35.2395 12.3521 35.1853 12.4361C35.1312 12.5201 35.0516 12.5845 34.9581 12.6198L34.9514 12.6152Z" fill="white"/>
</svg>
