<?xml version="1.0" encoding="utf-8"?>
<!-- Generator: Adobe Illustrator 24.1.2, SVG Export Plug-In . SVG Version: 6.00 Build 0)  -->
<svg version="1.1" id="Layer_1" xmlns="http://www.w3.org/2000/svg" xmlns:xlink="http://www.w3.org/1999/xlink" x="0px" y="0px"
	 viewBox="0 0 22.4 22.4" style="enable-background:new 0 0 22.4 22.4;" xml:space="preserve">
<style type="text/css">
	.st0{fill:none;stroke:#FFFFFF;stroke-miterlimit:10;}
	.st1{fill:#FFFFFF;}
</style>
<path class="st0" d="M15.8,13.7c2.5,0,4.4-0.3,4.4-2.9s-2.9-2.6-2.9-2.6s-0.5-4.6-4.4-4.7C8.9,3.4,8.1,7.7,8.1,7.7S7.4,6.5,5.5,7
	S3.9,9.4,3.9,9.4s-1.9,0.3-1.9,2.2c0,2.2,1.6,2.1,4.5,2.1"/>
<path class="st0" d="M8.8,12.2c0-1-0.3-4.1,2.4-4.1s2.6,2.6,2.6,4.1"/>
<path class="st1" d="M14.5,18H8.1c-0.2,0-0.4-0.2-0.4-0.4v-4.8c0-0.2,0.2-0.4,0.4-0.4h6.4c0.2,0,0.4,0.2,0.4,0.4v4.8
	C14.8,17.9,14.7,18,14.5,18z"/>
</svg>
