<svg xmlns="http://www.w3.org/2000/svg" viewBox="0 0 20 20"><path d="M10.24,3.64a.56.56,0,0,1,0-.25s0,0,0-.05-.1-.08-.06-.16A.69.69,0,0,1,10.39,3l.21-.14a.1.1,0,0,0,.06-.1s0-.06-.08-.07a.22.22,0,0,0-.23,0l-.08.07c-.1.1-.17.09-.26,0a.73.73,0,0,1-.15-.32c0-.09-.06-.12-.15-.1l-.6.11a.54.54,0,0,1-.22,0l.26,0A2.27,2.27,0,0,0,9.4,2.3v0l-.07,0a1.61,1.61,0,0,0-.69,0A.75.75,0,0,0,8,2.5s0,0-.08,0-.07-.08-.13,0a.47.47,0,0,0,0,.1.17.17,0,0,1-.2.09,1.26,1.26,0,0,0-.27,0c-.13,0-.26,0-.32.15s-.07.06-.12.06-.15,0-.19.13a.1.1,0,0,1-.12.08.12.12,0,0,0-.13.07.21.21,0,0,1-.19.1l-.1,0s-.07,0-.06,0,0,0,.06,0,.06,0,.08.07.08.14.19,0l0,0s0,0,0,0a.15.15,0,0,0,.16.08,1.2,1.2,0,0,1,.19,0c.25,0,.4.11.34.36a.43.43,0,0,0,0,.16.08.08,0,0,0,.06,0c0-.06.1-.1.18-.06a.23.23,0,0,1,.09.24s0,.05,0,0,0,0,0,0l0,0c0-.09,0-.12-.1-.1a.18.18,0,0,0-.13.18s0,.06,0,.06.06,0,0,.1-.08.14,0,.22a.68.68,0,0,1,.14.25.32.32,0,0,0,.38.28s0,0,.07,0,.12.12.19,0a1,1,0,0,0,.08-.18c0-.05,0-.1.11-.09s.08,0,.08-.09a.09.09,0,0,1,0-.11.48.48,0,0,1,.38-.11.12.12,0,0,0,.15,0,.48.48,0,0,1,.46-.23.74.74,0,0,0,.33,0c.05,0,.11,0,.12-.06s-.06-.06-.1-.08a.22.22,0,0,1-.12-.16s0-.07.07-.05A.2.2,0,0,1,9.79,4a.09.09,0,0,0,.13.08C10,4.08,10,4,10,4a1.59,1.59,0,0,1-.07-.2c0-.07,0-.1.08-.09l.15,0C10.2,3.73,10.24,3.71,10.24,3.64Z"/><path d="M12,5.58a.53.53,0,0,0,.28.23c.15.05.15.05,0,.16s-.09.1-.13.16,0,.09,0,.1.13,0,.14.07,0,0,.06,0,.12,0,.2,0l.1,0a.16.16,0,0,0,.16-.24.32.32,0,0,0-.11-.12,1.89,1.89,0,0,1-.2-.2c-.1-.12-.1-.12,0-.24s0-.12-.06-.14-.14,0-.21,0a.1.1,0,0,0-.14,0s-.06.06-.1,0-.1,0-.09.09A.36.36,0,0,0,12,5.58Z"/><path d="M16.71,14.36a1.7,1.7,0,0,1-.1.14.64.64,0,0,1-.24.22.27.27,0,0,0-.19.25c0,.07,0,.15-.06.21a2.45,2.45,0,0,0-.2.51s0,.06,0,.09a.08.08,0,0,0,.1,0,.47.47,0,0,0,.14-.14,9.77,9.77,0,0,0,.53-.88,1.15,1.15,0,0,0,.12-.37s0-.08,0-.09S16.73,14.33,16.71,14.36Z"/><path d="M11,4.51a.36.36,0,0,0-.21,0,.48.48,0,0,1-.42,0,.2.2,0,0,0-.11,0c-.06,0-.09,0-.09.1a.2.2,0,0,0,.18.17.17.17,0,0,1,.17.08.11.11,0,0,0,.1,0h0c.13,0,.22-.13.35-.14s.08-.06.08-.11S11,4.53,11,4.51Z"/><path d="M16.29,4l.16.07s.1.07.14,0,0-.11-.05-.15l0,0c-.08,0-.07-.1-.05-.17s.12-.15.29-.14.1,0,.14,0a.38.38,0,0,0-.13-.15s-.09,0-.14,0-.28,0-.28.09-.08.18-.13.26A.12.12,0,0,0,16.29,4Z"/><path d="M11.71,6a.1.1,0,0,0,0,.14.1.1,0,0,0,.13,0,.82.82,0,0,0,.2-.12.17.17,0,0,0,.06-.14.43.43,0,0,0,0-.14.14.14,0,0,0-.25,0,.09.09,0,0,1-.08,0c-.07,0-.07.06-.05.12S11.74,6,11.71,6Z"/><path d="M5.27,3.51a3.38,3.38,0,0,0-.45,0c-.05,0-.11,0-.13-.06a.41.41,0,0,0-.26-.2s0,0-.08,0,0,0,0,.07a.26.26,0,0,0,.12.11.2.2,0,0,1,.12.1.14.14,0,0,0,.17.09,1.74,1.74,0,0,1,.46,0h0c.06,0,.14,0,.14-.07S5.32,3.52,5.27,3.51Z"/><path d="M3.57,3.38l0,0-.07.06s-.08,0-.1,0-.07-.05-.1-.06a.55.55,0,0,0-.2.2l0,0s0,0,0,0h0c.06,0,.1-.06.07,0s0,.05.07.05a.55.55,0,0,1,.18,0,.25.25,0,0,0,.33-.19s0-.05,0,0A.12.12,0,0,1,3.57,3.38Z"/><path d="M4.68,10a.32.32,0,0,1-.19-.1c-.15-.19-.3-.14-.46-.08S4,9.86,4,9.9a.08.08,0,0,0,.07,0H4.2c.18,0,.18,0,.32.11a.59.59,0,0,0,.2.15.08.08,0,0,0,.09,0s0-.06,0-.08A.22.22,0,0,0,4.68,10Z"/><path d="M5.23,10.21a.36.36,0,0,0-.28.17s0,0,0,0a.56.56,0,0,1,.28.1h0s.09,0,.15,0,0,0,0,0A.24.24,0,0,0,5.23,10.21Z"/><path d="M4,3.71l-.1,0a.11.11,0,0,0-.15.06s0,.07,0,.06.08,0,.07.08,0,.09,0,.06a.28.28,0,0,0,.17-.18C4.13,3.72,4.11,3.69,4,3.71Z"/><path d="M4,3.41c-.16,0-.22.06-.23.26a.61.61,0,0,1,.07-.1c.07-.07.12-.07.19,0s0,0,.06,0a.22.22,0,0,0,.12-.09s0-.09,0-.09Z"/><path d="M4.06,3.27a.09.09,0,0,0,.12,0s0-.07.05-.1a.08.08,0,0,0,0-.07.28.28,0,0,0-.28,0s-.05,0,0,.07,0,0,.07,0S4,3.22,4.06,3.27Z"/><path d="M14.13,7.87l.14.11a.08.08,0,0,0,.11,0s0-.07,0-.11-.13-.09-.22-.11-.07,0-.08,0S14.11,7.85,14.13,7.87Z"/><path d="M13.72,7.68c.06,0,.07-.06.08-.11s0-.13-.1-.13-.07.07-.07.12A.09.09,0,0,0,13.72,7.68Z"/><path d="M4.4,3.66a.39.39,0,0,0-.16.1s0,0,0,0,0,0,0,0l.17,0s.08,0,.07-.08A.09.09,0,0,0,4.4,3.66Z"/><path d="M3.54,3.32a.24.24,0,0,0,.09-.15.29.29,0,0,0-.26.17C3.43,3.3,3.49,3.35,3.54,3.32Z"/><path d="M5.7,10.37c-.06,0-.06,0-.06.08s0,.09.06.1a.07.07,0,0,0,.07-.08C5.77,10.42,5.75,10.37,5.7,10.37Z"/><path d="M4.61,10.49c-.05,0-.06,0-.06.09s0,.09.07.09.06,0,.06-.08S4.66,10.49,4.61,10.49Z"/><path d="M4.57,9.66a.06.06,0,0,0,.06-.05.07.07,0,0,0-.06-.07.06.06,0,0,0-.06.06A.05.05,0,0,0,4.57,9.66Z"/><path d="M4.36,3.61s.07,0,.07,0a0,0,0,0,0,0-.05s-.07,0-.07.05S4.33,3.6,4.36,3.61Z"/><path d="M13.12,7.64s0,0,.05,0,0,0,0,0a.06.06,0,0,0-.05.06S13.1,7.64,13.12,7.64Z"/><path d="M5,4.94s-.05,0-.05,0,0,0,0,0A0,0,0,0,0,5,5S5,4.94,5,4.94Z"/><path d="M4.76,4.86s0,0,0,0,0,0,0,0a0,0,0,0,0,0,0A0,0,0,0,0,4.76,4.86Z"/><path d="M10,0A10,10,0,1,0,20,10,10,10,0,0,0,10,0Zm9.45,9.38s0-.06,0-.1A.38.38,0,0,1,19.45,9.38ZM10,19.47A9.48,9.48,0,0,1,1.35,6.13l-.12.31a.43.43,0,0,1,.13.26,1.13,1.13,0,0,1-.12.65c-.06.18-.14.35-.19.53s0,.35.24.43c0,0,.06,0,.07,0a1.73,1.73,0,0,1,.16.87s0,0,0,.06.15.19.2.3a.59.59,0,0,0,.12.2s0,0,0,0,0,0,0-.05V9.6c.1.19.19.38.3.56a6.1,6.1,0,0,0,.34.54.13.13,0,0,0,.15.06.12.12,0,0,1,.15,0c0,.06.09,0,.13,0a.11.11,0,0,1,.15,0A.93.93,0,0,1,3.5,11c.27.28.52.57.77.86.05.06.08.06.13,0s.09-.11.17,0l0,.05a.57.57,0,0,1,0,.71.56.56,0,0,0-.14.5,2.43,2.43,0,0,0,.43.92,3.74,3.74,0,0,0,.63.74,1.22,1.22,0,0,1,.42.69,3.78,3.78,0,0,1,0,.75,2.28,2.28,0,0,0,.07.69c.12.37.26.73.39,1.09a.93.93,0,0,0,.1.2.91.91,0,0,0,.21.18s.06.15.15.06l0,0c.11.12.2.13.37,0A.35.35,0,0,1,7,18.11c0-.06,0-.12,0-.19a.12.12,0,0,0,0-.07c-.12-.05-.13-.06-.07-.18a.24.24,0,0,0,0-.34v0a.11.11,0,0,1,.08,0s.08,0,.07-.06,0-.11.1-.11l.09,0c.15,0,.19-.08.18-.23s0-.09-.09-.12-.14-.14-.1-.26l0,.09a.36.36,0,0,0,.08.09.15.15,0,0,0,.25,0,.37.37,0,0,0,.12-.2c.06-.17.11-.34.17-.51a.47.47,0,0,0,0-.17A.16.16,0,0,1,8,15.64l.3-.06c.08,0,.17-.05.2-.13a1.59,1.59,0,0,0,.18-.82.55.55,0,0,1,.16-.49l.18-.22A.29.29,0,0,0,9,13.48a2.51,2.51,0,0,0-.47-.3,2.63,2.63,0,0,0-.73-.25c-.09,0-.16,0-.18.1s-.07.1-.15.08L7.59,13a.11.11,0,0,0,0-.15s-.08,0-.13,0a1,1,0,0,1-.13.09s-.07,0-.08,0,0-.05,0-.07a.64.64,0,0,0,.18-.1.08.08,0,0,0,0-.11,2.43,2.43,0,0,0-.4-.45A.43.43,0,0,0,6.73,12s-.07,0-.1,0a2.49,2.49,0,0,0-.31-.23.09.09,0,0,1-.05-.11c0-.06,0-.12,0-.21-.09.08-.15.08-.22,0a.11.11,0,0,0-.17,0c-.07.11-.13.05-.2,0H5.64a.15.15,0,0,1-.14-.06c-.07-.09-.12-.08-.18,0s-.05.16-.08.24a.21.21,0,0,1,0-.13v-.16s0-.08,0-.09-.06,0-.09,0a.74.74,0,0,0-.16.19,1,1,0,0,1-.17.19s-.09.05-.14,0-.1-.12-.24,0a.16.16,0,0,1-.26-.09.39.39,0,0,1,0-.24,2,2,0,0,0,0-.35.18.18,0,0,0-.28-.16.12.12,0,0,1-.18-.12c0-.05,0-.09,0-.13l0-.46c0-.06,0-.08-.07-.07s-.2,0-.23.21c0,0,0,.07,0,.1s0,0-.05,0a.11.11,0,0,0-.12,0,.09.09,0,0,1-.13,0A.54.54,0,0,1,2.84,10a1.47,1.47,0,0,1,.21-1c.1-.18.19-.2.36-.1s.08,0,.11,0a.18.18,0,0,1,.14-.08.45.45,0,0,0,.16,0,.08.08,0,0,1,.11,0S4,9,4,9s.07,0,.09.06l.15.41s0,.07.07.07,0-.05,0-.08a.74.74,0,0,0,0-.33.41.41,0,0,1,.16-.52,2.16,2.16,0,0,0,.29-.21c.1-.11.19-.22.09-.37a.17.17,0,0,1,0-.07s0-.06,0,0S5,7.82,5,7.74A.13.13,0,0,1,5,7.63a.13.13,0,0,0,.06-.07c0-.11.09-.1.16-.1h.12c.08,0,.11,0,.08-.12a.13.13,0,0,1,0-.19L5.7,7c.12-.07.12-.07.13.06s0,.1.12.07l.29-.11L6.45,7c.06,0,.06-.12,0-.19s-.07,0-.1,0-.08,0-.09,0,0-.07-.1-.06-.13,0-.09-.1a.13.13,0,0,0,0-.12s-.07,0-.11,0a.85.85,0,0,0-.17.06,1.43,1.43,0,0,1-.22.08s0,0,0,0A1.28,1.28,0,0,1,6,6.3a.22.22,0,0,1,.16,0s0,.07,0,.11,0,0,.08,0a1.66,1.66,0,0,0,.41-.23s.08-.09.13,0,0,.09,0,.13a1.16,1.16,0,0,0-.14.24s0,.07,0,.08a1.68,1.68,0,0,0,.5,0c.05,0,.06,0,0-.08a.28.28,0,0,0-.25-.22c-.09,0-.09,0,0-.12L7,6.07C7,6,7,6,7,5.93a2.71,2.71,0,0,0-.35-.24.19.19,0,0,1-.11-.15,1.11,1.11,0,0,0-.18-.38s-.06,0-.1,0L6,5.32s-.1,0-.15,0a.09.09,0,0,1,0-.16s0-.06,0-.08a1.16,1.16,0,0,0-.4-.16c-.22,0-.26,0-.29.21a2.14,2.14,0,0,1-.08.44c0,.06-.05.14-.12.11s-.1,0-.1.09,0,.17,0,.25,0,.09-.08.1-.1,0-.1,0a.22.22,0,0,0,0-.19s0-.1,0-.16,0-.11-.12-.11a.46.46,0,0,1-.23-.06A1,1,0,0,0,4,5.48c-.13,0-.16,0-.18-.16A.31.31,0,0,1,3.91,5a1.21,1.21,0,0,1,.47-.26c.06,0,.11,0,.13-.11s0-.05,0,0,0,0,0,0a.14.14,0,0,1,0,.06s0,.07.08.06l.08,0c.06,0,.12,0,.16,0a.06.06,0,0,0,.09,0,.08.08,0,0,0,0-.1.71.71,0,0,0-.23-.19s-.07,0-.06,0,0,0,.07,0a.32.32,0,0,0,.17,0,.15.15,0,0,0,.13-.2c0-.06,0-.08.06-.1s.1,0,.14,0,.13,0,.2,0,0,0,0,.07l0,.06s0,0,0,.06a.05.05,0,0,0,.08,0l.11-.08a0,0,0,0,1,.08,0s0,.06,0,.07-.17.23-.34.18h0a.13.13,0,0,0-.1.15c0,.07.07,0,.11,0a1.17,1.17,0,0,1,.58.13.41.41,0,0,0,.22,0s.09,0,.13,0,.06,0,.09,0,0-.08,0-.12l-.12-.12s0-.06,0-.09,0,0,.07,0,.05,0,.08,0a.26.26,0,0,0,.36-.1s0,0,0-.06-.21-.15-.34-.15-.12-.06-.12-.14A.15.15,0,0,0,6.13,4a.64.64,0,0,1-.2-.11,1,1,0,0,0-.72-.17A.3.3,0,0,0,5,3.81s0,.1-.09.07,0-.07,0-.11,0-.1-.08-.08a.63.63,0,0,0-.27.16.12.12,0,0,0,0,.21c.06.05.12,0,.19,0s.07,0,0,.06a.56.56,0,0,1-.25.2.18.18,0,0,0,0-.06c0-.12,0-.12-.1-.1s0,0,0,0S4.37,4,4.35,4s0-.09-.07-.09-.06,0-.08.09a1,1,0,0,1-.06.16,1,1,0,0,1-.07.15s0,0-.07,0,0-.05,0-.08v0s0-.06,0-.08a.11.11,0,0,0-.11,0s0,0,0,.07,0,.13-.13.14a1.93,1.93,0,0,1-.34,0s0,0,0,0,0,0,0,0l.07,0,.24-.13s.05,0,0-.06-.14-.11-.05-.26,0,0,0,0a1.07,1.07,0,0,0-.18,0c-.08,0-.05.11-.1.14s-.06-.1-.17-.09-.16,0-.21-.14c-.11.09-.19.22-.3.32a.13.13,0,0,1,0,.06c0,.18,0,.18-.16.14a8.87,8.87,0,0,0-1,1.65c-.05.1-.09.2-.14.29A9.48,9.48,0,0,1,19.29,8.15,9.24,9.24,0,0,0,18.16,5.2c-.13-.23-.28-.45-.43-.67,0,0,0,0-.05-.06s-.06,0-.08,0a.21.21,0,0,1,0-.11,4.34,4.34,0,0,0-.47-.59c-.05.16,0,.2.09.31s.11.07.13.15a.58.58,0,0,1-.26-.09c-.06,0-.17-.06-.18,0s-.13.09-.21.09-.17.06-.26,0a.06.06,0,0,0-.07,0l-.11,0c-.06,0-.13,0-.12.13A.89.89,0,0,1,16,4.24s-.07-.06-.1,0,0,.06,0,.08.07.13.1.23-.1-.11-.17-.06-.11.07-.08.16,0,.09-.09.06-.1,0-.15,0a0,0,0,0,1-.07,0l-.11-.17a.09.09,0,0,1,.07,0,.31.31,0,0,0,.33,0s.06-.07,0-.11a.69.69,0,0,0-.27-.17l-1.11-.3s-.07,0-.1,0a1.46,1.46,0,0,0-.54.36,2.27,2.27,0,0,1-.31.31,1.57,1.57,0,0,0-.24.21c-.21.22-.17.39,0,.63s.24.1.33,0,0,0,.05,0,0,0,0,.06l.12.28a.06.06,0,0,0,.08,0,1,1,0,0,0,.3-.09s0,0,.05-.06.05-.23.07-.35,0-.1-.06-.12-.12-.08,0-.18a1.55,1.55,0,0,0,.19-.24c.05-.12.08-.13.21-.12s.11,0,.06.12a1.59,1.59,0,0,1-.13.13.2.2,0,0,0,0,.27c.08.12.14.15.26.11l.16,0a.27.27,0,0,1,.21,0s0,0,0,.08,0,0-.08,0H14.8c-.05,0-.11,0-.13,0s.05.05.08.08,0,0,0,.05,0,0,0,0h-.05c-.13,0-.16,0-.16.16a.22.22,0,0,0,0,.08c0,.07,0,.11-.09.11s-.36,0-.54,0-.17,0-.2-.17,0-.12-.09-.13a.12.12,0,0,0-.15,0,.17.17,0,0,0,0,.19,1.5,1.5,0,0,1,.09.18h-.1a.61.61,0,0,0-.52.34c0,.09-.06.12-.13.13a2.13,2.13,0,0,0-.43.13s-.05,0-.05,0,0,0,.05,0a1.67,1.67,0,0,1,.2.08.31.31,0,0,1,.09.41c-.06.11-.15.13-.32.06l-.21-.08a.16.16,0,0,0-.22.17c0,.15,0,.3,0,.45A.29.29,0,0,0,12,8l.24.13s.07,0,.08,0A.14.14,0,0,1,12.45,8c.1,0,.2,0,.3-.09s.11-.09.08-.17a.08.08,0,0,1,0-.09c.1-.15.21-.29.32-.44s.05-.06.09,0a.26.26,0,0,0,.33,0q.09-.11.21,0l.4.32a.57.57,0,0,1,.23.3.24.24,0,0,0,.06.11l0,0s0,0,0,0,0-.14-.05-.2,0-.06,0-.06.06-.06,0-.1l-.12-.09A1.76,1.76,0,0,1,14,7s0-.06,0-.09.06,0,.09,0a2.67,2.67,0,0,1,.45.38.89.89,0,0,1,.25.43l.09.33c0,.08.06.08.11,0a1.71,1.71,0,0,0,.18-.2.13.13,0,0,0,0-.17c-.12-.12-.1-.1,0-.21s.09-.07.14,0,.09.22.14.32a.33.33,0,0,0,.38.2l.3,0a.05.05,0,0,1,.07,0,.9.9,0,0,1-.11.64.1.1,0,0,1-.17,0s-.06,0-.09,0l-.25.19s-.06.06-.09,0,0-.06,0-.1a.76.76,0,0,1,.08-.11c0-.05,0-.08,0-.09l-.48-.11a.11.11,0,0,0-.12.06l-.13.21s-.06.06-.12,0l-.44-.22a1.31,1.31,0,0,1-.37-.26c-.05,0,0-.08,0-.1s.12-.07.1-.17a.32.32,0,0,0-.28-.2h-.14a2.73,2.73,0,0,0-.5.05c-.28.09-.56.17-.83.28a.53.53,0,0,0-.41.47.43.43,0,0,1-.31.43.42.42,0,0,0-.26.3c0,.11-.06.22-.09.33a.84.84,0,0,0,0,.52.5.5,0,0,1-.08.46.45.45,0,0,0-.05.42.37.37,0,0,0,.24.29l.08,0a.35.35,0,0,1,.21.22l.06.19a.9.9,0,0,0,.32.42s.06,0,.08,0a.58.58,0,0,1,.47-.16A.43.43,0,0,0,12.9,12a.19.19,0,0,1,.31,0c.07,0,.13.12.2.18s.14.12.22.07.15,0,.2,0a.24.24,0,0,1,0,.26l-.11.19a.3.3,0,0,0,0,.37,1.27,1.27,0,0,1,.21.6.79.79,0,0,1-.16.68.58.58,0,0,0-.12.28,1.32,1.32,0,0,0,.08.71.42.42,0,0,1,0,.38.48.48,0,0,0,0,.35.86.86,0,0,1,0,.42.41.41,0,0,0,0,.16c0,.05,0,.07.08.06a2,2,0,0,0,.87-.34,3,3,0,0,0,.75-1.07,1.44,1.44,0,0,1,.34-.43,1.76,1.76,0,0,0,.3-.31,1.12,1.12,0,0,0,.12-.62,1.55,1.55,0,0,1,.4-1.1,8.64,8.64,0,0,0,.56-.67,1.82,1.82,0,0,0,.35-.79s0-.08,0-.1-.08,0-.11,0l-.18.13a.27.27,0,0,1-.22.07c-.06,0-.1,0-.1-.1v-.16a1.14,1.14,0,0,0-.26-.5,1,1,0,0,1-.21-.39c-.09-.38-.17-.77-.26-1.15,0,0,0-.06,0-.08s.12,0,.15.07a7.39,7.39,0,0,0,.31.94,2.55,2.55,0,0,1,.27.93c0,.11,0,.12.14.09a1.49,1.49,0,0,0,.57-.33,1.5,1.5,0,0,0,.53-.71.44.44,0,0,0-.1-.45,1.58,1.58,0,0,1-.12-.15c0-.06-.06,0-.09,0a1.83,1.83,0,0,1-.13.16s-.06.06-.09,0A3,3,0,0,1,17.3,9c0-.06,0-.13.07-.16s.07.06.09.1a2.67,2.67,0,0,0,.22.36c0,.05.09.11.15.05s.13,0,.18,0l.09.1c.12.14.2.15.36,0s.12-.07.19.05a1.87,1.87,0,0,1,.13.4s0,.11.07.13S18.91,10,19,10c.1.62,0,1.25.12,1.87.1-.07.11-.17.17-.24h0c.06-.24.06-.49.1-.74a1.08,1.08,0,0,1,.11-.3v0A9.47,9.47,0,0,1,10,19.47ZM1.38,6.4a.15.15,0,0,1,0-.16c.13.16.15.28.06.38s0,0,0-.07A.14.14,0,0,0,1.38,6.4ZM1.6,8.71s0,0,0,0,0,0,0,0c.06.18.11.37.16.55a.2.2,0,0,0,0,.05,1.2,1.2,0,0,1-.22-.49S1.58,8.74,1.6,8.71Zm3-1.77s-.05,0-.06,0,0,0,0-.05a.25.25,0,0,0,0,.16.11.11,0,0,1,0,.08s0,.08-.09.07,0-.07,0-.1,0-.09,0-.13a.12.12,0,0,0-.05-.11.13.13,0,0,0-.12,0A.4.4,0,0,0,4,7.18a.27.27,0,0,1,0,.15.05.05,0,0,1-.07,0s0,0,0-.06A2.43,2.43,0,0,1,4,6.84a.22.22,0,0,1,.28-.13.46.46,0,0,0,.2,0c.11,0,.15,0,.17.14S4.64,6.93,4.61,6.94ZM4.7,7s.09,0,.15,0H4.9S5,7,5,7s0,0,0,0a2.94,2.94,0,0,0-.47.31s-.06,0-.09,0,0-.07,0-.08A1.14,1.14,0,0,0,4.7,7Zm-.53-.41s-.12,0-.17-.05-.09,0-.13,0-.1.07-.13,0,0-.09.09-.11A2.26,2.26,0,0,0,4,6.35s.09,0,.12,0a.6.6,0,0,0,.08.08s.06,0,0,.08S4.24,6.61,4.17,6.61ZM19.43,9.15c0-.13,0-.25,0-.38C19.41,8.9,19.42,9,19.43,9.15Zm-.05-.5c0-.15-.05-.31-.08-.46C19.33,8.34,19.35,8.5,19.38,8.65ZM17.2,7.39a.7.7,0,0,1-.33-.46.15.15,0,0,1,0-.13s.05-.08.11,0,.1,0,.14,0,.08-.1.17,0a.44.44,0,0,1,.12.15s.05.06,0,.1a.09.09,0,0,1-.12,0c-.09,0-.12,0-.12.08s0,.08.05.1.06.05.08.09a.27.27,0,0,0,.13.15.07.07,0,0,1,0,.1.12.12,0,0,0,0,.13,1.12,1.12,0,0,1,.1.31c0,.1,0,.14-.11.15a.33.33,0,0,1-.34-.31s0-.07.05-.09.08-.08.08-.15S17.24,7.41,17.2,7.39Zm-1-.48a2.21,2.21,0,0,1,.29.22l.09.09s.09.11.05.17-.11.07-.17.08a.45.45,0,0,1-.23-.08A.37.37,0,0,0,16,7.32a.12.12,0,0,0-.11,0,.19.19,0,0,1-.18.07.18.18,0,0,0-.14,0s-.06,0-.06,0a.31.31,0,0,0,0-.19.13.13,0,0,1,0-.12.85.85,0,0,0,.13-.31s0-.09.08-.09.08,0,.1.07a1,1,0,0,1,.1.17s.06,0,.1,0A.25.25,0,0,0,16,6.85a.11.11,0,0,1,0-.08s.08,0,.11,0,0,.06,0,.08S16.13,6.89,16.16,6.91Zm-.75-1.78s0,0-.05,0-.16-.08-.15-.13,0,0,0,0S15.42,5.09,15.41,5.13ZM15.74,13a.58.58,0,0,1,0-.19.11.11,0,0,1,.15-.07c.06,0,0,.08,0,.13a.7.7,0,0,1-.09.17s0,.06-.08,0S15.74,13.05,15.74,13Z"/></svg>
