<svg width="22" height="22" viewBox="0 0 22 22" fill="none" xmlns="http://www.w3.org/2000/svg">
<path d="M1.74029 18.7329C1.18146 18.7329 0.72937 19.0344 0.72937 19.406C0.72937 19.7776 1.18146 19.7431 1.74029 19.7431C2.2984 19.7431 2.75121 19.778 2.75121 19.406C2.75121 19.0341 2.2984 18.7329 1.74029 18.7329Z" fill="white"/>
<path d="M8.22235 20.2888C7.66352 20.2888 7.21143 20.59 7.21143 20.9619C7.21143 21.3335 7.66352 21.299 8.22235 21.299C8.78046 21.299 9.23327 21.3339 9.23327 20.9619C9.23291 20.59 8.7801 20.2888 8.22235 20.2888Z" fill="white"/>
<path d="M11.4894 17.0803C10.9306 17.0803 10.4785 17.3818 10.4785 17.7534C10.4785 18.1254 10.9306 18.0905 11.4894 18.0905C12.0475 18.0905 12.5004 18.1257 12.5004 17.7534C12.5 17.3818 12.0472 17.0803 11.4894 17.0803Z" fill="white"/>
<path d="M13.1077 3.57601C13.2755 2.24198 13.9685 1.29405 15.0798 0.696583C15.2531 0.605008 15.1006 0.329291 14.9303 0.419877C13.7557 1.04952 12.9968 2.0816 12.8191 3.49186C12.7944 3.69184 13.083 3.77995 13.1077 3.57601Z" fill="white"/>
<path d="M20.8219 5.30493C20.8754 5.10594 20.5873 5.02178 20.5338 5.2188C20.1329 6.69588 19.3176 7.79231 17.9153 8.24326C17.7316 8.30217 17.8113 8.61105 17.994 8.55165C19.4973 8.06951 20.3918 6.88943 20.8219 5.30493Z" fill="white"/>
<path d="M15.1194 8.09394C15.2843 8.20432 15.4323 7.92663 15.2709 7.81723C14.2512 7.13611 13.7438 6.27728 13.5245 5.01948C13.4884 4.81603 13.2008 4.90167 13.2364 5.10412C13.4696 6.44607 14.0369 7.36975 15.1194 8.09394Z" fill="white"/>
<path d="M17.5775 0.557332C18.421 0.481102 19.2516 1.38943 19.6803 2.08689C19.7842 2.25915 20.0426 2.09728 19.9372 1.92453C19.4546 1.13846 18.5339 0.15044 17.5775 0.237561C17.3859 0.255381 17.3859 0.574657 17.5775 0.557332Z" fill="white"/>
<path d="M13.1979 8.02827C14.1087 8.88512 15.123 9.26379 16.3283 9.28112C16.5214 9.28409 16.5214 8.96382 16.3283 8.96135C15.2027 8.94402 14.2597 8.60346 13.4098 7.80106C13.2662 7.66593 13.0539 7.89214 13.1979 8.02827Z" fill="white"/>
<path d="M19.3573 9.07484C20.1453 8.73823 20.6963 7.78436 21.0344 6.99088C21.1121 6.80476 20.8562 6.6414 20.777 6.82951C20.477 7.53488 19.982 8.46499 19.2766 8.76645C19.1004 8.8407 19.1781 9.15156 19.3573 9.07484Z" fill="white"/>
<path d="M12.7139 5.30146C12.208 4.14365 12.0179 2.09385 12.9935 1.15334C13.1366 1.01623 12.9252 0.790507 12.7812 0.927128C11.6966 1.97356 11.8931 4.17583 12.457 5.46333C12.5391 5.64945 12.795 5.48709 12.7139 5.30146Z" fill="white"/>
<path d="M20.9829 3.29212C20.9859 3.49804 21.2839 3.49804 21.2819 3.29212C21.2646 1.97888 20.8656 0.926999 19.9518 0.0429252C19.8088 -0.0946854 19.5974 0.130541 19.74 0.269141C20.5983 1.09926 20.9671 2.05956 20.9829 3.29212Z" fill="white"/>
<circle cx="17.0993" cy="4.18266" r="2.54936" fill="white"/>
<path d="M17.813 20.0457V18.4162H16.6973C16.3123 18.4162 16 18.1037 16 17.7189V16.7192C16 16.3339 16.3123 16.0219 16.6973 16.0219C17.0827 16.0219 17.3947 16.3339 17.3947 16.7192V17.0214H17.813V13.6973C17.813 13.3118 18.1255 13 18.5103 13C18.8959 13 19.2079 13.3118 19.2079 13.6973V15.5876H19.6727V14.8437C19.6727 14.4589 19.985 14.1464 20.37 14.1464C20.7556 14.1464 21.0674 14.4589 21.0674 14.8437V16.2851C21.0674 16.6704 20.7556 16.9824 20.37 16.9824H19.2079V20.0457H17.813Z" fill="white"/>
<path d="M2.73151 12.2222H4.53708V18H6.70373V13.9074H8.26854C8.73388 13.9074 9.11114 13.5302 9.11114 13.0648V8.85185C9.11114 8.38651 8.73391 8.00925 8.26854 8.00925C7.80317 8.00925 7.42597 8.38651 7.42597 8.85185V12.2222H6.70373V6.08333C6.70373 5.48511 6.21862 5 5.6204 5C5.02218 5 4.53708 5.48511 4.53708 6.08333V10.537H3.57411V7.40741C3.57411 6.94206 3.19688 6.56481 2.73151 6.56481C2.26615 6.56481 1.88892 6.94206 1.88892 7.40741V11.3796C1.88892 11.845 2.26615 12.2222 2.73151 12.2222Z" fill="white"/>
</svg>
