<svg xmlns="http://www.w3.org/2000/svg" viewBox="0 0 22.36 22.36"><defs><style>.cls-1{fill:#fff;}</style></defs><g id="Layer_2" data-name="Layer 2"><g id="Date"><path class="cls-1" d="M22.36,11.09V11h0v-.28c0-.4-.06-.8-.11-1.19h0A11.21,11.21,0,0,0,13.52.25L13,.14l-.14,0h0A11.81,11.81,0,0,0,11.34,0H11A11.81,11.81,0,0,0,9.56.12h0A11,11,0,0,0,3.28,3.28c-.27.27-.52.55-.76.83A11.14,11.14,0,0,0,.12,9.54h0A11.81,11.81,0,0,0,0,11H0v.24A9.76,9.76,0,0,0,.12,12.8h0v0a8.55,8.55,0,0,0,.17.88A11.16,11.16,0,0,0,5.1,20.56c.25.16.51.32.78.46a11,11,0,0,0,3.66,1.22h0a10.17,10.17,0,0,0,1.47.11h.31a10.14,10.14,0,0,0,1.46-.11h0l.18,0a11.18,11.18,0,0,0,7.8-5.34q.12-.19.24-.42c.12-.22.22-.44.32-.66A10.19,10.19,0,0,0,22,14c0-.17.08-.34.11-.49s.08-.43.11-.64h0v0h0c0-.11,0-.22,0-.34s0-.34.05-.5,0-.46,0-.69v-.18Zm-8.73-10A10.41,10.41,0,0,1,21.49,10,11.27,11.27,0,0,0,17.4,5a11.26,11.26,0,0,0-3.73-3.47l-.05,0A2.41,2.41,0,0,0,13.63,1.09Zm0,.64a10.91,10.91,0,0,1,3.27,2.89A11.07,11.07,0,0,0,13.1,3.24,4.62,4.62,0,0,0,13.59,1.73ZM10.93,5.25c.37-.09.86-.92,1.51-1.24a1.16,1.16,0,0,0,.43-.41A20.89,20.89,0,0,1,14,7.8a1.34,1.34,0,0,0-.42,0s-.06.06-.08.12h0a20.09,20.09,0,0,0-2.33-.13A21.18,21.18,0,0,0,8.31,8a20.6,20.6,0,0,1,.9-3.64C9.87,4.83,10.68,5.32,10.93,5.25ZM7.84,11.79c0,.13,0,.26,0,.39,0,.42.05.84.1,1.25a.81.81,0,0,0-.25,0c-.09,0-.12.27-.1.58a21.32,21.32,0,0,1-2.73-.67C5,13.21,5,13.12,5,13c-.3-.51-.64-1.24-1-1.85a1.39,1.39,0,0,0-.68-.41v0a11.69,11.69,0,0,1,.12-1.19A20.71,20.71,0,0,1,8,8.31a21.18,21.18,0,0,0-.19,2.87C7.83,11.38,7.83,11.59,7.84,11.79ZM3.46,14.28l0,0a11.29,11.29,0,0,0,1.12,2.6A11,11,0,0,1,2.87,15.2l0,0A3.43,3.43,0,0,1,3.46,14.28Zm.27-.11v0a5.87,5.87,0,0,0,.95-.64l.07,0a20.09,20.09,0,0,0,2.85.7h0c.06.43.2.88.4.93h.18a20.51,20.51,0,0,0,1.07,3.69,10.75,10.75,0,0,1-4.14-1.66A10.72,10.72,0,0,1,3.73,14.17Zm4.47-.69v0c0-.36-.07-.73-.09-1.1.32.39.84.87.82,1.07S8.53,13.55,8.2,13.48Zm-.12-1.74c0-.19,0-.37,0-.56a21.78,21.78,0,0,1,.2-2.91,21.78,21.78,0,0,1,2.91-.2,19.46,19.46,0,0,1,2.3.13A1.3,1.3,0,0,1,12,9.58c-1.85,0-2.18,2-2.26,2.07A13,13,0,0,0,8.08,11.74ZM7.86,3.83h.33A.82.82,0,0,1,8.65,4L9,4.23v0a20.37,20.37,0,0,0-.93,3.79A20.64,20.64,0,0,0,3.48,9.28,10.63,10.63,0,0,1,4,7.42L4.14,7a10.91,10.91,0,0,1,1-1.88A11.12,11.12,0,0,1,7.5,4ZM6,4c.32-.06.69-.1,1-.13a11.3,11.3,0,0,0-1.56.77c.13-.17.26-.34.41-.51Zm-.5.15.08,0c-.23.28-.45.57-.65.86l-.5.36A2.83,2.83,0,0,1,5.53,4.13ZM4,6.2a1.22,1.22,0,0,0,.23-.34l.22-.18.22-.17A11.46,11.46,0,0,0,4,6.77C3.92,6.51,3.84,6.26,4,6.2Zm-1.37.47a1.31,1.31,0,0,1,.26.16,10.51,10.51,0,0,0-.83,1C2.12,7.3,2.32,6.54,2.58,6.67Zm-.87,3.4a3.76,3.76,0,0,1-.26-.38c-.05-.18.21-.67.38-1.09.08-.12.15-.25.24-.37A10.62,10.62,0,0,1,3,7H3a2.23,2.23,0,0,0,.71.4,10.8,10.8,0,0,0-.52,2c-.51.21-1,.43-1.49.68Zm.16.19c.42-.21.86-.41,1.3-.6,0,.35-.07.69-.09,1a7.72,7.72,0,0,0-1-.24A.7.7,0,0,1,1.87,10.26Zm1.8,8.08a3.76,3.76,0,0,1,0-1c0-.34-1.12-.83-1.22-1.2a1.53,1.53,0,0,1,.25-.78A11.56,11.56,0,0,0,5,17.4a11.27,11.27,0,0,0,5,4.09A10.33,10.33,0,0,1,3.67,18.34Zm6.78,3.08a11,11,0,0,1-4.94-3.68,11.2,11.2,0,0,0,3.87,1.41,20.8,20.8,0,0,0,1.1,2.28Zm1.09.13h-.71a.21.21,0,0,1,0-.06,21.31,21.31,0,0,1-1.13-2.3l.62.07h.2a3.88,3.88,0,0,1,.2.51c0,.07.4.16.66.21a4.81,4.81,0,0,1,.82.31l0,0,0,.09c-.18.36-.37.72-.57,1.06Zm.34-.12c.15-.26.29-.53.43-.8a2.06,2.06,0,0,1,.09.22,1,1,0,0,0,.32.17v.07l0,0c-.25.11-.51.22-.76.31Zm.52.06.36-.15,0,.1Zm.41-2.56h0l-.38.05h0l-.14,0c-.23-.18-.62-.5-.69-.53s-.25.11-.37.12-.74-.27-.89-.22-.43.52-.42.55L10,19l-.41-.05a20.84,20.84,0,0,1-1.11-3.79c.41-.08.92-.27,1.21-.14a2.83,2.83,0,0,1,1,1.8c.15.76.71.51,1.37.68.12,0,.68.14,1.23.32h0C13.1,18.18,13,18.56,12.81,18.93Zm1.42.74-.2,0a6.51,6.51,0,0,1-1-.5,12,12,0,0,0,1.32-.3C14.33,19.09,14.28,19.39,14.23,19.67Zm.13-1.09h0a10.46,10.46,0,0,1-1.23.29c.13-.33.25-.67.36-1,.49.18.91.42.91.69Zm1.7-10.19a2.64,2.64,0,0,0-1.79-.59v0a21.2,21.2,0,0,0-1.17-4.3,10.76,10.76,0,0,1,4.13,1.66,10.75,10.75,0,0,1,1.66,4.14,20,20,0,0,0-2.72-.86Zm.11.28a20.64,20.64,0,0,1,2.76.89c0,.23.06.47.08.7A3.28,3.28,0,0,1,16.17,8.67Zm1.57-3.16a11,11,0,0,1,3.68,4.93v0a21.72,21.72,0,0,0-2.28-1.1A11.06,11.06,0,0,0,17.74,5.51Zm3.4,5.56C21,11.07,21,11,21,11c-.22-.73-1-.73-1.7-.73h0c0-.19,0-.39-.06-.59a21.31,21.31,0,0,1,2.3,1.13l.06,0h0V11A1.67,1.67,0,0,1,21.14,11.07Z"/></g></g></svg>