<svg xmlns="http://www.w3.org/2000/svg" viewBox="0 0 25.29 22.67"><path d="M24.67,2a2,2,0,0,0-1.15-.59,2.16,2.16,0,0,0-2-1.4H2.17A2.17,2.17,0,0,0,0,2.17v20.5l6.64-6.34H21.5a2.17,2.17,0,0,0,2.17-2.16V5.83l.29-.3h0l.71-.71A1.94,1.94,0,0,0,24.67,2Zm-2,12.18a1.17,1.17,0,0,1-1.17,1.16H6.24L1,20.33V2.17A1.17,1.17,0,0,1,2.17,1H21.5a1.15,1.15,0,0,1,1,.57,2.29,2.29,0,0,0-.64.42l-.7.71-.71.71L16.67,7.16H5.61a.5.5,0,0,0-.5.5.5.5,0,0,0,.5.5H15.67l-.28.29-1.11,3.94,3.94-1.11,4.45-4.45Zm-.12-8.64-4.86,4.86-2,.55.56-2,4.86-4.85.7.7ZM24,4.12l-.7.7-.71-.7-.71-.71.71-.71A.94.94,0,0,1,24,2.7.94.94,0,0,1,24,4.12Z"/><path d="M5.61,4.83H18.54a.5.5,0,0,0,0-1H5.61a.5.5,0,0,0,0,1Z"/><path d="M12.7,10.5H5.61a.5.5,0,1,0,0,1H12.7a.5.5,0,0,0,0-1Z"/></svg>
