<svg version="1.1"
	 xmlns="http://www.w3.org/2000/svg" viewBox="0 0 24 24">
<path d="M24,13.6v-3.2c-1.7-0.6-2.7-0.8-3.2-2c-0.5-1.3,0.1-2.1,0.8-3.7l-2.3-2.3c-1.6,0.7-2.4,1.4-3.7,0.8c-1.3-0.5-1.4-1.6-2-3.2
	h-3.3c-0.6,1.6-0.7,2.7-2,3.2C7.1,3.8,6.3,3.1,4.7,2.4L2.4,4.7c0.8,1.6,1.4,2.4,0.8,3.7c-0.5,1.3-1.6,1.4-3.2,2v3.2
	c1.6,0.6,2.7,0.7,3.2,2c0.5,1.3-0.1,2.2-0.8,3.7l2.3,2.3c1.6-0.8,2.4-1.4,3.7-0.8c1.3,0.5,1.4,1.6,2,3.2h3.2c0.6-1.6,0.8-2.7,2-3.2
	c1.3-0.5,2.1,0.1,3.7,0.8l2.3-2.3c-0.8-1.6-1.4-2.4-0.9-3.7C21.3,14.4,22.4,14.2,24,13.6z M12,17.2c-2.9,0-5.2-2.3-5.2-5.2
	S9.1,6.8,12,6.8s5.2,2.3,5.2,5.2S14.9,17.2,12,17.2z"/>
</svg>
