<svg id="b11fa8cb-b471-4dfc-9580-cc33c3e90a59" xmlns="http://www.w3.org/2000/svg" viewBox="0 0 20 20"><path d="M20,9.38a9.82,9.82,0,0,0-1-3.75,8.22,8.22,0,0,0-.74-1.25,10,10,0,0,0-7-4.3l-.61,0c-.21,0-.42,0-.63,0s-.42,0-.62,0l-.62,0a10,10,0,0,0-7,4.3A8.22,8.22,0,0,0,1,5.63,9.82,9.82,0,0,0,0,9.38c0,.2,0,.41,0,.62s0,.42,0,.63a9.92,9.92,0,0,0,1,3.75,9.33,9.33,0,0,0,.74,1.25,10,10,0,0,0,7,4.29l.62,0c.2,0,.41,0,.62,0s.42,0,.63,0l.61,0a10,10,0,0,0,7-4.29A9.33,9.33,0,0,0,19,14.38a9.92,9.92,0,0,0,1-3.75c0-.21,0-.42,0-.63S20,9.58,20,9.38Zm-1.25,0h-3A12.46,12.46,0,0,0,15,5.63h2.62A8.54,8.54,0,0,1,18.72,9.38Zm-5.12,5h-3V10.63h3.84A11.7,11.7,0,0,1,13.6,14.38Zm-3-5V5.63h3a11.58,11.58,0,0,1,.87,3.75Zm6.06-5H14.4a15,15,0,0,0-1.73-2.71A8.73,8.73,0,0,1,16.69,4.38Zm-6-3.1A13.94,13.94,0,0,1,13,4.38H10.63V1.25Zm-1.3,0,0,0V4.38H7A13.94,13.94,0,0,1,9.35,1.28ZM5.53,10.63H9.38v3.75h-3A11.7,11.7,0,0,1,5.53,10.63Zm.87-5h3V9.38H5.53A11.58,11.58,0,0,1,6.4,5.63Zm.93-4A15,15,0,0,0,5.6,4.38H3.31A8.73,8.73,0,0,1,7.33,1.67Zm-4.9,4H5.05a12.46,12.46,0,0,0-.77,3.75h-3A8.54,8.54,0,0,1,2.43,5.63Zm-1.15,5h3a12.59,12.59,0,0,0,.77,3.75H2.43A8.62,8.62,0,0,1,1.28,10.63Zm2,5H5.6a15.25,15.25,0,0,0,1.73,2.7A8.84,8.84,0,0,1,3.31,15.63Zm6,3.09A14.12,14.12,0,0,1,7,15.63H9.38v3.12Zm1.3,0,0,0V15.63H13A14.12,14.12,0,0,1,10.65,18.72Zm2-.39a15.25,15.25,0,0,0,1.73-2.7h2.29A8.84,8.84,0,0,1,12.67,18.33Zm4.9-3.95H15a12.59,12.59,0,0,0,.77-3.75h3A8.62,8.62,0,0,1,17.57,14.38Z"/></svg>
