<svg xmlns="http://www.w3.org/2000/svg" viewBox="0 0 24 19.33"><path d="M8.76,10.41v2.71A3.14,3.14,0,0,1,9,14.3a3.52,3.52,0,0,1-3.63,3.4,3.51,3.51,0,0,1-3.62-3.4A3.14,3.14,0,0,1,2,13.12V10.41A4.9,4.9,0,0,0,0,14.3a5.2,5.2,0,0,0,5.36,5,5.21,5.21,0,0,0,5.37-5A4.9,4.9,0,0,0,8.76,10.41Z"/><path d="M5.36,7.57S2.9,7.5,2.61,8.88v3a6.92,6.92,0,0,1,.78-.46A5.86,5.86,0,0,1,4.69,11h0a3.14,3.14,0,0,1,.67-.08A3.07,3.07,0,0,1,6,11H6a5.5,5.5,0,0,1,1.3.49,7.79,7.79,0,0,1,.79.46v-3C7.82,7.5,5.36,7.57,5.36,7.57ZM5.57,9.2v.44a.2.2,0,0,1-.21.2.2.2,0,0,1-.2-.2V9.2a.44.44,0,0,1-.23-.39.44.44,0,0,1,.43-.44.44.44,0,0,1,.21.83Z"/><path d="M5.36,3.22h0a.88.88,0,0,0-.88.89V5.23a.88.88,0,0,0,.88.89h0a.88.88,0,0,0,.88-.89V4.11A.88.88,0,0,0,5.36,3.22Zm.4,2a.4.4,0,0,1-.8,0V4.11a.4.4,0,1,1,.8,0Z"/><rect x="5.09" y="5.25" width="0.51" height="2.57" rx="0.26"/><path d="M8.24.79h0A.9.9,0,0,0,7,.68l-.86.72A.9.9,0,0,0,6,2.65H6a.9.9,0,0,0,1.25.11L8.13,2A.88.88,0,0,0,8.24.79ZM7,2.39a.4.4,0,1,1-.52-.62l.86-.72a.41.41,0,0,1,.57.05.4.4,0,0,1,0,.56Z"/><rect x="5.7" y="1.81" width="0.51" height="2.57" rx="0.26" transform="translate(2.85 -2.86) rotate(35)"/><rect x="8.56" y="-0.21" width="0.51" height="2.57" rx="0.26" transform="translate(8.34 -7.8) rotate(80)"/><rect x="11.9" y="0.72" width="0.51" height="2.57" rx="0.26" transform="matrix(-0.64, 0.77, -0.77, -0.64, 21.51, -6.02)"/><path d="M12,1.57h0A.88.88,0,0,0,11.46.44L10.4.05A.89.89,0,0,0,9.27.58h0A.88.88,0,0,0,9.8,1.71l1.06.39A.89.89,0,0,0,12,1.57Zm-2-.31A.39.39,0,0,1,9.73.75a.39.39,0,0,1,.51-.24L11.3.89a.41.41,0,0,1,.24.52.42.42,0,0,1-.52.24Z"/><path d="M14.45,4.43h0a.88.88,0,0,0,.11-1.24l-.72-.86a.89.89,0,0,0-1.25-.11h0a.88.88,0,0,0-.11,1.24l.73.86A.87.87,0,0,0,14.45,4.43Zm-1.6-1.28a.4.4,0,0,1,.62-.51l.72.86a.4.4,0,0,1,0,.56.39.39,0,0,1-.56,0Z"/><rect x="14.41" y="3.58" width="0.51" height="2.57" rx="0.26" transform="translate(29.46 0.44) rotate(145)"/><path d="M19.54,6.3,21,8.6a3.18,3.18,0,0,1,.82.89,3.52,3.52,0,0,1-1.27,4.8,3.51,3.51,0,0,1-4.87-1,3.09,3.09,0,0,1-.44-1.13l-.64-1-.8-1.27a4.92,4.92,0,0,0,.4,4.35,5.2,5.2,0,0,0,7.21,1.42,5.2,5.2,0,0,0,1.89-7.11A5,5,0,0,0,19.54,6.3Z"/><path d="M15.16,5.7S13,6.94,13.52,8.27l1.6,2.56a7.39,7.39,0,0,1,.42-.8,5.92,5.92,0,0,1,.85-1.1h0a3.49,3.49,0,0,1,.52-.43,3.37,3.37,0,0,1,.61-.28h0a5.88,5.88,0,0,1,1.36-.28c.52,0,.9,0,.9,0l-1.6-2.56C17.21,4.33,15.16,5.7,15.16,5.7ZM16.2,7l.23.37a.2.2,0,0,1-.07.28.21.21,0,0,1-.28-.06l-.23-.38a.42.42,0,0,1-.4-.2.44.44,0,0,1,.74-.46A.45.45,0,0,1,16.2,7Z"/></svg>
