<svg xmlns="http://www.w3.org/2000/svg" viewBox="0 0 20 20"><path d="M10,0A10,10,0,1,0,20,10,10,10,0,0,0,10,0Zm1.76,16.5a.25.25,0,0,1-.25.25H8a.25.25,0,0,1-.25-.25V13.37A.25.25,0,0,1,8,13.12h3.55a.25.25,0,0,1,.25.25Zm2.86-7.79a7.27,7.27,0,0,1-1.73,1.75,4,4,0,0,0-1.05,1,2.07,2.07,0,0,0-.2,1,.25.25,0,0,1-.25.25H8.08a.25.25,0,0,1-.25-.25v-.33A4.55,4.55,0,0,1,8,10.7a3.34,3.34,0,0,1,.62-1,16.87,16.87,0,0,1,1.74-1.57c.4-.32.61-.62.61-.86a.75.75,0,0,0-.2-.56,1,1,0,0,0-.69-.2,1.13,1.13,0,0,0-.85.34,2.18,2.18,0,0,0-.45,1.28.26.26,0,0,1-.09.17.24.24,0,0,1-.18.05L5.15,7.89a.26.26,0,0,1-.22-.27A4.91,4.91,0,0,1,6.37,4.46a5.29,5.29,0,0,1,3.79-1.21,5.61,5.61,0,0,1,3.21.84,3.54,3.54,0,0,1,1.7,3.06A3,3,0,0,1,14.62,8.71Z"/></svg>
