<svg xmlns="http://www.w3.org/2000/svg" viewBox="0 0 19.99 19.12"><title>home-date</title><path d="M3.55,7.61l6.51-4.8a.42.42,0,0,1,.39-.08l3.76,1L10.92.38a1.31,1.31,0,0,0-1.85,0L.38,9.08a1.3,1.3,0,0,0,1.85,1.84l.71-.72A2.51,2.51,0,0,1,3.55,7.61Z" style="opacity:0.4"/><path d="M14.35,16.51H5.66V14.94l-2-.61a1.89,1.89,0,0,1-.64-.51v4a1.3,1.3,0,0,0,1.3,1.3h11.3A1.31,1.31,0,0,0,17,17.81l0-6.58-2.6,2.13Z" style="opacity:0.4"/><path d="M3.36,11.34c.24-.06.14-.29,0-.37A2,2,0,0,1,3,10.43V11.7C3.17,11.49,3.3,11.35,3.36,11.34Z" style="opacity:0.4"/><path d="M17.15,7.38a.11.11,0,0,0-.08,0l-2.73,2-3.77,2.74a.68.68,0,0,1-.54.1L5.65,11.08,5,10.91a1.15,1.15,0,0,1,.58-2.19h0L10,10a.69.69,0,0,0,.57-.1L14.1,7.25l2.12-1.57,1-.76a.17.17,0,0,0,.06-.1.49.49,0,0,0-.36-.46l-2.73-.68-3.76-1a.42.42,0,0,0-.39.08L3.55,7.61a2.51,2.51,0,0,0-.61,2.59,1.6,1.6,0,0,0,.1.23,2,2,0,0,0,.32.54c.14.08.24.31,0,.37-.06,0-.19.15-.32.36a1.83,1.83,0,0,0,0,2.12,1.89,1.89,0,0,0,.64.51l2,.61,4.65,1.44a.46.46,0,0,0,.44-.08l3.6-2.94L17,11.23l.18-.15a.44.44,0,0,0,.17-.32v-.31h0a.14.14,0,0,0-.14-.14h-.09L17,10.4l-2.61,2-3.77,2.89a.64.64,0,0,1-.54.1L5.66,14.22,5,14.05a1.15,1.15,0,0,1,.58-2.19h0L10,13.11a.69.69,0,0,0,.57-.11l3.77-2.78L17.22,8.1A.16.16,0,0,0,17.3,8V7.53A.15.15,0,0,0,17.15,7.38Zm-8-3a.25.25,0,0,1,.11-.17l.68-.54a.33.33,0,0,1,.27-.06l.42.11,3.79.94a.33.33,0,0,1,.23.39.42.42,0,0,1-.11.18l-.69.53a.33.33,0,0,1-.27.06l-1.13-.28L9.33,4.79a.31.31,0,0,1-.22-.39Z"/><path d="M19.61,9.08,17.13,6.6v.79h0a.15.15,0,0,1,.15.15V8a.16.16,0,0,1-.08.14l-.09.06v2.13l0,0a.14.14,0,0,1,.14.14l.47.47a1.3,1.3,0,0,0,1.84,0A1.3,1.3,0,0,0,19.61,9.08Z" style="opacity:0.4"/></svg>