<svg xmlns="http://www.w3.org/2000/svg" viewBox="0 0 19.99 19.12"><title>home-weg</title><path d="M19.61,9.07,10.92.38a1.31,1.31,0,0,0-1.85,0L.38,9.07a1.31,1.31,0,1,0,1.85,1.85L3,10.11v1.05l1.52-.84a5.23,5.23,0,0,1,0-1.58L3,7.81a.19.19,0,0,1-.08-.23l.37-.84.37-.89a.18.18,0,0,1,.22-.1l1.76.5a5.41,5.41,0,0,1,1.14-1.1L6.31,3.38a.16.16,0,0,1,.11-.21l1.74-.72h0a.17.17,0,0,1,.21.1L9.18,4,10,3.15l.93.93.85-1.46h0A.16.16,0,0,1,12,2.55l1.73.71a.17.17,0,0,1,.1.22l-.49,1.76a5.36,5.36,0,0,1,1.1,1.13l1.77-.45a.17.17,0,0,1,.21.1l.71,1.74v0A.16.16,0,0,1,17,8l-1.59.89a6,6,0,0,1,0,1.58l1.52.89V10.1l.82.82a1.3,1.3,0,0,0,1.84-1.85Z" style="opacity:0.4"/><path d="M16.32,13.33a.18.18,0,0,1-.22.1l-1.76-.5v3.58h-2.1l-.42.15a.18.18,0,0,1-.23-.08l0-.07H8.23l0,0a.2.2,0,0,1-.23.08l-.31-.13h-2V12.94l-.1-.12-1.77.45h0a.17.17,0,0,1-.21-.1L3,11.87l0,6a1.3,1.3,0,0,0,1.3,1.3h11.3A1.31,1.31,0,0,0,17,17.81l0-5.94-.25.58Z" style="opacity:0.4"/><path d="M17.14,7.78v0L16.42,6a.17.17,0,0,0-.21-.1l-1.77.45a5.36,5.36,0,0,0-1.1-1.13l.49-1.76a.17.17,0,0,0-.1-.22L12,2.55a.16.16,0,0,0-.22.07h0l-.85,1.46-.08.12a4.87,4.87,0,0,0-1.57,0L9.18,4l-.8-1.42a.17.17,0,0,0-.21-.1h0l-1.74.72a.16.16,0,0,0-.11.21l.46,1.77a5.41,5.41,0,0,0-1.14,1.1l-1.76-.5a.18.18,0,0,0-.22.1l-.37.89-.37.84A.19.19,0,0,0,3,7.81l1.57.93a5.23,5.23,0,0,0,0,1.58L3,11.16,3,11.21a.18.18,0,0,0-.09.22l.18.44.52,1.3a.17.17,0,0,0,.21.1h0l1.77-.45.1.12a5.31,5.31,0,0,0,1,1L6.16,15.7a.16.16,0,0,0,.09.22l1.42.59.31.13a.2.2,0,0,0,.23-.08l0,0L9.13,15a6,6,0,0,0,1.58,0l.86,1.52,0,.07a.18.18,0,0,0,.23.08l.42-.15L13.56,16a.17.17,0,0,0,.1-.22L13.21,14a5.66,5.66,0,0,0,1.13-1.11h0l1.76.5a.18.18,0,0,0,.22-.1l.38-.88.25-.58.12-.28a.17.17,0,0,0-.08-.22h0l0,0-1.52-.89a6,6,0,0,0,0-1.58L17,8A.16.16,0,0,0,17.14,7.78ZM13.2,10.92l-1.07-.47A2.3,2.3,0,0,1,7.91,8.64L6.83,8.17a3.46,3.46,0,0,1,6.63,1.42A3.54,3.54,0,0,1,13.2,10.92Z"/></svg>