<svg xmlns="http://www.w3.org/2000/svg" viewBox="0 0 19.99 19.12"><title>home-fs</title><polygon points="11.92 3.16 10.01 3.16 11.92 5.07 11.92 3.16" style="opacity:0.4"/><path d="M10.92.38a1.31,1.31,0,0,0-1.85,0L7.24,2.22h5.52Z" style="opacity:0.4"/><polygon points="8.07 3.16 8.07 5.07 9.98 3.16 8.07 3.16" style="opacity:0.4"/><path d="M5.64,8.61V7.51L7.13,6V2.32L.38,9.07a1.31,1.31,0,0,0,0,1.85A1.27,1.27,0,0,0,2,11.07V8.61Z" style="opacity:0.4"/><path d="M14.35,16.51H12.22v.39H7.72v-.39H5.66v-3.4H3l0,4.71a1.3,1.3,0,0,0,1.3,1.3h11.3A1.31,1.31,0,0,0,17,17.81l0-4.7h-2.6Z" style="opacity:0.4"/><path d="M19.61,9.07,12.86,2.32V6l1.47,1.47V8.61H18v2.46a1.27,1.27,0,0,0,.69.23,1.31,1.31,0,0,0,.92-2.23Z" style="opacity:0.4"/><polygon points="17.01 10.16 17.01 9.58 14.39 9.58 14.39 12.17 16.95 12.17 16.95 10.1 17.01 10.16" style="opacity:0.4"/><polygon points="3.04 12.17 5.55 12.17 5.55 9.58 2.94 9.58 2.94 10.21 3.04 10.11 3.04 12.17" style="opacity:0.4"/><path d="M14.33,8.61H13.5v1.83h-3V7.79h2.39V2.32l-.1-.1H7.24l-.11.1V7.79h2.4v2.65h-3V8.61H2v4.5H6.5V11.38h3v1H7.72v4.5h4.5V12.4H10.47v-1h3v1.73H18V8.61ZM5.55,12.17H2.94V9.58H5.55Zm5.73,1.17V16H8.69V13.34ZM8.07,6.85V3.16h3.85V6.85ZM17,12.17H14.39V9.58H17v2.59Z"/></svg>