<svg xmlns="http://www.w3.org/2000/svg" viewBox="0 0 19.99 19.12"><title>home-tc</title><polygon points="13.19 5.96 13.19 6.34 14.33 7.48 14.35 15.94 16.51 15.94 16.51 5.97 16.5 5.96 13.19 5.96" style="opacity:0.4"/><polygon points="6.81 3.79 4.08 6.48 6.66 6.48 6.81 6.34 6.81 3.79" style="opacity:0.4"/><polygon points="11.03 3.23 10.08 3.23 11.03 4.18 11.03 3.23" style="opacity:0.4"/><polygon points="5.77 7.37 3.48 7.37 3.48 13.21 5.65 13.21 5.64 7.51 5.77 7.37" style="opacity:0.4"/><polygon points="7.7 3.23 7.7 5.45 9.92 3.23 7.7 3.23" style="opacity:0.4"/><path d="M2.6,6.85.38,9.08a1.3,1.3,0,0,0,1.85,1.84l.37-.37V6.85Z" style="opacity:0.4"/><path d="M19.61,9.08,17.4,6.86v3.69l.37.37a1.3,1.3,0,0,0,1.84,0A1.3,1.3,0,0,0,19.61,9.08Z" style="opacity:0.4"/><path d="M11.48,2.31h0a.44.44,0,0,1,.43.44V5.06l.31.31.21-.2A.42.42,0,0,1,12.74,5h2.84L10.92.38a1.3,1.3,0,0,0-1.84,0l-2,2a.31.31,0,0,1,.13,0Z" style="opacity:0.4"/><path d="M8.52,16.81h0a.44.44,0,0,1-.4-.3H5.66V14.09H3.05v3.73a1.3,1.3,0,0,0,1.3,1.3h11.3A1.31,1.31,0,0,0,17,17.81v-1H8.52Z" style="opacity:0.4"/><path d="M17,5H12.74a.42.42,0,0,0-.31.13l-.21.2-.31.31V2.75a.44.44,0,0,0-.43-.44H7.25a.31.31,0,0,0-.13,0,.46.46,0,0,0-.18.1L2.73,6.57a.45.45,0,0,0-.13.28v6.8a.43.43,0,0,0,.43.44H8.09v2.28a.68.68,0,0,0,0,.14.44.44,0,0,0,.4.3H17a.45.45,0,0,0,.44-.43h0V5.48A.45.45,0,0,0,17,5ZM12.3,6.52V9.21H9.57ZM6.81,6.34v.14H4.08L6.81,3.79ZM8.06,9.62v3.59H3.48V7.37H7.25a.45.45,0,0,0,.45-.44V3.23H9.92L10,3.15l.08.08H11V6.52L8.19,9.3A.48.48,0,0,0,8.06,9.62Zm8.45,6.32H9V10.1h3.77a.45.45,0,0,0,.45-.44V6h3.32Z"/></svg>