<svg width="22" height="22" viewBox="0 0 22 22" fill="none" xmlns="http://www.w3.org/2000/svg">
<path d="M14.3865 21.8502C14.0082 21.4292 13.7992 20.8829 13.8 20.3169V16.8324C13.7996 15.8846 13.6389 14.9436 13.3247 14.0494C13.2442 13.8152 13.2818 13.5566 13.4256 13.355C13.5693 13.1535 13.8016 13.0337 14.0492 13.0335H15.7167C16.987 13.0335 18.0167 12.0038 18.0167 10.7335V9.54138C17.8908 9.56886 17.7623 9.58299 17.6334 9.58354C17.5047 9.58256 17.3764 9.56973 17.25 9.54521V10.3502C17.25 11.4088 16.3919 12.2669 15.3334 12.2669H12.8724C12.6248 12.2647 12.393 12.1452 12.2475 11.9449C12.1785 11.8452 12.1057 11.7455 12.0827 11.7149C12.0827 11.711 12.0789 11.711 12.0789 11.7072C11.914 11.4992 11.869 11.2205 11.96 10.9712L13.087 7.87004C13.0817 7.8702 13.0764 7.86888 13.0717 7.86621C12.8233 8.16885 12.4676 8.36386 12.0789 8.41054L11.6649 9.54521C11.5736 9.79529 11.3586 9.97976 11.0975 10.032C11.0459 10.043 10.9932 10.0482 10.9404 10.0474C10.7315 10.0473 10.5319 9.96139 10.3884 9.80971C10.1929 9.60654 10.0089 9.41104 9.83636 9.23471C9.5587 9.55138 9.19307 9.77823 8.78603 9.88638C8.88953 10.0167 8.99686 10.1432 9.09653 10.2735C9.26931 10.5075 9.29598 10.8186 9.16553 11.0785C9.03562 11.3382 8.76967 11.5016 8.47936 11.5002H6.0797C5.78939 11.5016 5.52344 11.3382 5.39353 11.0785L5.00636 10.308C4.87268 10.3357 4.73655 10.3499 4.60003 10.3502C4.44457 10.3479 4.29002 10.326 4.14003 10.285L4.81086 11.6305C5.0059 12.0212 5.40538 12.2677 5.84203 12.2669H9.83636C10.139 12.266 10.4138 12.4432 10.5379 12.7192C11.1441 14.0196 11.4719 15.4324 11.5 16.8669C11.4202 18.6011 10.9761 20.299 10.1967 21.8502C-14.8146 21.8502 39.2262 21.8502 14.3865 21.8502Z" fill="white"/>
<path d="M16.9587 5.22864C16.9224 5.33104 16.8444 5.41324 16.744 5.4548C16.6421 5.49444 16.5284 5.49028 16.4297 5.4433C16.327 5.39317 16.2143 5.36696 16.1 5.36664C15.8467 5.36689 15.6098 5.49227 15.4672 5.70163C15.3246 5.91098 15.2945 6.17729 15.387 6.41314C15.4287 6.51434 15.426 6.62843 15.3793 6.72747C15.3289 6.82596 15.2402 6.89941 15.134 6.93064C14.8081 7.01713 14.5769 7.30645 14.5645 7.64345C14.5521 7.98046 14.7613 8.286 15.0801 8.39622C15.3988 8.50645 15.7521 8.39547 15.9505 8.12281C16.0213 8.02145 16.1374 7.96128 16.261 7.96181H16.2917C16.4267 7.97358 16.5459 8.05495 16.606 8.17647C16.7814 8.53429 17.1304 8.77498 17.5272 8.81177C17.924 8.84855 18.3113 8.67611 18.5495 8.35664C18.611 8.2737 18.7029 8.2186 18.805 8.2035C18.9071 8.1884 19.011 8.21453 19.0938 8.27614C19.2246 8.37713 19.3848 8.43235 19.55 8.43331C19.9729 8.43204 20.3154 8.08953 20.3167 7.66664C20.3167 7.45493 20.4883 7.28331 20.7 7.28331C21.1234 7.28331 21.4667 6.94006 21.4667 6.51664C21.4667 6.09322 21.1234 5.74997 20.7 5.74997C20.6082 5.7487 20.517 5.76564 20.4317 5.7998C20.3235 5.84201 20.202 5.8333 20.1009 5.77606C19.9998 5.71883 19.9298 5.61915 19.9103 5.50464C19.7999 4.81512 19.2368 4.28777 18.5415 4.22276C17.8462 4.15775 17.1951 4.57155 16.9587 5.22864ZM19.1207 5.48547C19.1903 5.68436 19.0881 5.90243 18.8907 5.97614C18.7951 6.0113 18.6895 6.00678 18.5973 5.96357C18.5052 5.92036 18.4341 5.84206 18.4 5.74614C18.3701 5.93073 18.2113 6.06681 18.0243 6.06814C18.0038 6.0687 17.9833 6.06742 17.963 6.0643C17.8622 6.04831 17.772 5.99279 17.7123 5.91005C17.6525 5.8273 17.6283 5.72416 17.6448 5.62347C17.7022 5.28037 17.9833 5.01887 18.3297 4.98648C18.676 4.9541 19.0007 5.15895 19.1207 5.48547Z" fill="white"/>
<path d="M1.53339 8.05015C1.7451 8.05015 1.91672 8.22178 1.91672 8.43349C1.91799 8.85638 2.2605 9.19889 2.68339 9.20015C2.84854 9.19903 3.00876 9.14382 3.13956 9.04299C3.20696 8.99243 3.28914 8.96548 3.37339 8.96632C3.39137 8.96554 3.40937 8.96683 3.42706 8.97015C3.5299 8.98437 3.62258 9.0397 3.68389 9.12349C3.89886 9.41366 4.23893 9.58441 4.60006 9.58349C4.74723 9.58292 4.89294 9.5543 5.02939 9.49915C5.03246 9.49622 5.03668 9.49481 5.04089 9.49532C5.29771 9.38984 5.50656 9.19328 5.62739 8.94332C5.68751 8.8218 5.80666 8.74043 5.94172 8.72865C6.0761 8.71719 6.20631 8.77864 6.28289 8.88965C6.42648 9.08666 6.65629 9.20228 6.90006 9.20015C7.10407 9.19873 7.29944 9.11756 7.44439 8.97399C7.63673 8.78066 7.71137 8.49944 7.64022 8.23619C7.56907 7.97293 7.36293 7.7676 7.09939 7.69748C6.99322 7.66626 6.90453 7.59281 6.85406 7.49432C6.80744 7.39527 6.80466 7.28118 6.84639 7.17998C6.93886 6.94413 6.90884 6.67783 6.76621 6.46847C6.62357 6.25912 6.38672 6.13374 6.13339 6.13348C6.01912 6.1338 5.90641 6.16002 5.80372 6.21015C5.70501 6.25713 5.59128 6.26129 5.48939 6.22165C5.38809 6.18144 5.30959 6.09874 5.27472 5.99548C5.03834 5.33839 4.38721 4.92459 3.69193 4.98961C2.99665 5.05462 2.43352 5.58196 2.32306 6.27148C2.30357 6.386 2.2336 6.48568 2.13251 6.54291C2.03142 6.60014 1.90995 6.60886 1.80172 6.56665C1.71645 6.53248 1.62525 6.51555 1.53339 6.51682C1.10997 6.51682 0.766724 6.86006 0.766724 7.28348C0.766724 7.7069 1.10997 8.05015 1.53339 8.05015ZM3.83339 5.75015C4.15481 5.75093 4.44202 5.95105 4.55406 6.25231C4.6237 6.45121 4.52148 6.66928 4.32406 6.74298C4.22852 6.77815 4.12289 6.77362 4.03071 6.73042C3.93853 6.68721 3.86748 6.60891 3.83339 6.51298C3.80347 6.69758 3.64473 6.83365 3.45772 6.83498C3.43721 6.83555 3.41668 6.83427 3.39639 6.83115C3.29561 6.81516 3.20536 6.75964 3.14564 6.67689C3.08592 6.59415 3.06166 6.49101 3.07822 6.39032C3.14099 6.0218 3.45957 5.75173 3.83339 5.75015Z" fill="white"/>
<path d="M6.13332 5.3668C6.98016 5.3668 7.66666 6.0533 7.66666 6.90014C7.66727 6.9669 7.66214 7.03359 7.65132 7.09947C8.00962 7.29753 8.2725 7.63217 8.3801 8.02717C8.48769 8.42216 8.43084 8.8439 8.22249 9.1963C8.2288 9.19796 8.2352 9.19924 8.24166 9.20014C8.93837 9.19855 9.51793 8.66395 9.57566 7.96964C9.59101 7.80452 9.70963 7.66741 9.87082 7.62847C10.138 7.56228 10.3714 7.39986 10.5263 7.1723C10.6036 7.05695 10.7372 6.99239 10.8756 7.00353C11.014 7.01466 11.1355 7.09975 11.1933 7.22597C11.3234 7.50497 11.6083 7.67848 11.9159 7.66591C12.2235 7.65334 12.4933 7.45715 12.6002 7.16847C12.6465 7.04284 12.7546 6.95017 12.8858 6.92361C13.017 6.89705 13.1526 6.94039 13.2442 7.03814C13.3869 7.19413 13.5885 7.28312 13.8 7.28347C13.8192 7.28347 13.8345 7.2758 13.8537 7.2758C13.9587 6.8758 14.2215 6.53552 14.582 6.3328C14.5712 6.26692 14.566 6.20023 14.5667 6.13347C14.5667 5.28663 15.2532 4.60014 16.1 4.60014C16.1978 4.59938 16.2953 4.60837 16.3913 4.62697C16.7998 3.90125 17.5672 3.4516 18.4 3.45014C18.3987 3.02724 18.0562 2.68473 17.6333 2.68347C17.5191 2.68379 17.4063 2.71001 17.3037 2.76014C17.1563 2.83316 16.9787 2.80402 16.8624 2.68771C16.7461 2.5714 16.717 2.39386 16.79 2.24647C16.8401 2.14378 16.8663 2.03107 16.8667 1.9168C16.8654 1.49391 16.5229 1.1514 16.1 1.15014C15.9787 1.15077 15.8593 1.17964 15.7512 1.23447C15.6565 1.27988 15.5479 1.28676 15.4483 1.25364C15.3499 1.22069 15.2695 1.14856 15.226 1.0543C15.0563 0.680462 14.6992 0.426258 14.2904 0.38823C13.8816 0.350202 13.4838 0.534183 13.248 0.870304C13.1789 0.965693 13.0704 1.02484 12.9528 1.0313C12.8359 1.03769 12.7227 0.989561 12.6462 0.90097C12.2853 0.491945 11.7342 0.305449 11.1991 0.411212C10.664 0.516975 10.2253 0.899072 10.0472 1.41464C10.0121 1.51431 9.93708 1.59487 9.84016 1.63697C9.74432 1.68111 9.63425 1.68251 9.53732 1.6408C9.37028 1.56893 9.19017 1.53239 9.00832 1.53347C8.26734 1.53347 7.66666 2.13416 7.66666 2.87514C7.66666 2.9288 7.67049 2.98247 7.67432 3.0323C7.68985 3.14927 7.65019 3.26681 7.56699 3.35047C7.48197 3.43144 7.36552 3.47072 7.24882 3.4578C7.19899 3.45282 7.14532 3.45014 7.09166 3.45014C6.62684 3.44948 6.19489 3.68979 5.95037 4.08509C5.70584 4.48039 5.68369 4.97419 5.89182 5.3898C5.97168 5.37645 6.05238 5.36876 6.13332 5.3668ZM8.73233 2.5493C8.81501 2.35465 9.03972 2.26374 9.23449 2.34614C9.52749 2.46998 9.85862 2.46737 10.1496 2.33892C10.4406 2.21047 10.6657 1.96757 10.7717 1.66764C10.8415 1.46757 11.0603 1.36202 11.2604 1.43189C11.4605 1.50175 11.566 1.72057 11.4962 1.92064C11.3215 2.42122 10.9466 2.82667 10.4612 3.03997C9.97631 3.25569 9.42354 3.25986 8.93549 3.05147C8.74084 2.96878 8.64993 2.74408 8.73233 2.5493Z" fill="white"/>
</svg>
