<svg xmlns="http://www.w3.org/2000/svg" viewBox="0 0 20.97 11.84"><defs><style>.cls-1{fill:#fff;}</style></defs><g id="Layer_2" data-name="Layer 2"><g id="FS"><path class="cls-1" d="M21,11.71,18.21,6.16a.09.09,0,0,0-.1,0l-.63.17a1.52,1.52,0,0,1-1.63-.58L13.58,2.49a.06.06,0,0,0-.06,0h0A2.17,2.17,0,0,1,12,1.56L11,0a.09.09,0,0,0-.14,0L7.36,3.51a1.38,1.38,0,0,1-1.91,0L5,3.12a.09.09,0,0,0-.13,0l-.17.22A29.76,29.76,0,0,0,.9,9.7l-.89,2a.08.08,0,0,0,.08.12H20.88A.09.09,0,0,0,21,11.71ZM3.83,10.38l-.25,1.24a.1.1,0,0,1-.09.07H2.08A.08.08,0,0,1,2,11.57L3.18,8.93a.08.08,0,0,1,.16,0L3.28,10a.28.28,0,0,0,.41.26h0A.09.09,0,0,1,3.83,10.38Zm4.53-.56L6.7,7.17s0,0,0,0l-.58-.4a2.21,2.21,0,0,1-.92-1.52L5,3.46a.09.09,0,0,1,.15-.08L6.3,4.5a.08.08,0,0,1,0,0h0a5.42,5.42,0,0,0,1,2.2L7.53,7l1,2.7A.09.09,0,0,1,8.36,9.82ZM11.14.51l1,1.46a1.31,1.31,0,0,0,.93.58l.24,0a.08.08,0,0,1,.06.13l-.29.45a.11.11,0,0,0,0,.05l.25,2.6a.09.09,0,0,1-.17,0L12.12,3.79h0l-.61-.72a.05.05,0,0,1,0,0L11,.58A.09.09,0,0,1,11.14.51Zm4.5,11.18H13.55a.1.1,0,0,1-.07,0l-.4-.65a.13.13,0,0,1,0-.06l.09-.62a.07.07,0,0,0,0-.07l-2-2.16s0,0,0,0L11,7.34a.17.17,0,0,1,.32-.1l.25.52,0,0,2.84,2.08a.09.09,0,0,1,0,.08l-.07.53a.07.07,0,0,0,0,.08l1.27,1A.09.09,0,0,1,15.64,11.69Zm3.72-.78L18,10.11a4.38,4.38,0,0,1-2-2.86l-.22-1A.11.11,0,0,1,16,6.11h0a1.07,1.07,0,0,0,1.15.4l.7-.19a.09.09,0,0,1,.09.14l-.07.08a2.08,2.08,0,0,0-.43,2h0l0,0,2.06,2.16A.09.09,0,0,1,19.36,10.91Z"/></g></g></svg>