<svg xmlns="http://www.w3.org/2000/svg" viewBox="0 0 27.43 27.43"><path d="M13.3,10.4A5.42,5.42,0,0,0,8.86,11a4.82,4.82,0,0,0-.95.75L2.1,17.59a5.48,5.48,0,1,0,7.75,7.74l5.81-5.81a5.07,5.07,0,0,0,.75-.94,7,7,0,0,1-1.71,0L8.88,24.36a4.1,4.1,0,1,1-5.81-5.8l5.82-5.82a4.14,4.14,0,0,1,4-1,4.33,4.33,0,0,1,1.76,1.05,4.14,4.14,0,0,1,1,1.76,2.9,2.9,0,0,0,1.3-.37A5.36,5.36,0,0,0,13.3,10.4Z"/><path d="M17.59,2.1,11.78,7.91a4.82,4.82,0,0,0-.75.95,6.12,6.12,0,0,1,1.71,0l5.82-5.82a4.11,4.11,0,1,1,5.81,5.81l-5.82,5.81a4.11,4.11,0,0,1-6.84-1.77,2.65,2.65,0,0,0-1.31.38,5.47,5.47,0,0,0,8.18,3.11,5.28,5.28,0,0,0,1-.76l5.81-5.81A5.48,5.48,0,1,0,17.59,2.1Z"/></svg>
