<svg xmlns="http://www.w3.org/2000/svg" viewBox="0 0 20 19.96"><path d="M1.63,10.29a7.55,7.55,0,0,1,.48-2.65L.44,7.06A9.79,9.79,0,0,0,0,10a10.41,10.41,0,0,0,.31,2.45L1.82,12A7.74,7.74,0,0,1,1.63,10.29Z" style="opacity:0.2"/><path d="M16.75,10.29a7.5,7.5,0,0,1-.17,1.58l3,1A9.69,9.69,0,0,0,20,10a10.32,10.32,0,0,0-.31-2.44l-3.17.92A7.4,7.4,0,0,1,16.75,10.29Z" style="opacity:0.7000000000000001"/><path d="M2,12.71l-1.51.44a10,10,0,0,0,3,4.44l1.05-1.32A7.54,7.54,0,0,1,2,12.71Z" style="opacity:0.1"/><path d="M10.38,2.83A7.5,7.5,0,0,1,13.92,4.4l2-2.49A9.91,9.91,0,0,0,10.38,0Z" style="opacity:0.5"/><path d="M16.3,7.75l3.18-.94a10,10,0,0,0-3-4.44l-2,2.53A7.49,7.49,0,0,1,16.3,7.75Z" style="opacity:0.6"/><path d="M16.39,12.59a7.57,7.57,0,0,1-1.88,3.08l1.58,2.23a10,10,0,0,0,3.22-4.29Z" style="opacity:0.8"/><path d="M2.41,7A7.58,7.58,0,0,1,5.2,3.88L3.91,2.07A10,10,0,0,0,.69,6.36Z" style="opacity:0.3"/><path d="M13.94,16.17a7.44,7.44,0,0,1-3.56,1.58V20a10,10,0,0,0,5.11-1.62Z" style="opacity:0.9"/><path d="M5.86,3.51a7.56,7.56,0,0,1,3.33-.78l.44,0V0A9.89,9.89,0,0,0,4.51,1.63Z" style="opacity:0.4"/></svg>
