<svg xmlns="http://www.w3.org/2000/svg" viewBox="0 0 24 19.48"><path d="M23.59,0,17.84,1.63l-3.63-1A5.13,5.13,0,0,0,11.54.12L7.11,1.36l-.78.22-.15,0h0L4.7,1.22.41,0A.33.33,0,0,0,0,.32V17.55a.33.33,0,0,0,.24.31L5.4,19.32a2,2,0,0,0,1.22.08l3-.84c.79-.22,1.63-.39,2.4-.67l.29.08,1.29.36,3.24.91a2.41,2.41,0,0,0,1.31.21c1.89-.49,3.76-1.06,5.63-1.59a.33.33,0,0,0,.24-.31V.32A.33.33,0,0,0,23.59,0ZM18.22,18.75V14.51a.32.32,0,0,0-.64,0v4.27l-.17,0-3.08-.87a19.23,19.23,0,0,0-2-.6V15.6a.33.33,0,0,0-.65,0v1.68c-.4.08-.82.27-1.17.37l-3.27.92c-.23.06-.48.11-.72.18V15.48a.32.32,0,0,0-.64,0v3.28c-1.7-.57-3.47-1-5.2-1.45V.75L4,1.68a14.67,14.67,0,0,0,1.89.54V3.57a.32.32,0,0,0,.64,0V2.2l.14,0L11.06.92l.58-.16v4a.33.33,0,0,0,.65,0v-4l1.17.33,4.12,1.16V4a.32.32,0,0,0,.64,0V2.19L23.36.75V17.31l-4.89,1.37Z"/><polygon points="5.69 9.85 5.34 8.32 7.53 6.48 6.98 5.39 8.11 4.79 7.99 4.31 4.59 4.77 3.12 4.11 2.4 4.98 1.71 5.47 1.58 5.99 2.7 5.9 2.88 8.05 4.8 9.85 4.8 9.85 4.3 10.87 4.88 11.92 5.34 14.14 6.26 14.51 6.63 12.51 7.56 11.57 7.77 10.68 6.83 9.85 5.69 9.85"/><polygon points="10.64 4.87 8.98 4.87 7.9 5.61 8.57 6.98 10.99 5.86 10.64 4.87"/><polygon points="19.59 8.8 20.71 9.77 21.82 7.84 21.21 6.19 22.42 5.39 17.79 4.87 14.93 5.27 13.12 6.06 13.12 6.07 11.43 7.14 11.46 8.22 13.12 7.13 13.12 7.72 11.66 9.17 10.67 10.51 12.16 12.82 12.85 15.48 13.94 16.06 16.06 12.58 15.76 11.34 14.07 9.19 13.1 8.88 14.56 8.58 15.78 10.08 17.77 8.49 18.83 10.51 19.59 8.8"/><polygon points="18.66 13.15 18.73 14.19 19.97 14.19 20.7 15.74 22.27 14.03 21.28 11.86 18.66 13.15"/></svg>
