<svg width="23" height="13" viewBox="0 0 23 13" fill="none" xmlns="http://www.w3.org/2000/svg">
<path d="M0.00443459 12.8587L3.05939 6.78159C3.0756 6.77077 3.09465 6.76499 3.11414 6.76499C3.13363 6.76499 3.15268 6.77077 3.16888 6.78159L3.85871 6.96774C4.1855 7.05592 4.5314 7.04238 4.85028 6.92891C5.16917 6.81544 5.44588 6.60744 5.64351 6.33266L8.12908 2.76307C8.13907 2.7573 8.1504 2.75427 8.16193 2.75427C8.17346 2.75427 8.18479 2.7573 8.19478 2.76307C8.52847 2.72081 8.84938 2.60818 9.1363 2.43263C9.42321 2.25708 9.66959 2.02262 9.85912 1.74475L10.9541 0.0366063C10.9633 0.0251752 10.975 0.0159552 10.9883 0.00962124C11.0015 0.00328733 11.016 0 11.0307 0C11.0454 0 11.0599 0.00328733 11.0732 0.00962124C11.0865 0.0159552 11.0981 0.0251752 11.1074 0.0366063L14.9398 3.87994C15.2211 4.14963 15.5957 4.30021 15.9855 4.30021C16.3752 4.30021 16.7498 4.14963 17.0311 3.87994L17.5239 3.4529C17.5331 3.44329 17.5441 3.43565 17.5564 3.43043C17.5686 3.42521 17.5818 3.42251 17.5951 3.42251C17.6084 3.42251 17.6215 3.42521 17.6337 3.43043C17.646 3.43565 17.657 3.44329 17.6662 3.4529L17.8524 3.69379C19.524 5.83274 20.9218 8.17219 22.0132 10.6578L22.9878 12.8477C22.9962 12.8619 23.0004 12.8782 23 12.8947C22.9995 12.9112 22.9944 12.9272 22.9853 12.941C22.9761 12.9547 22.9633 12.9655 22.9482 12.9723C22.9332 12.979 22.9165 12.9814 22.9002 12.9791H0.135832C0.118536 12.9862 0.0995903 12.9882 0.0811977 12.9849C0.0628071 12.9816 0.0457306 12.9731 0.0319576 12.9605C0.0181866 12.9479 0.00828552 12.9316 0.00341225 12.9136C-0.00146103 12.8955 -0.00110626 12.8765 0.00443459 12.8587ZM18.805 11.4023L19.0787 12.7601C19.0854 12.7814 19.0984 12.8002 19.116 12.8139C19.1336 12.8275 19.155 12.8355 19.1773 12.8368H20.7212C20.7375 12.8391 20.7542 12.8367 20.7692 12.83C20.7843 12.8232 20.7972 12.8123 20.8063 12.7986C20.8155 12.7849 20.8205 12.7688 20.821 12.7523C20.8214 12.7358 20.8172 12.7196 20.8088 12.7054L19.5167 9.81465C19.5167 9.79142 19.5075 9.76914 19.4911 9.75271C19.4746 9.73628 19.4524 9.72705 19.4291 9.72705C19.4059 9.72705 19.3836 9.73628 19.3672 9.75271C19.3508 9.76914 19.3415 9.79142 19.3415 9.81465L19.4072 10.9863C19.4096 11.0401 19.3977 11.0937 19.3727 11.1414C19.3478 11.1892 19.3106 11.2296 19.2651 11.2585C19.2196 11.2874 19.1672 11.3037 19.1134 11.3059C19.0595 11.3081 19.006 11.296 18.9583 11.271C18.9409 11.2506 18.9161 11.2381 18.8894 11.236C18.8627 11.2339 18.8363 11.2426 18.8159 11.26C18.7956 11.2774 18.783 11.3022 18.781 11.3289C18.7789 11.3556 18.7876 11.382 18.805 11.4023ZM13.8448 10.7892L15.6624 7.88751L16.2975 7.44952C16.5715 7.25691 16.8024 7.00953 16.9758 6.72304C17.1492 6.43656 17.2613 6.1172 17.3049 5.78518L17.5239 3.82519C17.527 3.80497 17.5238 3.78427 17.5147 3.76596C17.5056 3.74765 17.4909 3.73264 17.4729 3.72301C17.4548 3.71339 17.4342 3.70961 17.4139 3.71223C17.3936 3.71484 17.3747 3.7237 17.3596 3.73759L16.1004 4.96395C15.9214 5.8391 15.5471 6.66254 15.0055 7.37288L14.7536 7.70137L13.6587 10.6578C13.6412 10.6825 13.6343 10.7131 13.6395 10.7428C13.6446 10.7726 13.6613 10.7991 13.686 10.8165C13.7107 10.834 13.7413 10.8409 13.7711 10.8357C13.8009 10.8306 13.8274 10.8139 13.8448 10.7892ZM10.8008 0.595039L9.70583 2.19369C9.59202 2.3668 9.44207 2.51321 9.26628 2.62285C9.09049 2.73248 8.89304 2.80273 8.68751 2.82877H8.42472C8.40844 2.82926 8.39263 2.83428 8.37905 2.84326C8.36547 2.85224 8.35466 2.86483 8.34784 2.87962C8.34101 2.8944 8.33844 2.91079 8.34042 2.92696C8.3424 2.94312 8.34884 2.95841 8.35902 2.97111L8.67656 3.46385C8.68076 3.48186 8.68076 3.50059 8.67656 3.5186L8.40282 6.36551C8.40955 6.38483 8.42212 6.40159 8.4388 6.41344C8.45548 6.4253 8.47543 6.43166 8.49589 6.43166C8.51635 6.43166 8.53631 6.4253 8.55299 6.41344C8.56966 6.40159 8.58224 6.38483 8.58896 6.36551L9.72773 4.18653L10.3957 3.39815L10.9541 0.671686C10.9532 0.654292 10.9477 0.637453 10.9381 0.622883C10.9286 0.608313 10.9153 0.596533 10.8998 0.588744C10.8842 0.580954 10.8668 0.577433 10.8494 0.578538C10.832 0.579644 10.8153 0.585338 10.8008 0.595039ZM5.87345 12.8368H8.16193C8.18664 12.846 8.21386 12.846 8.23858 12.8368L8.67656 12.125C8.68168 12.1034 8.68168 12.0809 8.67656 12.0593L8.57801 11.3804C8.57129 11.3688 8.56775 11.3556 8.56775 11.3421C8.56775 11.3287 8.57129 11.3155 8.57801 11.3038L10.7679 8.93868L10.9541 8.07365C10.96 8.03006 10.9504 7.98577 10.9268 7.94863C10.9032 7.91149 10.8672 7.88392 10.8252 7.87079C10.7832 7.85767 10.7379 7.85985 10.6974 7.87694C10.6568 7.89403 10.6236 7.92493 10.6037 7.96416L10.33 8.53354L7.22026 10.8111C7.2135 10.8247 7.20999 10.8397 7.20999 10.8549C7.20999 10.8701 7.2135 10.8851 7.22026 10.8987L7.2969 11.479C7.30585 11.4918 7.31065 11.5071 7.31065 11.5228C7.31065 11.5385 7.30585 11.5537 7.2969 11.5666L5.9063 12.6616C5.88822 12.6663 5.87186 12.676 5.85912 12.6897C5.84638 12.7034 5.83779 12.7204 5.83435 12.7387C5.8309 12.7571 5.83275 12.7761 5.83968 12.7934C5.8466 12.8108 5.85831 12.8258 5.87345 12.8368ZM1.80018 11.9827L3.28933 11.1067C3.84949 10.7627 4.33294 10.3072 4.70967 9.76844C5.08639 9.22972 5.34835 8.61931 5.47926 7.97511L5.72016 6.88014C5.74048 6.8482 5.74729 6.80949 5.73907 6.77252C5.73086 6.73556 5.7083 6.70338 5.67636 6.68305C5.64441 6.66272 5.6057 6.65591 5.56874 6.66413C5.53178 6.67234 5.49959 6.6949 5.47926 6.72685C5.33878 6.9192 5.143 7.06416 4.91803 7.14241C4.69306 7.22066 4.44958 7.22848 4.22005 7.16483L3.45358 6.95679C3.43437 6.95328 3.41455 6.95556 3.39664 6.96333C3.37873 6.9711 3.36354 6.98402 3.35298 7.00044C3.34242 7.01687 3.33698 7.03605 3.33735 7.05557C3.33771 7.0751 3.34386 7.09407 3.35503 7.11008L3.43167 7.19768C3.69219 7.49121 3.87243 7.84707 3.95493 8.23076C4.03742 8.61445 4.01936 9.01295 3.90251 9.38761L1.64688 11.7527C1.61639 11.7731 1.59522 11.8047 1.58804 11.8406C1.58085 11.8765 1.58823 11.9139 1.60856 11.9444C1.62889 11.9748 1.6605 11.996 1.69643 12.0032C1.73237 12.0104 1.76969 12.003 1.80018 11.9827Z" fill="white"/>
</svg>
