<svg xmlns="http://www.w3.org/2000/svg" viewBox="0 0 150.95 66.98"><defs><style>.cls-1{fill:none;stroke:#231f20;}.cls-2{fill:#fff;}.cls-3{fill:#e0e0e0;}.cls-4{fill:#b3b3b3;}.cls-5{fill:#7d7d7d;}.cls-6{fill:#362059;}.cls-7{fill:#302b6f;}.cls-8{fill:#b32c26;}.cls-9{fill:#9b1b32;}.cls-10{fill:#e2c328;}.cls-11{fill:#f7ec25;}</style></defs><title>Asset 4</title><g id="Layer_2" data-name="Layer 2"><g id="Layer_2-2" data-name="Layer 2"><path class="cls-1" d="M28.59,28.64a11.89,11.89,0,0,0-8.78-3.75h-.08a11.9,11.9,0,0,0-8.86,3.66,12.74,12.74,0,0,0-3.59,9.32,12.11,12.11,0,0,0,4.52,10,12.41,12.41,0,0,0,8,2.87h.07A11.78,11.78,0,0,0,28.62,47a12.64,12.64,0,0,0,3.62-9.16A12.69,12.69,0,0,0,28.59,28.64Zm0,0a11.89,11.89,0,0,0-8.78-3.75h-.08a11.9,11.9,0,0,0-8.86,3.66,12.74,12.74,0,0,0-3.59,9.32,12.11,12.11,0,0,0,4.52,10,12.41,12.41,0,0,0,8,2.87h.07A11.78,11.78,0,0,0,28.62,47a12.64,12.64,0,0,0,3.62-9.16A12.69,12.69,0,0,0,28.59,28.64Z"/><path class="cls-2" d="M39.46,37.87a19.18,19.18,0,0,1-5.72,14.07,18.86,18.86,0,0,1-13.88,5.75h-.1A1.68,1.68,0,0,1,18.1,56a1.79,1.79,0,0,1,1.69-1.81h.07a15.33,15.33,0,0,0,11.32-4.73,15.93,15.93,0,0,0,4.67-11.62,16,16,0,0,0-4.72-11.69,15.35,15.35,0,0,0-11.34-4.8,1.84,1.84,0,0,0,1.92-1.73,1.82,1.82,0,0,0-1.78-1.81,18.8,18.8,0,0,1,9.26,2.39,20.18,20.18,0,0,1,4.26,3.24l.22.21a19.39,19.39,0,0,1,5.79,14.22Z"/><path class="cls-3" d="M21.71,19.62a1.84,1.84,0,0,1-1.92,1.73h0a15.44,15.44,0,0,0-9.4,3.17,16.37,16.37,0,0,0-5,5.74,16.48,16.48,0,0,0-1.74,7.55,15.87,15.87,0,0,0,5.09,12,15.57,15.57,0,0,0,11.06,4.38A1.79,1.79,0,0,0,18.1,56a1.68,1.68,0,0,0,1.66,1.69A18.82,18.82,0,0,1,5.65,51.78,19.65,19.65,0,0,1,0,37.74a19.72,19.72,0,0,1,1.83-8.45c.24-.53.51-1.05.81-1.57a19.79,19.79,0,0,1,3.3-4.27,20.45,20.45,0,0,1,3.94-3l.32-.17a19.33,19.33,0,0,1,9.61-2.5h.12A1.82,1.82,0,0,1,21.71,19.62Z"/><path class="cls-2" d="M21.71,52.44a1.86,1.86,0,0,1-1.91,1.75h0A15.57,15.57,0,0,1,8.73,49.81a15.87,15.87,0,0,1-5.09-12,16.48,16.48,0,0,1,1.74-7.55,16.37,16.37,0,0,1,5-5.74,15.44,15.44,0,0,1,9.4-3.17,1.81,1.81,0,0,0-1.67,1.83,1.72,1.72,0,0,0,1.71,1.71h-.08a11.9,11.9,0,0,0-8.86,3.66,12.74,12.74,0,0,0-3.59,9.32,12.11,12.11,0,0,0,4.52,10,12.41,12.41,0,0,0,8,2.87A1.86,1.86,0,0,1,21.71,52.44Z"/><path class="cls-4" d="M35.85,37.84a15.93,15.93,0,0,1-4.67,11.62,15.33,15.33,0,0,1-11.32,4.73H19.8a1.75,1.75,0,1,0,0-3.49h.07A11.78,11.78,0,0,0,28.62,47a12.64,12.64,0,0,0,3.62-9.16,12.69,12.69,0,0,0-3.65-9.18,11.89,11.89,0,0,0-8.78-3.75,1.72,1.72,0,0,1-1.71-1.71,1.81,1.81,0,0,1,1.67-1.83h0a15.35,15.35,0,0,1,11.34,4.8A16,16,0,0,1,35.85,37.84Z"/><path class="cls-2" d="M64.08,20.06a2,2,0,0,1-1.72,2,32.77,32.77,0,0,0-5.63-.49H50.47l-3.65-3.64h8.74a49,49,0,0,1,6.8.42l.51.07h0A1.75,1.75,0,0,1,64.08,20.06Z"/><polygon class="cls-4" points="50.36 53.94 50.43 53.94 46.74 57.62 46.61 57.62 46.61 17.91 46.82 17.91 50.47 21.56 50.36 21.56 50.36 53.94"/><path class="cls-3" d="M62.36,57.37c-1.82.17-4,.25-6.66.25h-9l3.69-3.68h4.49c.39,0,2.49,0,2.82,0,1.55,0,2.92-.13,4.1-.27a2,2,0,0,0-1.5,1.94A1.84,1.84,0,0,0,62.36,57.37Z"/><path class="cls-3" d="M78.08,38.32a22.87,22.87,0,0,1-1.52,8.44,17.56,17.56,0,0,1-4.21,6.38,14.88,14.88,0,0,1-5.81,3.51,20.9,20.9,0,0,1-4.18.72,1.84,1.84,0,0,1-2-1.79,2,2,0,0,1,1.5-1.94h0l.49-.07h0a1.2,1.2,0,0,0,.38,0h0a17.77,17.77,0,0,0,2-.42,9.79,9.79,0,0,0,1.59-.59,11.7,11.7,0,0,0,4.25-3.4,15.64,15.64,0,0,0,2.85-6.65A21.48,21.48,0,0,0,74,36a16.91,16.91,0,0,0-2.86-8.3,12.82,12.82,0,0,0-5.24-4.57,15.86,15.86,0,0,0-3.53-1.06,2,2,0,0,0,1.72-2,1.75,1.75,0,0,0-1.2-1.65,18.94,18.94,0,0,1,5.55,1.65,16.82,16.82,0,0,1,6.93,7A22.64,22.64,0,0,1,78.08,38.32Z"/><path class="cls-5" d="M61.86,53.64a1.61,1.61,0,0,1,.49-.07Z"/><path class="cls-3" d="M62.36,53.57l.38,0A1.2,1.2,0,0,1,62.36,53.57Z"/><path class="cls-3" d="M64.1,51.65a2,2,0,0,1-1.33,1.86h0l-.38,0h0a1.61,1.61,0,0,0-.49.07h0c-1.18.14-2.55.23-4.1.27-.33,0-2.43,0-2.82,0H50.43l3.68-3.69h3.51a27.94,27.94,0,0,0,4.74-.34A1.74,1.74,0,0,1,64.1,51.65Z"/><path class="cls-3" d="M62.35,53.57l-.49.07A1.61,1.61,0,0,1,62.35,53.57Z"/><path class="cls-2" d="M73.5,42.45a15.64,15.64,0,0,1-2.85,6.65,11.7,11.7,0,0,1-4.25,3.4,9.79,9.79,0,0,1-1.59.59,17.77,17.77,0,0,1-2,.42,2,2,0,0,0,1.33-1.86,1.74,1.74,0,0,0-1.74-1.74,9.63,9.63,0,0,0,2.78-.85,9,9,0,0,0,3.82-4,14.69,14.69,0,0,0,1.48-6.92q0-6.33-3.53-9.81a10.19,10.19,0,0,0-4.55-2.47,2.42,2.42,0,0,1-1.69-2.11,1.69,1.69,0,0,1,1.69-1.7,15.86,15.86,0,0,1,3.53,1.06,12.82,12.82,0,0,1,5.24,4.57A16.91,16.91,0,0,1,74,36,21.48,21.48,0,0,1,73.5,42.45Z"/><polygon class="cls-2" points="101.17 26.58 106.53 57.64 97.14 57.64 97.14 26.58 101.17 26.58"/><polygon class="cls-4" points="97.14 26.58 97.14 57.64 87.74 57.64 93.11 26.58 97.14 26.58"/><path class="cls-4" d="M122.93,37.89V54.32l-3.78,3.3V37.89a1.89,1.89,0,0,1,3.78,0Z"/><path class="cls-2" d="M126.71,37.89V57.62l-3.78-3.3V37.89a1.89,1.89,0,0,0,3.78,0Z"/><polygon class="cls-3" points="126.71 57.62 119.15 57.62 122.93 54.32 126.71 57.62"/><path class="cls-3" d="M151,37.89V57.62h-7.27l-17-26v6.32a1.89,1.89,0,0,1-3.78,0V24.74h3.62l17,27.12h3.61v-14a1.89,1.89,0,1,0,3.78,0Z"/><path class="cls-2" d="M147.17,37.89v14h-3.61l-17-27.12h-3.62V37.89a1.89,1.89,0,0,0-3.78,0v-20h7.25l17,26.12V37.89a1.89,1.89,0,1,1,3.78,0Z"/><path class="cls-4" d="M147.17,21.13V37.89a1.89,1.89,0,1,0-3.78,0v-20Z"/><path class="cls-2" d="M151,17.92v20a1.89,1.89,0,1,1-3.78,0V21.13Z"/><polygon class="cls-4" points="150.95 17.91 147.17 21.13 143.39 17.91 150.95 17.91"/><line class="cls-5" x1="46.82" y1="17.92" x2="46.72" y2="17.81"/><line class="cls-5" x1="46.74" y1="57.62" x2="46.68" y2="57.69"/><polygon class="cls-2" points="54.11 25.2 54.11 50.25 50.43 53.94 50.36 53.94 50.36 21.56 50.47 21.56 54.11 25.2"/><path class="cls-5" d="M62.87,18.41a1.7,1.7,0,0,0-.51-.07"/><path class="cls-3" d="M62.36,25.87a21.8,21.8,0,0,0-5.69-.66H54.11l-3.64-3.65h6.26a32.77,32.77,0,0,1,5.63.49,1.69,1.69,0,0,0-1.69,1.7A2.42,2.42,0,0,0,62.36,25.87Z"/><polygon class="cls-3" points="97.14 57.64 97.14 66.98 87.74 57.64 97.14 57.64"/><polygon class="cls-4" points="106.53 57.64 97.14 66.98 97.14 57.64 106.53 57.64"/><polygon class="cls-4" points="108.72 20.3 106.12 22.74 88.06 22.74 85.46 20.3 108.72 20.3"/><rect class="cls-3" x="85.46" y="17.86" width="23.26" height="2.44"/><polygon class="cls-4" points="85.46 20.3 85.46 25.68 82.86 25.68 82.86 17.86 85.46 20.3"/><polygon class="cls-2" points="85.46 17.86 85.46 20.3 82.86 17.86 85.46 17.86"/><polygon class="cls-3" points="88.06 22.74 88.06 25.68 85.46 25.68 85.46 20.3 88.06 22.74"/><polygon class="cls-3" points="111.32 17.86 111.32 26 108.72 26 108.72 20.3 111.32 17.86"/><polygon class="cls-4" points="108.72 20.3 108.72 26 106.12 26 106.12 22.74 108.72 20.3"/><polygon class="cls-2" points="111.32 17.86 108.72 20.3 108.72 17.86 111.32 17.86"/><polygon class="cls-2" points="85.46 25.68 85.46 29.58 82.86 25.68 85.46 25.68"/><polygon class="cls-3" points="88.06 25.68 85.46 29.58 85.46 25.68 88.06 25.68"/><polygon class="cls-2" points="111.32 26 108.72 29.91 108.72 26 111.32 26"/><polygon class="cls-4" points="108.72 26 108.72 29.91 106.12 26 108.72 26"/><rect class="cls-2" x="97.1" y="4.42" width="2" height="11.07"/><rect class="cls-4" x="95.09" y="4.42" width="2.01" height="11.07"/><path class="cls-2" d="M99.1,2.28H95a2.06,2.06,0,1,1,4.09,0Z"/><path class="cls-6" d="M15.08,25.76a12.82,12.82,0,0,0-4.41,2.88l4.41,4.42Z"/><path class="cls-7" d="M10.67,28.64a12.86,12.86,0,0,0,4.41,21.07V33.06Z"/><path class="cls-8" d="M24.66,49.62a12.84,12.84,0,0,0,4.19-2.8l-4.19-4.18Z"/><path class="cls-9" d="M32.61,37.73a12.84,12.84,0,0,0-7.95-11.88V42.64l4.19,4.18A12.83,12.83,0,0,0,32.61,37.73Z"/><path class="cls-10" d="M24.66,42.64V25.85a12.87,12.87,0,0,0-9.58-.09v7.3Z"/><path class="cls-11" d="M15.08,33.06V49.71a12.77,12.77,0,0,0,4.68.88,12.9,12.9,0,0,0,4.9-1v-7Z"/></g></g></svg>