<svg xmlns="http://www.w3.org/2000/svg" viewBox="0 0 22.89 22.89"><path d="M3,2A1,1,0,0,0,2,3V7.89a1,1,0,0,0,1,1H8.89V3a1,1,0,0,0-1-1Z"/><path d="M7.89,0H3A3,3,0,0,0,0,3V7.89a3,3,0,0,0,3,3h7.89V3A3,3,0,0,0,7.89,0Zm2,9.89H3a2,2,0,0,1-2-2V3A2,2,0,0,1,3,1H7.89a2,2,0,0,1,2,2Z"/><path d="M19.89,8.89a1,1,0,0,0,1-1V3a1,1,0,0,0-1-1H15a1,1,0,0,0-1,1V8.89Z"/><path d="M19.89,0H15a3,3,0,0,0-3,3v7.89h7.89a3,3,0,0,0,3-3V3A3,3,0,0,0,19.89,0Zm2,7.89a2,2,0,0,1-2,2H13V3a2,2,0,0,1,2-2h4.89a2,2,0,0,1,2,2Z"/><path d="M3,14a1,1,0,0,0-1,1v4.89a1,1,0,0,0,1,1H7.89a1,1,0,0,0,1-1V14Z"/><path d="M3,12a3,3,0,0,0-3,3v4.89a3,3,0,0,0,3,3H7.89a3,3,0,0,0,3-3V12Zm6.89,7.89a2,2,0,0,1-2,2H3a2,2,0,0,1-2-2V15a2,2,0,0,1,2-2H9.89Z"/><path d="M14,19.89a1,1,0,0,0,1,1h4.89a1,1,0,0,0,1-1V15a1,1,0,0,0-1-1H14Z"/><path d="M19.89,12H12v7.89a3,3,0,0,0,3,3h4.89a3,3,0,0,0,3-3V15A3,3,0,0,0,19.89,12Zm2,7.89a2,2,0,0,1-2,2H15a2,2,0,0,1-2-2V13h6.89a2,2,0,0,1,2,2Z"/></svg>
