<svg id="cd260f1a-eb80-4d99-a0fb-509317b8f3fb" xmlns="http://www.w3.org/2000/svg" viewBox="0 0 49.25 53.4"><path d="M54.63,13.51,47.86,20q-6.91-7.3-15.54-7.3A17,17,0,0,0,15.05,29.93a18.19,18.19,0,0,0,2.21,9,15.9,15.9,0,0,0,6.25,6.19,18.17,18.17,0,0,0,9,2.25,18.47,18.47,0,0,0,7.7-1.57,27.59,27.59,0,0,0,7.67-5.73L54.42,47a35.85,35.85,0,0,1-10.65,7.62A29,29,0,0,1,32.33,56.7q-11.85,0-19.4-7.52T5.37,29.91A26.38,26.38,0,0,1,8.81,16.4a25.6,25.6,0,0,1,9.85-9.5A27.77,27.77,0,0,1,32.47,3.3,29.35,29.35,0,0,1,54.63,13.51Z" transform="translate(-5.37 -3.3)"/></svg>
