<svg xmlns="http://www.w3.org/2000/svg" viewBox="0 0 21.88 11.95"><defs><style>.cls-1{fill:#fff;}</style></defs><g id="Layer_2" data-name="Layer 2"><g id="FS"><path class="cls-1" d="M15.08,5.9c0-.06-.07-.08-.12,0a6,6,0,0,0-1.33,1.69c0,.08,0,.17.06.16a2,2,0,0,1,.55,0,4.53,4.53,0,0,1-1.45,1.44.84.84,0,0,1-1.27-.7L11.4,5.14a.51.51,0,0,1,.47-.52l1.36-.08a.81.81,0,0,0,.82.53A.8.8,0,0,0,14,3.47a.79.79,0,0,0-.76.56l-1.55-.1a.36.36,0,0,1-.33-.34l0-.48a1.58,1.58,0,0,0,1.19-1.6A1.6,1.6,0,0,0,11,0a1.58,1.58,0,0,0-.47,3.11v.48a.36.36,0,0,1-.34.34L8.65,4a.8.8,0,1,0,0,.51L10,4.62a.5.5,0,0,1,.46.52l-.11,3.33a.85.85,0,0,1-1.27.7A4.46,4.46,0,0,1,7.63,7.73a2,2,0,0,1,.55,0c.07,0,.1-.08.06-.16A5.78,5.78,0,0,0,6.92,5.86s-.1,0-.12,0A5.74,5.74,0,0,0,6.5,8c0,.09.08.15.13.11a3.1,3.1,0,0,1,.47-.26A4.76,4.76,0,0,0,9.54,11a4.86,4.86,0,0,1,1.39,1h0a5,5,0,0,1,1.38-1,4.74,4.74,0,0,0,2.45-3.09,3,3,0,0,1,.46.26c.06,0,.13,0,.14-.11A6,6,0,0,0,15.08,5.9ZM8,4.93H7.88a.67.67,0,0,1,0-1.33l.14,0a.66.66,0,0,0,0,1.3ZM9.94,1.12a1.11,1.11,0,0,1,1-.64,1.12,1.12,0,0,1,1,.64,1.2,1.2,0,0,1,.1.47,1.1,1.1,0,1,1-2.2,0A1,1,0,0,1,9.94,1.12Zm1,1.94h0v8.65s-.08-.1-.21-.21a4.92,4.92,0,0,0-1.1-.71A3.92,3.92,0,0,1,7.5,8.07,4.93,4.93,0,0,0,9,9.33a1.07,1.07,0,0,0,.52.14,1.11,1.11,0,0,0,.5-.12,1,1,0,0,0,.53-.87L10.63,3h0a1.23,1.23,0,0,1-.94-1.2.37.37,0,0,1,0-.11,1.23,1.23,0,0,0,2.44,0v.11A1.22,1.22,0,0,1,10.94,3.06Zm3.3,4.48H14c-.06,0-.09-.07-.06-.14a5.79,5.79,0,0,1,1-1.33A5.22,5.22,0,0,0,14.24,7.54Z"/><path class="cls-1" d="M21.78,5.55a2.36,2.36,0,0,1-2.26-1.71,2.35,2.35,0,0,1-2.26,1.71.1.1,0,0,1,0-.2A2.15,2.15,0,0,0,19.41,3.2a.11.11,0,0,1,.1-.1h0a.11.11,0,0,1,.1.1,2.15,2.15,0,0,0,2.15,2.15.1.1,0,1,1,0,.2Z"/><path class="cls-1" d="M4.61,5.55A2.36,2.36,0,0,1,2.35,3.84,2.34,2.34,0,0,1,.1,5.55a.1.1,0,1,1,0-.2A2.15,2.15,0,0,0,2.25,3.2a.1.1,0,0,1,.1-.1h0a.1.1,0,0,1,.1.1A2.15,2.15,0,0,0,4.61,5.35a.1.1,0,0,1,0,.2Z"/><path class="cls-1" d="M21,10.23a2.35,2.35,0,0,1-2.26-1.71,2.34,2.34,0,0,1-2.26,1.71.09.09,0,0,1-.09-.1.1.1,0,0,1,.09-.1,2.15,2.15,0,0,0,2.15-2.15.1.1,0,0,1,.1-.09h0a.1.1,0,0,1,.1.09A2.15,2.15,0,0,0,21,10a.11.11,0,0,1,.1.1A.1.1,0,0,1,21,10.23Z"/><path class="cls-1" d="M5.39,10.23A2.33,2.33,0,0,1,3.14,8.52,2.35,2.35,0,0,1,.88,10.23a.09.09,0,0,1-.1-.1.1.1,0,0,1,.1-.1A2.15,2.15,0,0,0,3,7.88a.09.09,0,0,1,.1-.09h0a.09.09,0,0,1,.1.09A2.15,2.15,0,0,0,5.39,10a.1.1,0,0,1,.1.1A.09.09,0,0,1,5.39,10.23Z"/></g></g></svg>