<svg xmlns="http://www.w3.org/2000/svg" viewBox="0 0 21.14 12.14"><defs><style>.cls-1{fill:#fff;}</style></defs><g id="Layer_2" data-name="Layer 2"><g id="Date"><path class="cls-1" d="M10.43,1.68a5.8,5.8,0,0,0-1.11-.11,5.29,5.29,0,1,0,0,10.57,4.91,4.91,0,0,0,.86-.07,5.29,5.29,0,0,0,4.43-5.21,1.48,1.48,0,0,0,0-.21A5.3,5.3,0,0,0,10.43,1.68ZM14,6.76c-.11-.37-.51-.34-.89-.34-.6,0-1.3-.38-1.41-.81s-1.07-.41-1.21-.35.11.83-.77.83-1.05,1-1.08,1-.81,0-.89.1.52.59.5.74-.48,0-.59,0,0,.8.16.84.59-.17.78-.08a1.33,1.33,0,0,1,.46.86c.07.36.34.25.66.33.11,0,1.13.22,1.13.52a3.61,3.61,0,0,1-.06.52h-.1a5.56,5.56,0,0,1-.55-.27.49.49,0,0,0-.22,0s-.36-.28-.41-.3-.12.05-.18.06-.35-.13-.42-.11-.21.25-.21.26a.83.83,0,0,0,.25.12c.05,0,.13.26.14.3a1,1,0,0,0,.31.1,2.15,2.15,0,0,1,.4.15,2.54,2.54,0,0,1,.11.26.36.36,0,0,0,.16.08.23.23,0,0,0,0,.14.14.14,0,0,0,0,.06,5,5,0,0,1-4.36-1.48,1.75,1.75,0,0,1,0-.46c0-.17-.53-.4-.58-.57s.4-.88.48-.91.8-.43.71-.59-.31-.6-.46-.89S5.06,6.52,5,6.51s-.31-.33-.32-.37.21-.51.24-.71.15-.8.3-.73.44.37.63.33-.08-.5,0-.55.34-.81.76-1a3.8,3.8,0,0,1,1.27-.15.37.37,0,0,1,.22.08c.32.22.93.64,1.09.6s.41-.44.72-.59A1.8,1.8,0,0,0,10.49,2a5,5,0,0,1,3.79,4.73C14.12,6.81,14,6.82,14,6.76ZM0,2.65A2.21,2.21,0,0,1,1.64,4.29,2.21,2.21,0,0,1,3.28,2.65,2.21,2.21,0,0,1,1.64,1,2.21,2.21,0,0,1,0,2.65Z"/><path class="cls-1" d="M18.4,3.21,18,2.93l.45-.68a.41.41,0,0,0,0-.45c.58.27,1.11.22,1.21-.05s-.41-.42-.89-.74h0c.05-.08.08-.26,0-.31s-.23,0-.28.12h0c-.48-.31-.92-.63-1-.52s0,.71.44,1.13a.4.4,0,0,0-.42.18L17,2.29,16.58,2l.25-.38L14.35,0l-.71,1.09,2.48,1.63.22-.33.42.27-.64,1,.43.28-.6,0a0,0,0,0,0,0,0l1,.63a0,0,0,0,0,0,0L16.66,4l.44.29.64-1,.42.27-.22.33,2.48,1.63.72-1.08L18.65,2.83Zm-4-3L15.5.91l-.27.41L14.12.59Zm-.57.87.27-.41,1.11.73-.27.41Zm2.26,1.49L15,1.81l.27-.41,1.11.73Zm-.81-1.19.28-.41,1.11.73-.28.41Zm2.4-.87c-.14.14-.11.42.06.71-.32-.33-.42-.69-.26-.84s.2,0,.4.14C17.78.46,17.71.45,17.67.48Zm-.2,3-.12-.08.84-1.25a.51.51,0,0,0,0-.57.51.51,0,0,1,.1.68Zm.65.36.27-.41,1.11.73-.27.41Zm2.26,1.49-1.11-.73.27-.41L20.65,5ZM21,4.5l-.28.41-1.11-.73.28-.41ZM19.8,3.74l-.27.41-1.11-.73L18.69,3Z"/><path class="cls-1" d="M4.82.82A.35.35,0,0,0,5.17.48.35.35,0,0,0,4.82.13a.35.35,0,0,0-.34.35A.34.34,0,0,0,4.82.82Z"/><path class="cls-1" d="M18.09,7.19a.34.34,0,0,0-.34.34.35.35,0,1,0,.69,0A.34.34,0,0,0,18.09,7.19Z"/><path class="cls-1" d="M15.78,9.78a.35.35,0,0,0-.35.35.35.35,0,0,0,.35.34.34.34,0,0,0,.34-.34A.35.35,0,0,0,15.78,9.78Z"/></g></g></svg>