<svg xmlns="http://www.w3.org/2000/svg" viewBox="0 0 39.6 39.41"><polygon points="39.6 14.38 24.47 14.38 19.8 0 15.13 14.38 0 14.38 12.24 23.27 7.56 37.66 19.8 28.77 32.03 37.66 27.36 23.27 39.6 14.38"/><path d="M36.89,18.82c0,.47.08.95.08,1.43A17.07,17.07,0,0,1,32.29,32l.7,2.15a19.12,19.12,0,0,0,6-13.88,19.29,19.29,0,0,0-.23-2.77Z"/><path d="M2.7,18.82.85,17.48a19.29,19.29,0,0,0-.22,2.77,19.08,19.08,0,0,0,6,13.88L7.3,32A17.1,17.1,0,0,1,2.63,20.25C2.63,19.77,2.67,19.29,2.7,18.82Z"/><path d="M19.8,37.41a17.13,17.13,0,0,1-6.65-1.34l-1.84,1.34a19,19,0,0,0,17,0l-1.84-1.34A17.17,17.17,0,0,1,19.8,37.41Z"/><path d="M35,12.38h2.23a19.2,19.2,0,0,0-15-11.12L23,3.39A17.22,17.22,0,0,1,35,12.38Z"/><path d="M16.59,3.39l.7-2.13a19.18,19.18,0,0,0-15,11.12H4.56A17.2,17.2,0,0,1,16.59,3.39Z"/></svg>
