<svg xmlns="http://www.w3.org/2000/svg" viewBox="0 0 26.25 24.83"><path d="M1.14,21.4a1,1,0,0,0,1,1h22a1,1,0,0,0,0-2h-22A1,1,0,0,0,1.14,21.4Z"/><path d="M25.25,22.83H1a1,1,0,0,0,0,2H25.25a1,1,0,0,0,0-2Z"/><path d="M2,7.9H24.21c.55,0,1-.7,1-1.25H1C1,7.2,1.49,7.9,2,7.9Z"/><polygon points="13.13 0 1.14 5.9 25.11 5.9 13.13 0"/><path d="M7.47,9.44V9a.71.71,0,0,0-.71-.71h-4A.71.71,0,0,0,2.09,9v.46a.71.71,0,0,0,.71.71H3v9.06a.82.82,0,0,0,.82.82H5.74a.82.82,0,0,0,.82-.82V10.16h.2A.71.71,0,0,0,7.47,9.44Z"/><path d="M13,9.44V9a.71.71,0,0,0-.71-.71h-4A.71.71,0,0,0,7.66,9v.46a.71.71,0,0,0,.71.71h.19v9.06a.82.82,0,0,0,.83.82H11.3a.81.81,0,0,0,.82-.82V10.16h.2A.71.71,0,0,0,13,9.44Z"/><path d="M18.59,9.44V9a.71.71,0,0,0-.71-.71H13.93a.71.71,0,0,0-.71.71v.46a.71.71,0,0,0,.71.71h.2v9.06A.81.81,0,0,0,15,20h1.91a.82.82,0,0,0,.83-.82V10.16h.19A.71.71,0,0,0,18.59,9.44Z"/><path d="M24.16,9.44V9a.71.71,0,0,0-.71-.71h-4a.71.71,0,0,0-.71.71v.46a.71.71,0,0,0,.71.71h.2v9.06a.82.82,0,0,0,.82.82h1.92a.82.82,0,0,0,.82-.82V10.16h.2A.71.71,0,0,0,24.16,9.44Z"/></svg>
