<svg xmlns="http://www.w3.org/2000/svg" viewBox="0 0 29.33 29.96"><path d="M17.34,9a3,3,0,1,0-4.61,2.57L6.25,30H9.49a5.35,5.35,0,0,1,4.82-2.81A5.34,5.34,0,0,1,19.13,30h3.25L15.89,11.59A3,3,0,0,0,17.34,9Zm-3,7.13,1.25,3.56h-2.5Zm2.13,6.22.62,1.84H11.63l.68-1.84Z"/><path d="M8.92,15.21l1.23-1.59A5.88,5.88,0,0,1,7.75,9,5.91,5.91,0,0,1,10,4.41L8.73,2.86a7.91,7.91,0,0,0-3,6.1A7.93,7.93,0,0,0,8.92,15.21Z"/><path d="M5.21,1.41,3.79,0A12.7,12.7,0,0,0,0,9a12.67,12.67,0,0,0,4.2,9.35l1.36-1.47A10.69,10.69,0,0,1,2,9,10.69,10.69,0,0,1,5.21,1.41Z"/><path d="M20.6,2.86,19.33,4.41A5.91,5.91,0,0,1,21.58,9a5.89,5.89,0,0,1-2.39,4.66l1.22,1.59A7.9,7.9,0,0,0,23.58,9,7.88,7.88,0,0,0,20.6,2.86Z"/><path d="M25.55,0,24.13,1.41A10.72,10.72,0,0,1,27.33,9a10.72,10.72,0,0,1-3.55,7.88l1.36,1.47A12.7,12.7,0,0,0,29.33,9,12.69,12.69,0,0,0,25.55,0Z"/></svg>
