<svg xmlns="http://www.w3.org/2000/svg" viewBox="0 0 38.63 24.89"><path d="M11.75,17.81V17.5c0-.41-1.44-.65-2.44-1.2V14.94a6.13,6.13,0,0,0,2.44-.63s-1.12-.75-.75-6.37A3.73,3.73,0,0,0,7.06,4.13,3.72,3.72,0,0,0,3.13,7.94c.37,5.62-.75,6.37-.75,6.37A6.77,6.77,0,0,0,5.31,15v1.32A3.29,3.29,0,0,1,3.69,17c-1.5.25-3.69.81-3.69,3.69H7.06A4.88,4.88,0,0,1,11.75,17.81Z"/><path d="M34.94,17a3.38,3.38,0,0,1-1.63-.69V15a6.79,6.79,0,0,0,2.94-.68s-1.12-.75-.75-6.37a3.72,3.72,0,0,0-3.94-3.81,3.72,3.72,0,0,0-3.93,3.81c.37,5.62-.75,6.37-.75,6.37a6.11,6.11,0,0,0,2.43.63V16.3c-1,.55-2.43.79-2.43,1.2v.31a4.86,4.86,0,0,1,4.68,2.88h7.07C38.63,17.81,36.44,17.25,34.94,17Z"/><path d="M27.81,19.25c-2.62-.91-5.25-.19-5.25-2.25V15.38c1.38-.82,1.25-3.38,1.25-3.38.88,0,.75-.81,1.19-2.31.33-1.15-.17-1.37-.42-1.41.16-.09.42-.64.42-3.09C25,1.56,22.19,0,19.38,0s-5.63,1.56-5.63,5.19c0,2.45.26,3,.42,3.09-.25,0-.75.26-.42,1.41.44,1.5.31,2.31,1.19,2.31,0,0-.13,2.56,1.25,3.38V17c0,2.06-2.63,1.34-5.25,2.25-2.44.84-3.63,2.69-3.63,5.64H31.44C31.44,21.94,30.25,20.09,27.81,19.25Z"/></svg>
