<svg xmlns="http://www.w3.org/2000/svg" viewBox="0 0 27.58 30.11"><polygon points="14.42 16.36 14.42 21.11 12.92 21.11 12.92 16.36 9.92 16.36 7.67 30.11 12.92 30.11 12.92 22.11 14.42 22.11 14.42 30.11 19.67 30.11 17.42 16.36 14.42 16.36"/><path d="M27.08,10.69c-3.12,0-4.92-2.58-5.75-4.22V4.1h-.87l0,0,0,0H18.75V6.4a8.22,8.22,0,0,1-2.58,1.84L14.92,0H12.5L11.25,8.26a7.8,7.8,0,0,1-2.67-2V4.1H7.23L7.16,4l0,.12H6V6.94C5.09,8.56,3.35,10.69.5,10.69a.5.5,0,0,0-.5.5.5.5,0,0,0,.5.5,6.31,6.31,0,0,0,3.25-.87v1.71H.5v2.58H6v4.42H8.58V15.11H18.75v4.42h2.58V15.11H26.9V12.53H23.42v-2a6.37,6.37,0,0,0,3.66,1.14.5.5,0,0,0,.5-.5A.5.5,0,0,0,27.08,10.69ZM6,12.53H4.75V10.11A9.15,9.15,0,0,0,6,8.78Zm3.92,0H8.58V7.67a8,8,0,0,0,1.34,1Zm2.08,0H10.92V9.2A7.2,7.2,0,0,0,12,9.56ZM13.94.5V.88h-.48l0-.38ZM13.4,2.76l0-.47H14l0,.47Zm.65.5,0,1h-.75l0-1Zm-.61-1.47V1.38H14l0,.41Zm-.12,3h.79l.07,1.84h-.93Zm.76,7.77H13V9.72c.22,0,.43.06.67.06s.27,0,.41,0Zm-.41-3.75c-.18,0-.34,0-.51,0l.07-1.65h1l.06,1.64A5.65,5.65,0,0,1,13.67,8.78Zm2.5,3.75H15.08V9.62a9.16,9.16,0,0,0,1.09-.3Zm2.58,0H17.17V8.91s0,0,0,0a8.38,8.38,0,0,0,1.59-1.09Zm3.67-2.68v2.68H21.33V8.44a9.46,9.46,0,0,0,1.11,1.3A.43.43,0,0,0,22.42,9.85Z"/></svg>
