<svg xmlns="http://www.w3.org/2000/svg" viewBox="0 0 22.73 29"><path d="M5.19,4.79c0-.39,0-.71,0-1v-.6h0L3.72,5.89H5.2Z"/><path d="M17,22.07V1a1,1,0,0,0-1-1H1A1,1,0,0,0,0,1v21a1,1,0,0,0,1,1H15.91A1,1,0,0,0,17,22.07ZM1.41,8.05a.7.7,0,0,0,.28-.12,1.33,1.33,0,0,0,.23-.24c.07-.1.17-.26.31-.51L5.06,2.09H6.38L6.57,7c0,.19,0,.33,0,.44s0,.2.06.28a1.72,1.72,0,0,0,.09.19A.41.41,0,0,0,6.89,8l.18.05L7,8.35H4.64l.07-.3A.61.61,0,0,0,5,8a.45.45,0,0,0,.16-.24,1.58,1.58,0,0,0,0-.43c0-.13,0-.27,0-.41V6.42H3.43l-.06.12-.18.33c0,.1-.1.2-.14.3A2,2,0,0,0,3,7.44a1,1,0,0,0,0,.23c0,.22.13.35.39.38l-.07.3H1.34ZM14.89,20H1.79a.38.38,0,0,1,0-.76h13.1A.38.38,0,0,1,14.89,20Zm0-4.73H1.79a.39.39,0,0,1,0-.77h13.1A.39.39,0,0,1,14.89,15.26Zm0-4.74H1.79a.39.39,0,0,1,0-.77h13.1A.39.39,0,0,1,14.89,10.52Zm0-4.74H8.34a.38.38,0,0,1,0-.76h6.55A.38.38,0,0,1,14.89,5.78Z"/><path d="M19.94,25V4a1,1,0,0,0-1-1h-.64V23.2a1,1,0,0,1-1,1.05H3V25a1,1,0,0,0,1,1H18.9A1,1,0,0,0,19.94,25Z"/><path d="M21.68,5.89h-.63V26.12A1,1,0,0,1,20,27.17H5.78V28a1,1,0,0,0,1,1H21.68a1,1,0,0,0,1.05-1v-21A1,1,0,0,0,21.68,5.89Z"/></svg>
