<svg xmlns="http://www.w3.org/2000/svg" viewBox="0 0 30.77 29.15"><path d="M30.55,17,21.21,4A1,1,0,0,0,19.54,4L18,6.4l-4.41-6a1,1,0,0,0-1.67,0L.2,17A1,1,0,0,0,1,18.65h28.7A1,1,0,0,0,30.55,17Zm-7.72-6.65c-.75.5-1.87-.62-1.87-.62a16,16,0,0,1-2.56,1.43c-.68.19-3.64-3.87-4.69-3.5-.35.13-.38.82-1.13.82-.59,0-2.1-1.39-2.72-2a.41.41,0,0,1,0-.56l2.56-3.31a.28.28,0,0,1,.43,0l4.83,5.16a.51.51,0,0,0,.75,0c.62-.7,1.85-2,2.13-2S23.58,9.84,22.83,10.34Z"/><path d="M27,21.76a1,1,0,0,0-1.35.36s-.42.53-1.85.53a3.37,3.37,0,0,1-1.76-.5A5.92,5.92,0,0,0,19,21.34a4.8,4.8,0,0,0-2.95.88,1.9,1.9,0,0,1-1.25.43,2.78,2.78,0,0,1-1.51-.47,5.85,5.85,0,0,0-3.1-.84,6.4,6.4,0,0,0-3.35.92,2.36,2.36,0,0,1-1.09.39,2.37,2.37,0,0,1-1.58-.92A1,1,0,0,0,2.54,23a4.36,4.36,0,0,0,3.17,1.7,4.13,4.13,0,0,0,2-.63,4.48,4.48,0,0,1,2.41-.68,3.93,3.93,0,0,1,2.15.6,4.67,4.67,0,0,0,2.46.71,3.84,3.84,0,0,0,2.34-.75A2.83,2.83,0,0,1,19,23.34a4,4,0,0,1,2.13.58,5.27,5.27,0,0,0,2.68.73c2.64,0,3.47-1.35,3.56-1.5A1,1,0,0,0,27,21.76Z"/><path d="M19.46,25.83a6,6,0,0,0-3.14.84,3.14,3.14,0,0,1-1.56.48,1.77,1.77,0,0,1-1.2-.42,4.51,4.51,0,0,0-2.91-.9c-2.94,0-3.95,1.63-4.06,1.82A1,1,0,0,0,6.94,29a1,1,0,0,0,1.37-.31s.58-.84,2.34-.84a2.59,2.59,0,0,1,1.79.55,3.69,3.69,0,0,0,2.32.77,4.9,4.9,0,0,0,2.48-.71,4.15,4.15,0,0,1,2.22-.61c1.25,0,1.77.42,1.85.59a1,1,0,0,0,1,.73,1.45,1.45,0,0,0,.28,0,1,1,0,0,0,.68-1.24C23.17,27.66,22.56,25.83,19.46,25.83Z"/></svg>
