<svg xmlns="http://www.w3.org/2000/svg" viewBox="0 0 30 30.19"><path d="M30,18.69V0H0V18.69H3.9a3.62,3.62,0,0,0,.57,1,2.88,2.88,0,0,0,0,3.81,3.09,3.09,0,0,0-.72,1.91c0,2.62,3.81,4.75,8.5,4.75s8.5-2.13,8.5-4.75A3.09,3.09,0,0,0,20,23.53a2.88,2.88,0,0,0,0-3.81,3.62,3.62,0,0,0,.57-1ZM2,2H28V16.69H20.5a3.06,3.06,0,0,0-.41-.69h4.16a2.94,2.94,0,0,1,2.94-2.94V5.5a2.91,2.91,0,0,1-2.91-2.69H17c1.6,1.16,2.71,3.66,2.71,6.57a9.49,9.49,0,0,1-1.39,5.11,12.43,12.43,0,0,0-6.05-1.43c-.43,0-.84,0-1.25.06a10.25,10.25,0,0,1-.69-3.74C10.31,6.47,11.42,4,13,2.81H5.72A2.91,2.91,0,0,1,2.81,5.5v7.56a2.93,2.93,0,0,1,2.72,1.85A4.55,4.55,0,0,0,4,16.69H2ZM21.5,9.38a1.38,1.38,0,1,1,1.38,1.37A1.38,1.38,0,0,1,21.5,9.38Zm-15.75,0a1.38,1.38,0,1,1,1.38,1.37A1.38,1.38,0,0,1,5.75,9.38Zm6.5,18.81c-3.91,0-6.5-1.66-6.5-2.75A1.08,1.08,0,0,1,6,24.83a12.31,12.31,0,0,0,6.27,1.55,12.31,12.31,0,0,0,6.27-1.55,1.08,1.08,0,0,1,.23.61C18.75,26.53,16.16,28.19,12.25,28.19Zm6.27-6a4.48,4.48,0,0,1-1.83,1.29,11.12,11.12,0,0,1-4.44.85,11.12,11.12,0,0,1-4.44-.85A4.48,4.48,0,0,1,6,22.24.94.94,0,0,1,6,21a9.27,9.27,0,0,0,1.22.62,13.42,13.42,0,0,0,5.05.93,13.42,13.42,0,0,0,5.05-.93A9.27,9.27,0,0,0,18.52,21a.94.94,0,0,1,0,1.23Zm-1.83-2.52a11.14,11.14,0,0,1-4.44.84,11.14,11.14,0,0,1-4.44-.84,5.08,5.08,0,0,1-1.6-1L6,18.42a1.08,1.08,0,0,1-.23-.61,1.61,1.61,0,0,1,.72-1.12A5.36,5.36,0,0,1,7.6,16a10.88,10.88,0,0,1,4.52-.93h.13A9.47,9.47,0,0,1,18,16.69a1.61,1.61,0,0,1,.72,1.12,1.08,1.08,0,0,1-.23.61l-.23.27A5.08,5.08,0,0,1,16.69,19.72Z"/></svg>
