<svg xmlns="http://www.w3.org/2000/svg" viewBox="0 0 24.49 21.54"><path d="M24.05,6.39H22.84V2.74a.3.3,0,0,0-.21-.28,12.17,12.17,0,0,0-8.06,1.45,10.65,10.65,0,0,0-2,1.43c-.07.07-.14.12-.19.18A17.47,17.47,0,0,0,5.05,0,.29.29,0,0,0,4.68.3v2a13.87,13.87,0,0,0-2.95.14.3.3,0,0,0-.21.28V6.39H.45A.45.45,0,0,0,0,6.84V19.53A.45.45,0,0,0,.45,20H9.67a.57.57,0,0,1,.58.57s0,1,2.13,1c1.59,0,1.67-1,1.67-1a.57.57,0,0,1,.58-.57h9.42a.45.45,0,0,0,.44-.45V6.84A.45.45,0,0,0,24.05,6.39ZM2.1,17.13V3A13.08,13.08,0,0,1,4.68,2.9V14.39a.31.31,0,0,0,.21.28A14.71,14.71,0,0,1,7.6,16.05a17.41,17.41,0,0,1,2.49,1.87c.33.3.66.62,1,.95A11.81,11.81,0,0,0,2.1,17.13Zm10,1.17v.87a11.81,11.81,0,0,0-1.32-1.42,18.5,18.5,0,0,0-2.63-2,15.85,15.85,0,0,0-2.88-1.52V.73A16.79,16.79,0,0,1,12.08,6c0,.13,0,.25,0,.35ZM12.67,6s0,0,0,0Zm9.59.36V17.13a11.62,11.62,0,0,0-9.59,2.23v-13a1.13,1.13,0,0,0,0-.26v0A3,3,0,0,0,13,5.73a11.34,11.34,0,0,1,1.83-1.32A11.51,11.51,0,0,1,22.26,3Z"/></svg>
