<svg xmlns="http://www.w3.org/2000/svg" viewBox="0 0 24.61 11.76"><defs><style>.cls-1{fill:#fff;}</style></defs><g id="Layer_2" data-name="Layer 2"><g id="WEG_Vol._1" data-name="WEG Vol. 1"><path class="cls-1" d="M24.51,1.69c-1.23-.18-1.8-.68-1.8-1.57A.12.12,0,0,0,22.6,0h0a.12.12,0,0,0-.12.12c0,1.18-.94,1.66-3.26,1.66S15.92,1.3,15.92.12A.12.12,0,0,0,15.81,0h0a.12.12,0,0,0-.12.12c0,1.16-.92,1.65-3.17,1.66V.91L12.22.46a.08.08,0,0,0-.15,0V1.78C10,1.73,9.13,1.24,9.13.12A.12.12,0,0,0,9,0H9a.12.12,0,0,0-.12.12c0,1.18-.95,1.66-3.26,1.66S2.32,1.3,2.32.12A.12.12,0,0,0,2.21,0h0a.12.12,0,0,0-.12.12c0,.8-.45,1.28-1.42,1.5-.16,0-.34.07-.54.1a.1.1,0,0,0-.1.13A.11.11,0,0,0,.13,2l.57-.1A1.84,1.84,0,0,0,2.19.76C2.6,1.85,4.11,2,5.59,2h0A7.64,7.64,0,0,0,7.69,1.8,1.81,1.81,0,0,0,9,.78C9.38,1.78,10.71,2,12.07,2V3.53A10.33,10.33,0,0,0,11,3.13a.87.87,0,0,0-.86.18.54.54,0,0,0-.17.43L10,6A16.3,16.3,0,0,0,6,6.05a5.77,5.77,0,0,0-2.06.79,2.22,2.22,0,0,0-.84,2.55c.29.81,1,1.7,2.9,1.81a99.26,99.26,0,0,0,11.13.07,6.32,6.32,0,0,0,2.64-.77v1.12l.28.14V10.29a3.83,3.83,0,0,0,.59-.61h1.15s0-.28.07-.28H20.6a5,5,0,0,0-.6-.63V7.17l-.28.21V8.54a7.35,7.35,0,0,0-2.57-1.3,33.5,33.5,0,0,0-3.83-.84L13.26,4l-.77-.34V2c1.45,0,2.91-.19,3.3-1.26C16.2,1.85,17.71,2,19.19,2s3-.17,3.39-1.26c.24.63.86,1,1.89,1.17a.12.12,0,1,0,0-.24ZM10.19,3.53c.12-.17.68-.39,1.53.14,0,0-.87-.12-1.09.12a3.36,3.36,0,0,0-.39,1.61A6.23,6.23,0,0,1,10.19,3.53ZM9.67,7.62a.58.58,0,0,1,.57.57.57.57,0,0,1-1.14,0A.58.58,0,0,1,9.67,7.62Zm-3,0a.58.58,0,0,1,.57.57.57.57,0,0,1-1.14,0A.58.58,0,0,1,6.67,7.62Zm10.64,0c.21.06.7.26.9.35a5.15,5.15,0,0,1,1.61,1.19S17.12,7.77,16,7.29C16.18,7.34,16.5,7.36,17.31,7.58Zm-.12,3.34s-2.55.11-5.34.1c-1.85,0-4.17-.11-5.54-.19A3.37,3.37,0,0,1,3.69,9.69a2.54,2.54,0,0,1-.38-.83A36.22,36.22,0,0,0,17.19,10.92Zm-4.52-3.3a.58.58,0,0,1,.57.57.57.57,0,0,1-1.14,0A.58.58,0,0,1,12.67,7.62Z"/><path class="cls-1" d="M17.68,4.21a0,0,0,1,0,0,.08,0,0,0,0,0,0-.08A0,0,0,0,0,17.68,4.21Z"/><path class="cls-1" d="M19.92,3.89l-.58.23a.91.91,0,0,0-.43-.31A.5.5,0,0,1,19,3.59a.19.19,0,0,1,.07-.06,0,0,0,0,0,0-.08h-.56a.48.48,0,0,0-.35.14.39.39,0,0,0-.12.19,1.89,1.89,0,0,0-.77.6,1,1,0,0,0,.58.54.57.57,0,0,0,.19-.57s0,0,0,0A.54.54,0,0,0,18,4.21s0,0,0,0A.55.55,0,0,1,18,5l.09,0,.79.28L18.82,5a.89.89,0,0,0,.54-.37l.56.22-.3-.46Zm-2.21.53a.13.13,0,1,1,0-.26.13.13,0,1,1,0,.26Z"/></g></g></svg>