<svg xmlns="http://www.w3.org/2000/svg" viewBox="0 0 20.08 11.78"><defs><style>.cls-1{fill:#fff;}</style></defs><g id="Layer_2" data-name="Layer 2"><g id="WEG_Vol._1" data-name="WEG Vol. 1"><path class="cls-1" d="M17.4,2.49A2.56,2.56,0,0,1,15,1.23a2.57,2.57,0,0,1-2.46,1.26A2.56,2.56,0,0,1,10,1.23,2.56,2.56,0,0,1,7.59,2.49,2.57,2.57,0,0,1,5.13,1.23,2.56,2.56,0,0,1,2.68,2.49C1.05,2.49,0,1.6,0,.23A.23.23,0,0,1,.23,0,.23.23,0,0,1,.46.23C.46,1.55,1.61,2,2.68,2S4.89,1.55,4.89.23A.23.23,0,0,1,5.12,0h0a.23.23,0,0,1,.23.23C5.37,1.55,6.52,2,7.59,2S9.8,1.55,9.8.23A.23.23,0,0,1,10,0h0a.23.23,0,0,1,.23.23C10.28,1.55,11.42,2,12.49,2s2.22-.47,2.22-1.79A.23.23,0,0,1,14.94,0h0a.23.23,0,0,1,.23.23C15.19,1.55,16.33,2,17.4,2s2.21-.47,2.21-1.79a.24.24,0,0,1,.47,0C20.08,1.6,19,2.49,17.4,2.49Z"/><path class="cls-1" d="M17.4,7.13A2.57,2.57,0,0,1,15,5.88a2.58,2.58,0,0,1-2.46,1.25A2.57,2.57,0,0,1,10,5.88,2.57,2.57,0,0,1,7.59,7.13,2.58,2.58,0,0,1,5.13,5.88,2.57,2.57,0,0,1,2.68,7.13C1.05,7.13,0,6.25,0,4.88a.23.23,0,0,1,.23-.23.23.23,0,0,1,.23.23c0,1.32,1.15,1.79,2.22,1.79S4.89,6.2,4.89,4.88a.23.23,0,0,1,.23-.23h0a.23.23,0,0,1,.23.23c0,1.32,1.15,1.79,2.22,1.79S9.8,6.2,9.8,4.88A.23.23,0,0,1,10,4.65h0a.23.23,0,0,1,.23.23c0,1.32,1.14,1.79,2.21,1.79s2.22-.47,2.22-1.79a.23.23,0,0,1,.23-.23h0a.23.23,0,0,1,.23.23c0,1.32,1.14,1.79,2.21,1.79s2.21-.47,2.21-1.79a.24.24,0,0,1,.47,0C20.08,6.25,19,7.13,17.4,7.13Z"/><path class="cls-1" d="M17.4,11.78A2.57,2.57,0,0,1,15,10.53a2.58,2.58,0,0,1-2.46,1.25A2.57,2.57,0,0,1,10,10.53a2.57,2.57,0,0,1-2.45,1.25,2.58,2.58,0,0,1-2.46-1.25,2.57,2.57,0,0,1-2.45,1.25C1.05,11.78,0,10.89,0,9.53a.23.23,0,0,1,.23-.24.23.23,0,0,1,.23.24c0,1.31,1.15,1.78,2.22,1.78s2.21-.47,2.21-1.78a.23.23,0,0,1,.23-.24h0a.23.23,0,0,1,.23.24c0,1.31,1.15,1.78,2.22,1.78S9.8,10.84,9.8,9.53A.23.23,0,0,1,10,9.29h0a.23.23,0,0,1,.23.24c0,1.31,1.14,1.78,2.21,1.78s2.22-.47,2.22-1.78a.23.23,0,0,1,.23-.24h0a.23.23,0,0,1,.23.24c0,1.31,1.14,1.78,2.21,1.78s2.21-.47,2.21-1.78a.24.24,0,1,1,.47,0C20.08,10.89,19,11.78,17.4,11.78Z"/></g></g></svg>