<svg xmlns="http://www.w3.org/2000/svg" viewBox="0 0 40.39 40.39"><path d="M30,10.44a4.5,4.5,0,0,1,0-6.35L26.66.8a2.75,2.75,0,0,0-3.88,0l-22,22a2.75,2.75,0,0,0,0,3.88L4.09,30a4.49,4.49,0,0,1,6.35,6.35l3.29,3.29a2.76,2.76,0,0,0,3.89,0l22-22a2.76,2.76,0,0,0,0-3.89L36.3,10.44A4.48,4.48,0,0,1,30,10.44Zm2,5a2.74,2.74,0,0,1,0,3.89L19.36,32a2.74,2.74,0,0,1-3.89,0L8.4,24.92A2.75,2.75,0,0,1,8.4,21L21,8.4a2.75,2.75,0,0,1,3.88,0Z"/><rect x="11.14" y="15.07" width="18.12" height="10.25" rx="0.12" ry="0.12" transform="translate(-8.37 20.2) rotate(-45)"/></svg>
