<svg xmlns="http://www.w3.org/2000/svg" viewBox="0 0 850.78 810.81"><path d="M845.58,326a17.13,17.13,0,0,0-9.49-29.21l-264.27-38.4a17.13,17.13,0,0,1-12.9-9.37L440.75,9.55a17.13,17.13,0,0,0-30.72,0L291.85,249a17.13,17.13,0,0,1-12.9,9.37L14.68,296.78A17.13,17.13,0,0,0,5.19,326L196.42,512.4a17.13,17.13,0,0,1,4.93,15.16L156.2,790.75A17.13,17.13,0,0,0,181,808.81L417.42,684.54a17.13,17.13,0,0,1,15.94,0L669.73,808.81a17.13,17.13,0,0,0,24.85-18.05l-45.14-263.2a17.13,17.13,0,0,1,4.93-15.16ZM529.44,566.77a99.23,99.23,0,0,1-26.78,35.14,119.08,119.08,0,0,1-40.36,21.68,170.36,170.36,0,0,1-97.44.65A118.93,118.93,0,0,1,325.29,604,99.31,99.31,0,0,1,298,570.56q-10.19-20-10.19-46.37h62.43a59.09,59.09,0,0,0,4.44,23.12,50.13,50.13,0,0,0,12.67,18A59.09,59.09,0,0,0,387.07,577a75.27,75.27,0,0,0,25.86,4.18q29.78,0,46.89-15.8t17.11-45.85q0-16.46-5-28.34a50.13,50.13,0,0,0-14.24-19.59,59.65,59.65,0,0,0-22.33-11.36,109.63,109.63,0,0,0-29.52-3.66H368.52V407.42h37.36q16.46,0,28.74-4.31A55,55,0,0,0,455,391a50,50,0,0,0,12.15-18.68,67.84,67.84,0,0,0,4-23.9q0-27.69-14.5-42.71t-43.76-15a71.28,71.28,0,0,0-23.64,3.79,55.76,55.76,0,0,0-18.81,10.84,49.19,49.19,0,0,0-12.41,17,54.42,54.42,0,0,0-4.44,22.47H291.19a96,96,0,0,1,9-41.54,100,100,0,0,1,25.08-33,118.75,118.75,0,0,1,38.27-21.94q22.2-8,48.59-8,26.9,0,49.37,6.92t38.4,20.51a92.68,92.68,0,0,1,24.82,33.83q8.88,20.25,8.88,46.89a82.68,82.68,0,0,1-3.4,23A88.66,88.66,0,0,1,519.9,394.1a98.26,98.26,0,0,1-17.5,20.51,96.63,96.63,0,0,1-24.95,16.07q17.24,6,29,15.41a84.91,84.91,0,0,1,19.07,21A81.74,81.74,0,0,1,536,492.06a118.23,118.23,0,0,1,3.13,27.17Q539.1,545.88,529.44,566.77Z"/></svg>
