<svg xmlns="http://www.w3.org/2000/svg" viewBox="0 0 19.59 18.63"><title>tier3</title><g style="opacity:0.35000000000000003"><polygon points="9.8 0 12.82 6.13 19.59 7.12 14.7 11.89 15.85 18.64 9.8 15.45 3.74 18.64 4.9 11.89 0 7.12 6.77 6.13 9.8 0"/></g><path d="M5.42,16l1-1.62A3.37,3.37,0,0,0,9,15.48c2,0,2.92-1,2.92-2.86a2.79,2.79,0,0,0-.85-2.12,3.11,3.11,0,0,0-2.26-.82H8.68V8h.1c1.78,0,2.67-.79,2.67-2.36A2.2,2.2,0,0,0,8.93,3.16a2.75,2.75,0,0,0-2.17.91L5.82,2.64A3.86,3.86,0,0,1,9.09,1.37a4.88,4.88,0,0,1,3.29,1.08,3.46,3.46,0,0,1,1.28,2.76A3.8,3.8,0,0,1,13,7.48a3.56,3.56,0,0,1-1.67,1.33,4.21,4.21,0,0,1,2.11,1.46,4.08,4.08,0,0,1,.78,2.51,4.16,4.16,0,0,1-1.35,3.32A5.67,5.67,0,0,1,9,17.27a5.45,5.45,0,0,1-2-.39A4.79,4.79,0,0,1,5.42,16Z"/></svg>