<svg xmlns="http://www.w3.org/2000/svg" viewBox="0 0 850.78 810.81"><path d="M845.58,326a17.13,17.13,0,0,0-9.49-29.21l-264.27-38.4a17.13,17.13,0,0,1-12.9-9.37L440.75,9.55a17.13,17.13,0,0,0-30.72,0L291.85,249a17.13,17.13,0,0,1-12.9,9.37L14.68,296.78A17.13,17.13,0,0,0,5.19,326L196.42,512.4a17.13,17.13,0,0,1,4.93,15.16L156.2,790.75A17.13,17.13,0,0,0,181,808.81L417.42,684.54a17.13,17.13,0,0,1,15.94,0L669.73,808.81a17.13,17.13,0,0,0,24.85-18.05l-45.14-263.2a17.13,17.13,0,0,1,4.93-15.16ZM558.13,541.17H510.32v84.64H447.89V541.17H282.79l-1.57-37.88L445.8,245.46h64.52V490.76h47.81Z"/><polygon points="345.49 490.75 447.89 490.75 447.89 328.79 441.1 341.07 345.49 490.75"/></svg>
