<svg xmlns="http://www.w3.org/2000/svg" viewBox="0 0 20 18.71"><path d="M15.33,12.05,20,7.16,14.24,6.07A3.75,3.75,0,0,0,13.19,4a4.24,4.24,0,0,0-1.56-1L10,0,8.42,2.81a3.81,3.81,0,0,0-.64.24,3.81,3.81,0,0,0-1.59,1.3A5,5,0,0,0,5.47,6.1L0,7.15,4.67,12l-.86,6.67,5.68-2.62H10a3.32,3.32,0,0,0,.54,0l5.69,2.63ZM7.07,5A2.88,2.88,0,0,1,8.22,4a4,4,0,0,1,1.63-.34,3.3,3.3,0,0,1,2.52,1,2.65,2.65,0,0,1,.81,1.84,2.62,2.62,0,0,1-1.59,2.33,2.61,2.61,0,0,1,2.09,2.65A3.34,3.34,0,0,1,12.59,14a3.69,3.69,0,0,1-2.66,1,3.67,3.67,0,0,1-2.47-.88,3.43,3.43,0,0,1-1.15-2.27l2.06-.25a1.93,1.93,0,0,0,.54,1.2,1.5,1.5,0,0,0,2.11,0l0,0a1.92,1.92,0,0,0,.44-1.32,1.79,1.79,0,0,0-.43-1.27A1.39,1.39,0,0,0,10,9.68a3.65,3.65,0,0,0-1,.16l.24-1.73h.09a1.78,1.78,0,0,0,1.22-.38,1.32,1.32,0,0,0,.46-1.05,1.14,1.14,0,0,0-1-1.24.54.54,0,0,0-.18,0,1.26,1.26,0,0,0-.93.38,1.77,1.77,0,0,0-.47,1.09l-2-.34A4.58,4.58,0,0,1,7.07,5Z"/></svg>
