<svg xmlns="http://www.w3.org/2000/svg" viewBox="0 0 850.78 810.81"><path d="M845.58,326a17.13,17.13,0,0,0-9.49-29.21l-264.27-38.4a17.13,17.13,0,0,1-12.9-9.37L440.75,9.55a17.13,17.13,0,0,0-30.72,0L291.85,249a17.13,17.13,0,0,1-12.9,9.37L14.68,296.78A17.13,17.13,0,0,0,5.19,326L196.42,512.4a17.13,17.13,0,0,1,4.93,15.16L156.2,790.75A17.13,17.13,0,0,0,181,808.81L417.42,684.54a17.13,17.13,0,0,1,15.94,0L669.73,808.81a17.13,17.13,0,0,0,24.85-18.05l-45.14-263.2a17.13,17.13,0,0,1,4.93-15.16ZM470.49,625.81h-63V322.52l-97.18,35.53V303.19l156.21-57.73h3.92Z"/></svg>
