<svg xmlns="http://www.w3.org/2000/svg" viewBox="0 0 19.59 18.63"><title>tier2</title><g style="opacity:0.35000000000000003"><polygon points="9.8 0 12.82 6.13 19.59 7.12 14.7 11.89 15.85 18.64 9.8 15.45 3.74 18.64 4.9 11.89 0 7.12 6.77 6.13 9.8 0"/></g><path d="M5.12,17.16v-.42l4.82-7.4A7.68,7.68,0,0,0,11.46,5.4c0-1.42-.8-2.14-2.41-2.14a3,3,0,0,0-1.6.45A2.71,2.71,0,0,0,6.37,4.84L5,3.73a3.07,3.07,0,0,1,1.4-1.65,5,5,0,0,1,2.53-.61,5.39,5.39,0,0,1,3.48,1,3.54,3.54,0,0,1,1.25,2.9A9,9,0,0,1,12,9.78L8.54,15.27h6v1.89Z"/></svg>