<svg xmlns="http://www.w3.org/2000/svg" viewBox="0 0 850.78 810.81"><path d="M845.58,326a17.13,17.13,0,0,0-9.49-29.21l-264.27-38.4a17.13,17.13,0,0,1-12.9-9.37L440.75,9.55a17.13,17.13,0,0,0-30.72,0L291.85,249a17.13,17.13,0,0,1-12.9,9.37L14.68,296.78A17.13,17.13,0,0,0,5.19,326L196.42,512.4a17.13,17.13,0,0,1,4.93,15.16L156.2,790.75A17.13,17.13,0,0,0,181,808.81L417.42,684.54a17.13,17.13,0,0,1,15.94,0L669.73,808.81a17.13,17.13,0,0,0,24.85-18.05l-45.14-263.2a17.13,17.13,0,0,1,4.93-15.16ZM548.89,625.81H293.41v-43.1L417.23,447.65q15.67-17.5,26.25-31A192.63,192.63,0,0,0,460.34,392a93.65,93.65,0,0,0,8.88-20.9,74.85,74.85,0,0,0,2.61-19.59,70.06,70.06,0,0,0-4-24.16,55.39,55.39,0,0,0-11.49-19.07,51.76,51.76,0,0,0-18-12.41,60.54,60.54,0,0,0-23.64-4.44q-34,0-50,18.55t-16.07,51.2h-62.7a122.85,122.85,0,0,1,9-46.89,112.94,112.94,0,0,1,25.86-38.53q16.85-16.46,40.88-26t54.08-9.54q28.21,0,50.16,8.1t37.09,22.6a95.5,95.5,0,0,1,23,34.35,117.82,117.82,0,0,1,7.84,43.63A104.24,104.24,0,0,1,528,383.26a166.25,166.25,0,0,1-15.93,33,273.17,273.17,0,0,1-24.29,33q-14.11,16.59-30.56,34.09L371,575.92h177.9Z"/></svg>
