<svg xmlns="http://www.w3.org/2000/svg" viewBox="0 0 20 18.71"><path d="M16.18,18.71l-.85-6.66L20,7.16l-5.24-1a3.9,3.9,0,0,0-1.23-2.28,4.11,4.11,0,0,0-1.93-1L10,0,8.31,3a4.54,4.54,0,0,0-1.24.68A4.11,4.11,0,0,0,5.61,6.08L0,7.15,4.67,12l-.86,6.67L9.66,16h.67ZM7.72,4.57a3.91,3.91,0,0,1,2.49-.76,3.59,3.59,0,0,1,2.58.88,2.93,2.93,0,0,1,.94,2.21,3.85,3.85,0,0,1-.27,1.42,5.69,5.69,0,0,1-.85,1.42,13.22,13.22,0,0,1-1.39,1.41c-.67.62-1.09,1-1.28,1.23a3.56,3.56,0,0,0-.43.59h4.22v2H6.28A5.19,5.19,0,0,1,7,12.82a14.1,14.1,0,0,1,2.4-2.66,15.85,15.85,0,0,0,1.76-1.81,2.35,2.35,0,0,0,.43-1.3A1.46,1.46,0,0,0,11.21,6a1.41,1.41,0,0,0-1.05-.39A1.39,1.39,0,0,0,9.1,6a2,2,0,0,0-.45,1.33L6.53,7.07A3.42,3.42,0,0,1,7.72,4.55Z"/></svg>
