<svg xmlns="http://www.w3.org/2000/svg" xmlns:xlink="http://www.w3.org/1999/xlink" width="101" height="101" viewBox="0 0 101 101">
  <defs>
    <filter id="Ellipse_3" x="0" y="0" width="101" height="101" filterUnits="userSpaceOnUse">
      <feOffset dx="3" dy="3" input="SourceAlpha"/>
      <feGaussianBlur stdDeviation="2.5" result="blur"/>
      <feFlood flood-opacity="0.451"/>
      <feComposite operator="in" in2="blur"/>
      <feComposite in="SourceGraphic"/>
    </filter>
  </defs>
  <g id="toggle" transform="translate(4.5 4.5)">
    <g id="hover_circles" data-name="hover circles" transform="translate(-101 -709)">
      <g transform="matrix(1, 0, 0, 1, 96.5, 704.5)" filter="url(#Ellipse_3)">
        <g id="Ellipse_3-2" data-name="Ellipse 3" transform="translate(4.5 4.5)" fill="#fff" stroke="#e6ba08" stroke-width="2" opacity="0.75">
          <circle cx="43" cy="43" r="43" stroke="none"/>
          <circle cx="43" cy="43" r="42" fill="none"/>
        </g>
      </g>
      <g id="Ellipse_4" data-name="Ellipse 4" transform="translate(109 717)" fill="#fff" stroke="#e6ba08" stroke-width="2">
        <circle cx="35" cy="35" r="35" stroke="none"/>
        <circle cx="35" cy="35" r="34" fill="none"/>
      </g>
    </g>
    <g id="bigger_squares" data-name="bigger squares" transform="translate(-49 -969)">
      <path id="Rectangle_1_copy_3" data-name="Rectangle 1 copy 3" d="M5,0H15a0,0,0,0,1,0,0V10a5,5,0,0,1-5,5H5a5,5,0,0,1-5-5V5A5,5,0,0,1,5,0Z" transform="translate(75 1015)" fill="#e6ba08"/>
      <path id="Rectangle_1_copy_2" data-name="Rectangle 1 copy 2" d="M0,0H10a5,5,0,0,1,5,5v5a5,5,0,0,1-5,5H5a5,5,0,0,1-5-5V0A0,0,0,0,1,0,0Z" transform="translate(95 1015)" fill="#e6ba08"/>
      <path id="Rectangle_1_copy" data-name="Rectangle 1 copy" d="M5,0h5a5,5,0,0,1,5,5v5a5,5,0,0,1-5,5H0a0,0,0,0,1,0,0V5A5,5,0,0,1,5,0Z" transform="translate(95 995)" fill="#e6ba08"/>
      <path id="Rectangle_1" data-name="Rectangle 1" d="M5,0h5a5,5,0,0,1,5,5V15a0,0,0,0,1,0,0H5a5,5,0,0,1-5-5V5A5,5,0,0,1,5,0Z" transform="translate(75 995)" fill="#e6ba08"/>
    </g>
  </g>
</svg>
