<svg xmlns="http://www.w3.org/2000/svg" viewBox="0 0 20 18.73"><path d="M19.68,6.41l-8.89,6.46a.92.92,0,0,1-.74.14L3.2,11.21a1.57,1.57,0,0,1,.79-3H4l6,1.69a.9.9,0,0,0,.78-.14L19.92,3A.21.21,0,0,0,20,2.87a.65.65,0,0,0-.49-.63L10.62,0a.62.62,0,0,0-.54.11L1.17,6.68a3.45,3.45,0,0,0-.26,4.61h0c.19.11.33.42,0,.5s-2.11,2.75.45,4.1l9.07,2.81a.65.65,0,0,0,.6-.12l8.73-7.14A.63.63,0,0,0,20,11v-.42a.2.2,0,0,0-.2-.2.17.17,0,0,0-.12,0l-8.89,6.81a.88.88,0,0,1-.74.13L3.2,15.51a1.57,1.57,0,0,1,.79-3H4l6,1.7a.93.93,0,0,0,.78-.14l9.11-6.72A.19.19,0,0,0,20,7.17v-.6a.2.2,0,0,0-.2-.2A.15.15,0,0,0,19.68,6.41ZM8.93,2.06l.94-.74a.44.44,0,0,1,.37-.08L16,2.68a.44.44,0,0,1,.31.53.47.47,0,0,1-.15.24l-.94.73a.44.44,0,0,1-.37.08L9.09,2.83a.44.44,0,0,1-.31-.54A.39.39,0,0,1,8.93,2.06Z"/></svg>
