<svg width="23" height="17" viewBox="0 0 23 17" fill="none" xmlns="http://www.w3.org/2000/svg">
<path d="M21.7174 9.86425V8.90005H18.5754V7.14486H17.5645V5.7397L15.543 5.03677V1.17169H14.8691V5.03677L12.8477 5.7397V7.14486H11.8367V4.44523L8.46795 0.46875L5.09881 4.44523V7.11683L0.71875 8.15973V16.2812H19.2492V11.3499C19.2492 11.163 19.3703 11.0103 19.5184 11.0103H19.6531C19.8012 11.0103 19.923 11.1634 19.923 11.3499V16.2812H20.934V11.3499C20.934 11.163 21.0551 11.0103 21.2031 11.0103H21.3379C21.486 11.0103 21.6078 11.1634 21.6078 11.3499V16.2812H22.2812V9.86425H21.7174ZM3.91934 14.5243C3.91934 14.7169 3.76733 14.8757 3.58225 14.8757H2.57169C2.38589 14.8757 2.23459 14.7172 2.23459 14.5243V13.8213C2.23459 13.628 2.38589 13.4699 2.57169 13.4699H3.58261C3.76769 13.4699 3.9197 13.6276 3.9197 13.8213V14.5243H3.91934ZM3.91934 11.7132C3.91934 11.9059 3.76733 12.0647 3.58225 12.0647H2.57169C2.38589 12.0647 2.23459 11.9062 2.23459 11.7132V11.0103C2.23459 10.817 2.38589 10.6588 2.57169 10.6588H3.58261C3.76769 10.6588 3.9197 10.8166 3.9197 11.0103V11.7132H3.91934ZM10.8262 14.5243C10.8262 14.7169 10.6742 14.8757 10.4891 14.8757H6.44611C6.26031 14.8757 6.10902 14.7172 6.10902 14.5243V13.8213C6.10902 13.628 6.26031 13.4699 6.44611 13.4699H10.4891C10.6742 13.4699 10.8262 13.6276 10.8262 13.8213V14.5243ZM10.8262 11.7132C10.8262 11.9059 10.6742 12.0647 10.4891 12.0647H6.44611C6.26031 12.0647 6.10902 11.9062 6.10902 11.7132V11.0103C6.10902 10.817 6.26031 10.6588 6.44611 10.6588H10.4891C10.6742 10.6588 10.8262 10.8166 10.8262 11.0103V11.7132ZM10.8262 8.9022C10.8262 9.09483 10.6742 9.25367 10.4891 9.25367H6.44611C6.26031 9.25367 6.10902 9.09519 6.10902 8.9022V8.19927C6.10902 8.00592 6.26031 7.8478 6.44611 7.8478H10.4891C10.6742 7.8478 10.8262 8.00556 10.8262 8.19927V8.9022ZM10.8262 6.09117C10.8262 6.2838 10.6742 6.44264 10.4891 6.44264H6.44611C6.26031 6.44264 6.10902 6.28416 6.10902 6.09117V5.38823C6.10902 5.19489 6.26031 5.03677 6.44611 5.03677H10.4891C10.6742 5.03677 10.8262 5.19453 10.8262 5.38823V6.09117ZM14.7006 15.2272C14.7006 15.4198 14.5486 15.5783 14.3635 15.5783H13.3526C13.1668 15.5783 13.0155 15.4202 13.0155 15.2272V14.5243C13.0155 14.3309 13.1668 14.1728 13.3526 14.1728H14.3635C14.5486 14.1728 14.7006 14.3306 14.7006 14.5243V15.2272ZM14.7006 9.60514C14.7006 9.79777 14.5486 9.95625 14.3635 9.95625H13.3526C13.1668 9.95625 13.0155 9.79813 13.0155 9.60514V8.9022C13.0155 8.70886 13.1668 8.55073 13.3526 8.55073H14.3635C14.5486 8.55073 14.7006 8.7085 14.7006 8.9022V9.60514ZM17.3959 15.2272C17.3959 15.4198 17.2439 15.5783 17.0588 15.5783H16.0479C15.8621 15.5783 15.7108 15.4202 15.7108 15.2272V14.5243C15.7108 14.3309 15.8621 14.1728 16.0479 14.1728H17.0588C17.2439 14.1728 17.3959 14.3306 17.3959 14.5243V15.2272ZM17.3959 12.4162C17.3959 12.6088 17.2439 12.7673 17.0588 12.7673H16.0479C15.8621 12.7673 15.7108 12.6092 15.7108 12.4162V11.7132C15.7108 11.5199 15.8621 11.3618 16.0479 11.3618H17.0588C17.2439 11.3618 17.3959 11.5195 17.3959 11.7132V12.4162Z" fill="white"/>
</svg>
