<?xml version="1.0" encoding="utf-8"?>
<!-- Generator: Adobe Illustrator 23.0.3, SVG Export Plug-In . SVG Version: 6.00 Build 0)  -->
<svg version="1.1" id="Layer_1" xmlns="http://www.w3.org/2000/svg" xmlns:xlink="http://www.w3.org/1999/xlink" x="0px" y="0px"
	 viewBox="0 0 146.8 120.8" style="enable-background:new 0 0 146.8 120.8;" xml:space="preserve">
<path d="M125.4,35.3c0.9,3.3,1.2,6.7,1,10.1c-1-1.6-2.4-3-3.9-4.2l-0.9,1.8c0.6,0.4,1.1,0.9,1.5,1.5c0.6,0.7,1.2,1.4,1.7,2.1l3,4.2
	l0.7-5.1c0-0.2,0.5-4.2-1-10.8c-0.2-0.7-0.3-1.5-0.6-2.3c0,0,0,0,0,0l0,0c-0.6-2.3-1.4-4.6-2.4-6.8l0,0.1c-1.7-4.1-3.7-8-6.1-11.8
	c3.1,1.8,6.1,3.9,8.8,6.1l0.9-1.8c1.4,1.1,2.8,2.3,4.1,3.6l8.4-16.7l6.3-1.1V0h-38.6v4l2.5,1.2L73.4,78L36.1,5.2L38.6,4V0H0v4
	l6.3,1.2l8.4,16.7C8.5,27.8,3.1,35.6,2.3,45.1l-0.2,5.6c0,0.1,0,0.1,0.1,0.1c0.1,0,0.1,0,0.1-0.1c0.6-1.3,2.4-4.8,6-5.3
	c0,0-3.3,16.8,0.1,29.1c0,0,2.5-5.6,3.9-4.2c1.3,1.4,0.1,18.2,8,23.9c0,0,1.5-4.3,3.8-4.3c0,0,4.5,13.1,16.6,17.8
	c0,0-0.6-2.9,2.1-3.5c5.5,3.7,11.4,6.7,17.6,9l4,7.9h18l4-7.9l0,0c6.2-2.3,12.1-5.2,17.6-8.9c2.8,0.6,2.1,3.5,2.1,3.5
	c12.1-4.7,16.6-17.8,16.6-17.8c2.2,0,3.8,4.4,3.8,4.4c7.9-5.6,6.6-22.5,8-23.9s3.9,4.2,3.9,4.2c3.4-12.2,0.1-29.1,0.1-29.1
	c3.5,0.6,5.4,4,6,5.3c0,0.1,0,0.1,0.1,0.1c0.1,0,0.1,0,0.1-0.1l-0.2-5.7c-0.7-9.5-6.1-17.3-12.3-23.2l0,0l-0.1,0
	c-1.3-1.3-2.7-2.5-4.1-3.6l-0.9,1.8c0,0,0,0,0,0l0,0c1.2,1,2.4,2.1,3.6,3.2c0.1,0.1,0.3,0.3,0.4,0.4c0,0,0,0,0,0
	c6.8,6.6,10.6,13.7,11.2,21.2c-1.1-0.8-2.3-1.3-3.7-1.6l-2.8-0.4l0.6,2.8c0,0.1,2.4,12.5,0.9,23.4c-0.6-0.7-1.5-1.2-2.4-1.2
	c-0.7,0-1.4,0.3-1.9,0.8c-0.9,0.9-1.1,2.4-1.4,5.7c-0.5,4.6-1.3,12.1-4.6,16.3c-1-1.6-0.9-3-3.8-4.2l-1.5-0.3l-1,2.9
	c0,0.1-3.8,10.6-13.1,15.5c-0.1-0.2-0.2-0.3-0.3-0.5c-0.7-1-1.8-1.8-3-2l-0.8-0.2l-0.7,0.5c-3.9,2.6-8.1,4.9-12.4,6.8
	c-0.9,0.4-1.8,0.7-2.7,1l-0.7,1.4l0.7-1.4l1.2-2.4l13-26l0,0c0.6-0.1,1.4-0.3,2.5-0.6c3.6-1.1,8.5-4,12.4-11.4
	c0.1,0.3,0.3,0.5,0.5,0.8l0.6,0.6h1.8l0.6-0.8c1.1-1.3,3-13.8,1.7-22c-0.2-1.1-0.5-2.2-1-3.3c-0.1-0.2-0.2-0.4-0.3-0.6l-0.2,0.5
	l-0.8,1.7c2.3,8.5-0.9,24.3-0.9,22.5c-0.1-1.5-0.8-2.9-1.9-3.9c-4.2,10.2-10,13.4-13.8,14.3l-1,1.8l0.9-1.8l16.5-32.9l0.8-1.7
	l0.2-0.5l0.7-1.4l0.9-1.8L125.4,35.3 M21.4,35.4l3,5.9c-1.5,1.2-2.9,2.6-3.9,4.2C20.2,42,20.6,38.6,21.4,35.4z M43.6,79.5
	c-3.8-0.9-9.6-4.1-13.8-14.3c-1.1,1-1.7,2.4-1.9,3.9c0,1.3-1.7-6.5-1.7-14.1c0-3,0.2-5.9,0.8-8.3l0,0c0,0,0,0,0,0l0,0L43.6,79.5z
	 M56.3,109.2c-4.3-1.9-8.5-4.2-12.4-6.8l-0.7-0.5l-0.8,0.2c-1.2,0.2-2.3,1-3,2c-0.1,0.2-0.2,0.3-0.3,0.5c-9.4-5-13.1-15.4-13.2-15.5
	L25.2,87c-1.3,0-2.6,0.5-3.6,1.4c-0.8,0.7-1.4,1.5-1.9,2.5c-3.3-4.2-4.1-11.7-4.6-16.3c-0.3-3.3-0.5-4.8-1.4-5.7
	c-0.5-0.5-1.2-0.8-1.9-0.8c-0.9,0-1.8,0.5-2.4,1.2C7.9,58.3,10.3,46,10.3,45.8l0.6-2.8L8,43.4c-1.3,0.2-2.6,0.8-3.6,1.6
	C5,37.5,8.8,30.4,15.6,23.8l0.4-0.4c1.2-1.1,2.4-2.2,3.6-3.2c2.8-2.3,5.7-4.3,8.9-6.2c-2.4,3.7-4.4,7.7-6.1,11.7l0,0
	c-0.9,2.2-1.7,4.5-2.4,6.8c-0.2,0.8-0.4,1.6-0.6,2.3c-1.5,6.6-1,10.6-1,10.8l0.7,5.1l3-4.2c0.5-0.7,1.1-1.4,1.7-2.1
	c0.4-0.5,1-1,1.5-1.5l0.7,1.4l0.1,0.2L26,44.4L25.7,45c-0.5,1-0.8,2.1-1,3.3c-1.3,8.2,0.6,20.7,1.7,22.1l0.6,0.8h1.8l0.6-0.6
	c0.2-0.2,0.4-0.5,0.5-0.8c3.9,7.3,8.8,10.2,12.4,11.3c1.1,0.3,2,0.5,2.5,0.6l13,26l1.3,2.4C58.1,109.9,57.2,109.6,56.3,109.2z"/>
</svg>
