<?xml version="1.0" encoding="utf-8"?>
<!-- Generator: Adobe Illustrator 23.0.3, SVG Export Plug-In . SVG Version: 6.00 Build 0)  -->
<svg version="1.1" id="Layer_1" xmlns="http://www.w3.org/2000/svg" xmlns:xlink="http://www.w3.org/1999/xlink" x="0px" y="0px"
	 viewBox="0 0 146.8 120.8" style="enable-background:new 0 0 146.8 120.8;" xml:space="preserve">
<path d="M140.6,5.1l6.2-1.1V0h-38.6v4l2.5,1.2L73.4,78L36.1,5.2L38.6,4V0H0v4l6.3,1.2l8.4,16.7c0,0,0,0,0,0
	C8.5,27.8,3.1,35.6,2.3,45.1l-0.2,5.6c0,0.1,0,0.1,0.1,0.1c0.1,0,0.1,0,0.1-0.1c0.6-1.3,2.4-4.8,6-5.3c0,0-3.3,16.8,0.1,29.1
	c0,0,2.5-5.6,3.9-4.2c1.3,1.4,0.1,18.2,8,23.9c0,0,1.5-4.3,3.8-4.3c0,0,4.5,13.1,16.6,17.8c0,0-0.6-2.9,2.1-3.5
	c5.5,3.7,11.4,6.7,17.6,9l4,7.9h18l4-7.9l0,0c6.2-2.3,12.1-5.2,17.6-8.9c2.8,0.6,2.1,3.5,2.1,3.5c12.1-4.7,16.6-17.8,16.6-17.8
	c2.2,0,3.8,4.4,3.8,4.4c7.9-5.6,6.6-22.5,8-23.9s3.9,4.2,3.9,4.2c3.4-12.2,0.1-29.1,0.1-29.1c3.5,0.6,5.4,4,6,5.3
	c0,0.1,0,0.1,0.1,0.1c0.1,0,0.1,0,0.1-0.1l-0.2-5.7c-0.7-9.5-6.1-17.3-12.3-23.2l0-0.1L140.6,5.1z M134.5,5.2L128,18.3
	c-1-0.8-2.1-1.6-3.2-2.4c-3.3-2.4-6.8-4.5-10.4-6.3l2.2-4.4H134.5z M103.1,79.5l16.5-32.9 M119.8,46.6c2.3,8.5-0.9,24.3-0.9,22.5
	c-0.1-1.5-0.8-2.9-1.9-3.9c-4.2,10.2-10,13.4-13.8,14.3 M122.4,41.3l3-5.9l0,0c0.8,3.3,1.2,6.7,0.9,10
	C125.3,43.8,123.9,42.4,122.4,41.3 M27.1,46.6l16.5,33c-1.7-0.4-3.7-1.2-5.8-2.9c-2.7-2.2-5.6-5.7-7.9-11.4c0,0,0,0,0,0
	c0,0,0-0.1,0-0.1c-1.1,1-1.7,2.4-1.9,3.9C27.9,70.8,24.7,55.1,27.1,46.6 M20.5,45.4c-0.2-3.4,0.1-6.8,0.9-10.1l3,5.9
	C22.8,42.4,21.5,43.8,20.5,45.4z M30.2,5.2l2.2,4.5c0,0,0,0,0,0c-1.6,0.8-3.1,1.7-4.6,2.5c-3.1,1.8-6.1,3.8-9,6.1l0,0c0,0,0,0,0,0
	L12.3,5.2H30.2z M79.4,117.8h-12L23.6,28.2c2.4-6.1,5.5-11.9,9.4-17.2L73.4,92l40.4-81.1c3.9,5.3,7.1,11.1,9.5,17.2L79.4,117.8z"/>
</svg>
