<svg xmlns="http://www.w3.org/2000/svg" viewBox="0 0 20 10.8"><path d="M20,5.45h-.14V5.13h-.28v.32h-.17L14.91,5H12.7V4.82h4V3.36H15.07l-.37-.69L14.62.12h-.07V3.36L14,2.91H13l-.12-.37L12.84,0h0V2.91h-.35V2.46l-.4-.64H10.64l-.22-.37V1.33l.17-.12h.34v.31h.24V1.16L11.3,1V.73H6.7V.92H8.12l.07.22h1.2v.18H9.8v.14h.38v.13l-.52.28v.4L10.12,2l.06.1h0l-.59.46v.58l-1.7.32V3l-.11-.23H6.69L6.56,3v.55H6.38v.12H3.76L2.5,3.83h-1v-.1H1.09v.08L0,3.69v.69l1.06-.1h.47V4.21h.91l1.06.18H6.24v.1H7.43l.77.14v.22H6.78L2.67,7.12l.94,1.7a1.11,1.11,0,0,0,0,.19A1.79,1.79,0,1,0,7.16,9s0-.1,0-.15h4.23c0,.05,0,.1,0,.15a1.78,1.78,0,0,0,3.54.32H16A1.79,1.79,0,0,0,19.51,9a1.84,1.84,0,0,0-.09-.53H20Z"/></svg>
