<svg xmlns="http://www.w3.org/2000/svg" viewBox="0 0 23.45 23.72"><path d="M23.19,20.16l-4-4a10.47,10.47,0,0,0-4.13-15A10.3,10.3,0,0,0,6.37.78a10.51,10.51,0,1,0,8.29,19.31,11.88,11.88,0,0,0,1.23-.63l4,4a.88.88,0,0,0,1.24,0l2.06-2.07A.86.86,0,0,0,23.19,20.16ZM10.27,18.65a8.17,8.17,0,1,1,8.17-8.17A8.17,8.17,0,0,1,10.27,18.65Z"/><polygon points="11.02 6.08 13.96 6.08 11.06 8.98 11.77 9.69 14.67 6.79 14.67 9.73 15.67 9.73 15.67 5.08 11.02 5.08 11.02 6.08"/><polygon points="4.87 9.73 5.87 9.73 5.87 6.79 8.77 9.69 9.48 8.98 6.58 6.08 9.52 6.08 9.52 5.08 4.87 5.08 4.87 9.73"/><polygon points="14.67 14.17 11.77 11.27 11.06 11.97 13.96 14.88 11.02 14.88 11.02 15.88 15.67 15.88 15.67 11.23 14.67 11.23 14.67 14.17"/><polygon points="9.48 11.97 8.77 11.27 5.87 14.17 5.87 11.23 4.87 11.23 4.87 15.88 9.52 15.88 9.52 14.88 6.58 14.88 9.48 11.97"/></svg>
