<svg xmlns="http://www.w3.org/2000/svg" xmlns:xlink="http://www.w3.org/1999/xlink" width="151.692" height="76.304" viewBox="0 0 151.692 76.304">
  <defs>
    <filter id="JMRC" x="0" y="0" width="151.692" height="76.304" filterUnits="userSpaceOnUse">
      <feOffset dx="1" dy="2" input="SourceAlpha"/>
      <feGaussianBlur stdDeviation="1.5" result="blur"/>
      <feFlood flood-opacity="0.851"/>
      <feComposite operator="in" in2="blur"/>
      <feComposite in="SourceGraphic"/>
    </filter>
  </defs>
  <g transform="matrix(1, 0, 0, 1, 0, 0)" filter="url(#JMRC)">
    <path id="JMRC-2" data-name="JMRC" d="M20.355,85a42.5,42.5,0,0,0,4.982.188c7.8,0,14.852-3.384,14.852-16.544V19.2H29.849V69.4c0,5.076-2.632,6.3-5.922,6.3-1.128,0-2.444,0-3.572-.094ZM60.587,19.2H46.2V85h9.024V38.47L62.937,85h9.776l7.144-47.188V85h9.776V19.2H75.251L68.2,65.918ZM128.361,85c-1.034-2.444-1.128-4.794-1.128-7.99V66.858c0-6.862-1.692-11.844-6.862-14.006,4.606-2.162,6.768-6.58,6.768-13.348v-5.17c0-10.152-4.606-15.134-15.322-15.134h-15.6V85h10.34V58.21h3.572c4.7,0,6.768,2.256,6.768,8.366v10.34c0,5.358.376,6.392.94,8.084ZM111.535,28.6c3.666,0,5.264,2.068,5.264,6.768v6.486c0,5.264-2.35,6.956-6.2,6.956h-4.042V28.6Zm41.736,31.866v9.4c0,4.7-2.068,6.392-5.358,6.392s-5.358-1.692-5.358-6.392V34.334c0-4.7,2.068-6.486,5.358-6.486s5.358,1.786,5.358,6.486v7.05h9.776V34.992c0-10.528-5.264-16.544-15.416-16.544s-15.416,6.016-15.416,16.544V69.208c0,10.528,5.264,16.544,15.416,16.544s15.416-6.016,15.416-16.544V60.466Z" transform="translate(-16.85 -15.95)" fill="#fff"/>
  </g>
</svg>
