<svg xmlns="http://www.w3.org/2000/svg" xmlns:xlink="http://www.w3.org/1999/xlink" width="151.692" height="76.304" viewBox="0 0 151.692 76.304">
  <defs>
    <filter id="JRTC" x="0" y="0" width="134.302" height="76.304" filterUnits="userSpaceOnUse">
      <feOffset dx="1" dy="2" input="SourceAlpha"/>
      <feGaussianBlur stdDeviation="1.5" result="blur"/>
      <feFlood flood-opacity="0.851"/>
      <feComposite operator="in" in2="blur"/>
      <feComposite in="SourceGraphic"/>
    </filter>
  </defs>
  <g transform="matrix(1, 0, 0, 1, 0, 0)" filter="url(#JRTC)">
    <path id="JRTC-2" data-name="JRTC" d="M29.05,85a42.5,42.5,0,0,0,4.982.188c7.8,0,14.852-3.384,14.852-16.544V19.2H38.544V69.4c0,5.076-2.632,6.3-5.922,6.3-1.128,0-2.444,0-3.572-.094Zm58.092,0c-1.034-2.444-1.128-4.794-1.128-7.99V66.858c0-6.862-1.692-11.844-6.862-14.006,4.606-2.162,6.768-6.58,6.768-13.348v-5.17C85.92,24.182,81.314,19.2,70.6,19.2h-15.6V85h10.34V58.21h3.572c4.7,0,6.768,2.256,6.768,8.366v10.34c0,5.358.376,6.392.94,8.084ZM70.316,28.6c3.666,0,5.264,2.068,5.264,6.768v6.486c0,5.264-2.35,6.956-6.2,6.956H65.334V28.6Zm18.518,0h10.81V85h10.34V28.6h10.81V19.2H88.834Zm55.742,31.866v9.4c0,4.7-2.068,6.392-5.358,6.392s-5.358-1.692-5.358-6.392V34.334c0-4.7,2.068-6.486,5.358-6.486s5.358,1.786,5.358,6.486v7.05h9.776V34.992c0-10.528-5.264-16.544-15.416-16.544S123.52,24.464,123.52,34.992V69.208c0,10.528,5.264,16.544,15.416,16.544s15.416-6.016,15.416-16.544V60.466Z" transform="translate(-25.55 -15.95)" fill="#fff"/>
  </g>
</svg>
